<svg width="256" height="256" viewBox="0 0 256 256" fill="none" xmlns="http://www.w3.org/2000/svg">
<g clip-path="url(#clip0_1_137)">
<path d="M43.2297 214V210.353H38.9622V205.49H34.7026V201.239H28.5721V196.988H22.7123V192.729H17.6566V188.47H12.784V184.211H8.52443V179.952H4.2649V170.845H30.4431V166.594H26.1756V162.335H21.9161V158.076H17.6566V153.817H12.784V149.558H8.52443V140.452H4.2649V131.958H26.1836V123.464H21.9161V119.212H17.6486V110.114H12.776V105.863H8.50851V97.369H4.24102V93.1179H-0.00259399V88.8747H38.9622V41.0001H43.2297V45.2512H48.1102V49.5023H52.3777V53.7534H56.6452V62.8516H60.9127V67.1027H65.1802V71.3538H69.4477V75.6049H73.7152V84.0992H78.5878V88.9542H117.553V79.8481H121.82V75.597H126.088V71.3459H130.355V62.8516H134.623V58.6005H139.503V53.7455H143.771V49.4944H148.038V45.2433H152.306V40.9922H156.573V88.9462L156.685 92.0531L230.856 93.1973H232.646V97.0384H250.92V109.193L243.643 109.113V113.372H239.383V123.551H224.113V127.802H219.853V143.726H206.27V148.064H202.011L202.066 155.867L191.286 155.947V162.407L202.13 162.645L202.305 167.047L206.684 167.127L206.78 170.528L221.079 170.623L221.286 183.17L224.351 183.4V187.437H239.097V197.004H239.383V201.255H243.651V205.506H250.928V214H43.2297ZM91.3266 158.156C89.9094 158.156 86.1714 158.156 84.7542 158.156V153.897H80.1416V149.638H76.1055V140.532H52.3618V149.638H56.6213V158.132H65.1484V162.383H73.6754V166.634H87.067V162.383H91.3345C91.3664 160.969 91.2947 159.546 91.3345 158.132C92.7517 158.132 94.1848 158.132 95.602 158.132V140.524H91.3345C91.2151 146.38 91.5017 152.276 91.3345 158.132L91.3266 158.156ZM160.737 158.156C157.903 158.235 155.044 158.1 152.21 158.156V153.897H147.95V149.638H143.691V140.532H121.772V144.783H126.032V153.889H130.299V158.14H134.567V162.383H143.699V166.634H156.485V162.383H160.753C160.785 160.969 160.713 159.546 160.753 158.132C162.17 158.092 163.603 158.164 165.02 158.132V144.775H160.753C160.665 149.217 160.88 153.698 160.753 158.132L160.737 158.156Z" fill="#6A110B"/>
</g>
<defs>
<clipPath id="clip0_1_137">
<rect width="256" height="173" fill="white" transform="translate(0 41)"/>
</clipPath>
</defs>
</svg>
