<svg width="256" height="256" viewBox="0 0 256 256" fill="none" xmlns="http://www.w3.org/2000/svg">
<path d="M44.1057 216.064V212.331H39.752V207.354H35.4064V203.004H29.152V198.653H23.1738V194.294H18.0159V189.935H13.0449V185.576H8.69931V181.217H4.35371V171.898H31.0608V167.547H26.7071V163.188H22.3615V158.829H18.0159V154.47H13.0449V150.111H8.69931V140.792H4.35371V132.098H26.7152V123.405H22.3615V119.054H18.0078V109.743H13.0368V105.392H8.68306V96.6985H4.32935V92.3477H0V88.0051H39.752V39.0081H44.1057V43.3589H49.0849V47.7097H53.4386V52.0604H57.7923V61.3719H62.146V65.7227H66.4997V70.0734H70.8534V74.4242H75.2072V83.1176H80.1782V88.0864H119.93V78.7668H124.284V74.4161H128.638V70.0653H132.991V61.3719H137.345V57.0211H142.324V52.0523H146.678V47.7015H151.032V43.3508H155.385V39H159.739V88.0783L159.853 91.258L235.523 92.4291H237.349V96.3602H255.992V108.799L248.568 108.718V113.077H244.222V123.494H228.643V127.845H224.298V144.142H210.44V148.582H206.095L206.152 156.568L195.154 156.65V163.261L206.217 163.505L206.395 168.01L210.863 168.092L210.96 171.572L225.548 171.67L225.76 184.511L228.887 184.747V188.878H243.93V198.669H244.222V203.02H248.576V207.371H256V216.064H44.1057ZM93.1743 158.91C91.7285 158.91 87.915 158.91 86.4692 158.91V154.552H81.7634V150.193H77.6458V140.873H53.4223V150.193H57.7679V158.886H66.4672V163.237H75.1665V167.588H88.8288V163.237H93.1825C93.215 161.789 93.1419 160.334 93.1825 158.886C94.6283 158.886 96.0904 158.886 97.5362 158.886V140.865H93.1825C93.0606 146.858 93.353 152.893 93.1825 158.886L93.1743 158.91ZM163.987 158.91C161.096 158.992 158.18 158.853 155.288 158.91V154.552H150.942V150.193H146.597V140.873H124.235V145.224H128.581V154.543H132.934V158.894H137.288V163.237H146.605V167.588H159.65V163.237H164.003C164.036 161.789 163.963 160.334 164.003 158.886C165.449 158.845 166.911 158.919 168.357 158.886V145.216H164.003C163.914 149.762 164.133 154.348 164.003 158.886L163.987 158.91Z" fill="black"/>
</svg>
