<svg width="702" height="188" viewBox="0 0 702 188" fill="none" xmlns="http://www.w3.org/2000/svg">
<g clip-path="url(#clip0_1_17)">
<path d="M36.3048 157.371V154.298H32.7209V150.201H29.1437V146.619H23.9952V143.038H19.0741V139.45H14.8282V135.862H10.7361V132.273H7.15893V128.685H3.58172V121.014H25.5665V117.432H21.9826V113.844H18.4054V110.256H14.8282V106.668H10.7361V103.079H7.15893V95.4077H3.58172V88.2515H21.9893V81.0952H18.4054V77.5137H14.8215V69.8487H10.7295V66.2672H7.14555V59.111H3.56166V55.5295H-0.00218225V51.9547H32.7209V11.6213H36.3048V15.2028H40.4036V18.7843H43.9875V22.3657H47.5714V30.0308H51.1553V33.6122H54.7392V37.1937H58.3231V40.7752H61.907V47.9314H65.9991V52.0217H98.7222V44.35H102.306V40.7685H105.89V37.187H109.474V30.0308H113.058V26.4493H117.157V22.359H120.74V18.7776H124.324V15.1961H127.908V11.6146H131.492V52.015L131.586 54.6325L193.876 55.5965H195.379V58.8325H210.726V69.0722L204.614 69.0052V72.5934H201.037V81.1688H188.213V84.7503H184.635V98.1658H173.228V101.821H169.651L169.698 108.395L160.645 108.462V113.904L169.752 114.105L169.899 117.814L173.576 117.881L173.656 120.746L185.665 120.826L185.839 131.396L188.413 131.591V134.991H200.796V143.051H201.037V146.633H204.621V150.214H210.732V157.371H36.3048ZM76.6972 110.323C75.5071 110.323 72.3678 110.323 71.1777 110.323V106.735H67.3039V103.146H63.9144V95.4747H43.9741V103.146H47.5513V110.303H54.7124V113.884H61.8736V117.466H73.12V113.884H76.7039C76.7307 112.692 76.6705 111.494 76.7039 110.303C77.8941 110.303 79.0977 110.303 80.2878 110.303V95.468H76.7039C76.6036 100.402 76.8443 105.369 76.7039 110.303L76.6972 110.323ZM134.989 110.323C132.609 110.39 130.208 110.276 127.828 110.323V106.735H124.251V103.146H120.674V95.4747H102.266V99.0561H105.843V106.728H109.427V110.309H113.011V113.884H120.68V117.466H131.419V113.884H135.002C135.029 112.692 134.969 111.494 135.002 110.303C136.193 110.269 137.396 110.329 138.586 110.303V99.0494H135.002C134.929 102.792 135.109 106.567 135.002 110.303L134.989 110.323Z" fill="#6A110B"/>
</g>
<path d="M440.694 103.975C441.364 98.8435 440.839 95.0108 441.274 90.6256L444.357 89.6243C444.482 86.641 444.15 74.2589 444.786 72.6015C445.553 71.9178 447.108 71.6692 448.18 71.3722C448.29 66.6141 448.463 58.8796 448.152 54.2597C439.505 52.478 448.975 47.858 441.461 46.2765C441.074 45.1302 440.811 43.8112 439.705 43.3278C437.59 42.3955 433.228 42.9825 430.767 43.0515V43.0653C428.424 51.2694 424.456 41.9259 422.396 49.9504C421.041 50.2474 420.461 50.1852 419.5 51.2902C417.972 53.058 420.841 58.3962 416.624 57.1946C414.081 55.5234 416.479 48.4864 414.965 46.9809C413.334 46.0832 411.212 46.9533 409.539 46.3663C406.629 45.3443 411.219 42.5612 401.562 43.0515C401.182 44.191 400.774 45.3166 400.352 46.4354C396.302 46.6978 394.643 45.3028 393.495 49.6535C387.018 51.1659 391.76 55.2748 389.272 57.2568C388.463 57.4018 388.269 57.4778 387.495 57.2222C384.599 54.9917 389.106 46.6356 384.281 46.684C381.827 46.7047 373.843 45.8484 372.329 47.5472C371.493 49.9435 373.643 53.3757 369.827 54.0249C369.08 54.1561 369.101 54.163 368.569 54.6878C368.251 55.924 368.417 57.975 368.375 59.3078C368.244 63.0784 368.638 67.9331 368.175 71.5932C367.242 71.8211 365.811 72.1319 364.933 72.415C364.573 74.9771 365.223 88.8578 364.166 89.6105C363.391 90.156 362.327 90.3425 361.428 90.5842C360.785 95.5288 361.712 102.296 361.076 107.503C360.004 107.842 358.401 108.18 357.744 108.967C356.831 111.032 357.613 116.481 357.523 118.96C357.398 122.461 357.447 122.13 354.26 123.297C354.039 126.418 354.502 138.517 353.769 140.147C352.988 140.789 351.509 140.948 350.451 141.169C350.306 143.462 349.967 152.84 350.755 154.553C351.896 155.561 364.719 155.257 366.778 155.126C367.152 155.098 367.532 155.064 367.905 155.022L368.666 152.053C369.668 151.839 370.898 151.687 371.672 151.065C372.55 149.615 371.97 137.337 372.232 134.201L375.467 133.193C375.986 128.041 375.371 121.405 375.723 115.984C376.926 115.632 378.136 115.293 379.345 114.976C379.442 112.013 379.249 103.878 379.643 101.564C380.527 101.233 382.041 100.701 382.857 100.321C383.14 95.9155 382.573 86.8205 383.196 83.2779C384.253 82.9878 385.332 82.7116 386.375 82.387C386.721 78.9548 386.355 75.6262 386.749 72.3183L390.018 71.3791C390.129 69.3488 389.714 66.6694 390.716 65.2951C393.08 63.6032 393.799 66.3103 394.318 67.9539C395.396 68.2854 396.668 68.5201 397.221 69.6182C397.733 70.6402 397.753 73.1194 397.38 74.1967C397.262 74.5351 397 74.9011 396.668 75.0461C395.735 75.4467 394.408 75.5848 393.965 76.6068C392.797 79.3277 394.954 92.4557 392.866 93.3534C392.113 93.678 391.041 93.6089 390.502 94.2857C389.673 96.7511 391.021 106.82 389.285 107.718C388.415 108.173 387.198 108.201 386.852 109.285C385.67 112.938 387.468 120.832 386.597 124.802C386.479 125.32 386.203 125.721 385.732 125.983C384.944 126.425 383.908 126.28 383.334 127.074C382.47 130.59 383.527 139.381 382.829 143.745C381.765 144.104 380.686 144.443 379.608 144.753C379.131 146.777 378.855 152.736 379.898 154.539C381.336 155.568 397.193 155.223 400.034 155.119C402.551 153.254 399.53 140.568 401.617 137.558C401.922 137.122 404.133 136.929 404.61 136.874C405.392 131.708 404.133 125.175 404.991 120.5C405.081 120.01 405.205 119.665 405.627 119.368C406.581 118.698 408.115 119.022 408.357 117.517C408.799 114.803 407.507 102.752 409.021 101.551C409.712 100.998 410.977 100.86 411.834 100.57C412.021 97.3588 411.682 89.203 412.214 86.7998L415.401 85.7432C415.484 82.6494 415.242 74.7423 415.74 72.3943C416.735 72.0974 417.73 71.7797 418.733 71.5518C419.016 70.7024 419.382 69.4939 419.7 68.6859L422.528 67.8917C422.763 66.9318 422.922 65.7578 423.613 65.1087C424.505 64.7427 424.159 64.7634 425.113 64.8739C425.638 65.2192 426.288 65.8752 426.364 66.9318C426.585 70.0601 426.71 75.419 426.129 78.43C426.011 79.0377 423.405 79.3623 423.226 80.0736C422.272 83.7751 423.412 87.8702 422.873 91.772C422.445 94.8451 419.438 92.4833 419.203 95.1558C418.795 99.7758 419.818 106.599 418.76 110.991C418.677 111.336 416.334 112.123 415.76 112.317C415.111 116.156 415.698 124.754 415.387 129.395L412.187 130.265C411.716 135.824 412.401 142.019 411.869 147.619C410.68 147.826 409.415 147.84 408.71 148.738C408.329 149.663 407.998 154.891 409.242 154.905C414.067 154.946 425.555 155.961 429.737 154.656C430.622 153.593 430.124 143.814 430.366 141.294C431.279 140.941 432.834 140.396 433.664 139.988C433.774 137.274 433.449 124.699 434.078 123.283C434.859 122.565 436.09 122.406 437.168 122.137C437.742 116.854 436.94 110.418 437.528 105.01C438.585 104.672 439.643 104.327 440.7 103.981L440.694 103.975Z" fill="#6A110B"/>
<path d="M504.423 104.023C504.596 101.461 504.216 92.1446 504.928 90.7703C505.757 90.0798 507.174 89.9486 508.273 89.7483C508.529 84.6794 507.983 76.8551 508.571 72.3249L511.522 71.3581C512.006 66.4826 511.868 59.1486 511.522 54.1143L508.612 53.1958C508.446 51.3658 508.626 48.2375 507.541 47.1049C505.854 46.1657 503.656 46.5939 501.658 46.4489C500.794 43.6727 499.674 41.9946 496.011 42.7681C493.972 43.1962 493.667 44.6257 493.101 46.4627C491.061 46.5317 488.815 46.5524 486.817 46.8908C486.299 48.4585 486.181 49.3148 484.792 50.2263C483.133 50.3714 482.683 47.3121 482.76 46.2072C482.912 43.9421 482.303 34.1358 483.202 32.6925C484.073 32.1331 485.124 31.8914 486.119 31.6014C486.368 29.3846 485.746 19.1571 486.948 18.2041C487.723 17.5895 489.064 17.3616 490.011 17.0301C490.08 15.4211 490.405 12.1684 489.686 10.8425C488.442 9.95857 471.907 10.2348 469.183 10.3384C466.778 12.4447 469.723 21.6915 467.656 24.4055C467.379 24.7646 465.506 25.2757 464.974 25.4483C464.704 27.8308 465.471 37.6854 464.061 38.8248C463.342 39.4049 462.001 39.6466 461.117 39.916C460.868 44.2183 461.386 53.5135 460.75 56.9595C459.997 57.1943 458.248 57.6915 457.598 57.9677C457.114 62.8571 457.909 70.6813 457.246 74.7972C456.54 75.0251 454.211 75.6673 454.066 76.2474C453.126 79.9697 453.858 85.5979 453.492 89.6033C452.593 89.9071 451.308 90.2938 450.464 90.6737C450.188 93.1252 450.976 106.529 449.538 107.565C448.501 108.311 446.932 107.959 446.621 109.561C446.027 112.62 447.706 124.464 445.633 125.935C445.024 126.37 443.842 126.549 443.123 126.757C442.875 129.47 443.614 142.764 442.204 143.8C441.146 144.574 439.84 144.263 439.515 145.858C439.204 147.384 439.308 152.936 439.688 154.4C440.877 155.616 451.287 155.222 453.395 155.001L454.183 152.046C455.11 151.79 456.423 151.472 457.294 151.148C457.467 147.888 457.384 144.649 457.384 141.39C457.384 139.705 457.142 137.488 459.354 137.219C463.301 138.807 459.043 148.966 462.001 151.417C462.064 151.472 463.833 152.052 464.179 152.191C464.545 153.054 464.898 153.876 465.188 154.766C465.955 155.043 467.186 155.45 467.891 155.768C468.147 156.79 468.416 157.819 468.686 158.841C471.617 158.993 475.363 159.055 478.287 158.841L478.405 158.689C479.469 157.28 479.49 155.07 481.584 154.974C484.826 154.822 486.243 156.562 486.713 152.032C487.605 151.831 489.223 151.521 490.031 151.251C490.087 149.38 490.08 146.714 490.405 144.94L493.584 143.558C493.626 141.77 493.626 139.249 493.909 137.536C494.953 137.281 495.997 137.005 497.055 136.804C497.407 133.939 496.826 124.567 497.766 123.214C498.824 122.565 499.813 122.572 500.953 122.24C501.209 119.167 500.732 106.778 501.465 105.134C502.225 104.513 503.476 104.278 504.458 104.016L504.423 104.023ZM479.877 50.4819C483.962 50.1918 483.465 55.3435 481.806 57.2012C477.872 57.8089 478.792 51.8423 479.877 50.4819ZM489.948 78.1189C489.451 79.2722 488.179 78.9062 487.246 79.3274C485.131 80.2804 487.246 93.505 486.022 96.364C485.683 97.1513 483.942 97.6416 483.188 97.9455C482.787 101.882 483.285 106.916 482.939 111.184C481.757 111.508 480.568 111.75 479.379 112.013C479.172 114.892 479.628 127.744 478.895 129.229C478.149 129.837 477.029 129.988 476.068 130.209L475.329 132.937C474.451 133.296 473.262 133.683 472.342 134.015C471.955 135.264 471.783 136.003 471.084 137.115C468.43 137.17 468.541 136.404 467.96 134.077C467.02 133.863 465.845 133.704 465.147 133.089C464.393 131.515 464.725 121.598 464.905 119.443C465.693 119.181 467.835 118.856 468.071 117.972C469.114 114.098 467.31 105.203 468.582 101.813C469.045 101.205 470.87 100.784 471.762 100.487C471.928 96.8406 471.485 90.2317 472.107 86.9514C473.255 86.6614 474.361 86.3299 475.488 85.9915C475.84 82.9322 475.494 79.4379 475.819 76.0817L478.764 75.1356C479.289 70.7159 477.333 69.0378 482.393 67.8776C482.718 66.5793 482.822 65.6332 483.762 64.7147H483.769C486.285 64.8321 486.25 65.6815 486.921 67.8223C488.013 68.2022 489.126 68.4853 489.81 69.4107C490.412 71.2545 490.716 76.2958 489.942 78.0982L489.948 78.1189Z" fill="#6A110B"/>
<path d="M291.276 45.9931C292.368 45.5649 293.46 45.1506 294.566 44.75C294.718 42.7957 294.746 40.9864 294.781 39.032C295.728 38.6315 296.958 38.155 297.863 37.7268L298.707 35.0267C299.64 34.7021 300.815 34.3361 301.714 33.9839C301.804 29.5227 300.781 28.4938 305.225 26.9469C305.287 25.3033 305.329 22.4029 305.578 20.8767L308.751 19.8684C308.889 18.5632 309.359 15.7249 308.578 14.5993C308.087 13.888 306.608 13.7568 305.799 13.6739C303.781 13.4667 289.009 13.3079 288.172 13.9847C287.73 14.3369 287.661 15.1034 287.64 15.6283C287.592 16.7263 287.861 19.0673 287.059 19.8546C286.451 20.4554 285.055 20.635 284.232 20.8283C284.101 24.8061 285.006 26.6361 280.921 28.0794C280.644 28.8391 280.223 30.1443 279.905 30.8418C273.2 33.0171 280.886 36.2145 273.905 38.8456L273.511 38.9906C273.379 42.8648 274.513 44.757 270.338 45.9102L269.363 48.3756C268.485 48.6725 267.317 49.0247 266.488 49.3493C266.363 51.2484 266.557 54.2041 265.458 55.5645C264.635 55.9927 264.974 55.9029 264.055 55.827C262.368 54.8256 262.603 52.1807 262.631 50.4404C262.679 47.6712 262.575 44.8122 262.997 42.0706L264.953 42.0844C265.548 42.0844 266.032 41.6217 266.052 41.0278C266.156 37.4161 266.066 30.5862 266.488 28.4247C267.151 28.0794 267.532 28.0518 267.974 27.9896C268.617 27.893 269.094 27.3405 269.094 26.6914L269.038 14.0675C267.684 12.8176 255.421 13.2803 253.022 13.3632C252.186 13.9432 251.896 15.4625 251.543 16.5329L249.041 16.8782L247.99 30.676C247.7 31.0904 246.4 31.4218 245.861 31.5669C245.633 31.629 245.405 31.6912 245.177 31.7533C244.589 35.959 245.177 43.5139 244.852 48.3203L241.637 49.1974C241.423 51.5177 242.121 61.4414 240.836 62.6223C239.709 63.6443 238.16 62.7949 237.932 64.8667C237.635 67.5323 238.707 79.0167 237.151 80.384C236.163 81.2541 234.649 80.895 234.435 82.5662C234.137 84.8797 235.091 97.0753 233.806 98.0836C233.142 98.6084 231.746 98.7051 230.909 98.8639C230.75 102.538 231.02 109.057 230.591 112.24C229.541 112.537 228.483 112.807 227.418 113.055C227.17 117.496 227.695 126.377 227.045 130.03C225.981 130.444 224.902 130.824 223.817 131.169C223.306 136.052 223.893 142.474 223.561 147.619C222.594 147.84 221.253 148.026 220.596 148.689C219.988 149.78 219.856 153.979 220.789 154.856C223.015 155.381 238.61 155.326 240.905 154.704C241.845 153.648 241.271 147.398 241.589 145.167C242.633 144.801 243.87 144.408 244.879 144.007C244.962 141.583 244.444 128.504 245.46 127.516C246.207 126.798 247.451 126.577 248.419 126.259C248.488 123.587 248.377 119.167 248.73 116.764L251.902 115.728C252.082 113.718 251.771 111.039 252.815 109.706C253.686 109.306 253.333 109.381 254.287 109.471C256.624 110.825 255.525 116.729 255.849 119.395C256.527 119.657 258.773 120.452 258.877 121.038C259.769 126.515 258.849 135.043 259.299 140.416C260.467 140.955 262.299 141.569 262.658 142.764C263.529 145.644 262.022 152.052 263.184 154.601C266.045 155.802 279.573 155.098 283.25 154.801C284.066 154.739 283.852 150.195 283.845 149.352C284.025 146.348 284.218 141.176 283.942 138.179C283.451 138.047 280.997 137.488 280.907 136.984C279.739 130.727 281.073 123.752 280.34 117.372C280.23 116.425 277.444 116.564 277.278 115.749C276.214 110.466 277.797 104.313 276.594 99.0504C276.545 98.857 275.605 98.5256 275.294 98.4358C274.714 98.2701 274.126 98.1112 273.538 97.9593C273.421 95.6182 273.158 79.1341 273.746 77.9048C274.472 77.2073 275.792 76.9725 276.829 76.6549C277.209 72.1661 275.661 71.0335 280.43 69.4659C280.562 65.1291 279.504 63.8308 283.983 62.4013C284.025 60.6127 284.004 58.0299 284.315 56.3311L287.246 55.4609L288.172 52.9403L291.048 52.2014C291.172 50.3576 291.131 47.6505 291.304 45.9931H291.276ZM261.635 62.7535C260.861 63.1747 259.886 62.8847 259.472 62.1043C259.057 61.324 259.347 60.3572 260.121 59.9428C260.896 59.5216 261.863 59.8185 262.278 60.592C262.7 61.3654 262.402 62.3322 261.628 62.7535H261.635Z" fill="#6A110B"/>
<path d="M554.945 153.469C555.72 148.938 552.132 145.665 558.181 143.745C558.547 140.976 557.849 131.674 558.872 130.431C559.757 129.858 561.022 129.63 562.065 129.367C562.259 124.727 561.789 116.067 562.397 112.075L565.584 111.108C565.992 105.874 565.411 100.529 565.833 95.3009C565.95 93.8438 567.92 93.54 569.088 93.1463C569.462 90.3288 568.833 81.0404 569.8 79.6869C570.609 79.1137 571.722 78.948 572.704 78.7201C572.994 75.4951 573.229 57.2776 572.628 54.6741C571.964 53.8799 570.713 53.7625 569.676 53.5622C569.455 52.6852 569.185 51.4698 568.909 50.6411L566.282 49.7917C565.909 48.8663 565.459 47.6785 565.052 46.7945C562.833 46.539 561.132 46.6012 559.065 46.4354C558.872 45.738 558.333 43.4728 557.766 43.3278C555.118 42.6372 547.888 42.9204 545.261 43.0792V43.0999C544.114 43.7284 543.761 45.2131 543.291 46.4769C539.04 46.6012 537.588 45.4272 536.392 49.8262C535.418 50.1162 534.45 50.4201 533.461 50.6549L532.653 53.6175C531.837 53.7832 530.627 53.9973 529.853 54.2183L529.114 57.0566C528.187 57.2983 526.749 57.6297 525.892 57.9543C525.796 59.6255 525.761 62.2497 525.567 63.8105C524.461 64.3422 522.602 65.0397 522.339 66.2413C521.904 68.2302 521.945 72.9468 522.823 74.7078C523.798 75.8611 537.671 75.4122 539.856 75.2258C540.139 74.2935 540.526 73.1264 540.733 72.1941C541.687 71.9731 542.911 71.7245 543.816 71.4483C543.892 68.2923 542.994 61.9942 550.667 65.5714C551.545 65.9789 551.047 79.7214 550.95 81.3581C550.922 82.539 548.572 83.0431 547.639 83.3608C547.404 86.1646 548.593 93.5192 545.392 93.906C542.669 92.801 545.04 87.5733 542.862 86.5375C542.372 86.3027 541.356 86.061 540.789 85.9228L539.904 83.2503C536.849 82.9879 529.577 82.9395 526.411 83.2089L525.415 86.0748L522.547 86.9104C522.263 87.8427 521.938 88.844 521.703 89.7901L519.001 90.4738C518.745 91.3301 518.441 92.435 518.15 93.2568C517.259 93.5054 516.028 93.7955 515.178 94.0855C514.839 98.5743 516.291 99.9278 511.646 101.675C511.397 107.013 513.602 110.798 507.92 112.282C507.256 116.426 508.335 121.122 507.547 125.03C507.45 125.507 507.284 125.776 506.883 126.039C506.06 126.591 504.657 126.156 504.339 127.351C503.911 128.967 503.855 146.376 504.436 147.329C504.512 147.461 504.498 147.426 504.65 147.536C509.116 148.766 507.312 150.831 507.795 154.684C508.736 155.064 510.706 155.865 511.694 156.1C513.478 156.521 520.646 156.839 522.049 156.024C526.473 153.462 528.491 157.812 529.839 152.136L532.673 151.286L533.296 148.289C534.18 148.137 535.846 147.896 536.655 147.681C536.821 145.679 536.503 142.426 537.505 141.1C542.102 138.455 539.786 152.529 540.471 154.097C541.031 155.381 544.598 155.347 546.146 155.292C548.489 155.209 553.909 156.231 554.939 153.469H554.945ZM543.809 117.779C543.222 118.746 541.597 119.264 540.512 119.727C540.256 122.02 540.492 124.001 540.526 126.273C540.568 129.215 539.717 129.637 537.236 130.175L536.441 133.048C535.183 133.393 533.849 133.483 533.254 134.678C532.432 137.682 531.567 137.102 528.72 137.205C527.8 137.24 527.15 137.129 526.432 136.542C525.402 134.519 525.45 122.827 526.093 120.183C526.528 119.395 528.422 118.684 529.335 118.27C529.618 116.163 529.487 111.405 529.591 108.892C530.441 108.574 531.664 108.236 532.563 107.959C532.639 107.649 532.715 107.338 532.798 107.027C533.116 105.791 533.15 105.19 534.25 104.534C538.121 104.341 539.482 103.581 540.754 107.683C541.528 107.952 543.36 108.574 543.616 109.258C544.28 111.046 544.19 116.094 543.816 117.779H543.809Z" fill="#6A110B"/>
<path d="M687.898 54.2247L684.663 53.472L683.84 50.7373L681.407 49.6807C681.054 48.8313 680.584 47.6158 680.19 46.8148C677.923 46.5385 676.306 46.6007 674.163 46.4488C673.872 45.4198 673.582 43.7762 672.711 43.2514C670.942 42.768 662.536 42.9199 660.372 43.0856C659.08 43.7831 658.852 45.0676 658.361 46.4833C654.061 46.6007 652.547 45.3715 651.282 49.8326L648.642 50.7096L647.805 53.5618L644.875 54.1418L644.1 56.9801C643.222 57.2633 641.798 57.6638 640.99 58.0091C640.762 62.56 641.978 63.444 637.478 65.3362C637.381 67.6634 637.008 72.6977 637.865 74.6728C639.248 75.8399 652.285 75.4117 654.614 75.2184C654.732 75.2115 654.849 75.1976 654.96 75.1907L655.762 72.1729C656.702 71.9657 658.105 71.6964 658.99 71.3925C659.066 70.0459 658.734 65.8541 659.978 65.1497C661.174 64.466 664.706 64.4798 665.792 65.5364C666.421 67.401 666.497 80.6463 665.84 82.1035C664.174 83.7539 662.771 81.5441 662.743 85.9293C662.729 87.9458 663.614 93.8779 660.683 93.5257C659.944 93.4359 659.888 93.3392 659.391 92.8696C658.153 89.6998 661.153 87.2966 655.886 85.9845L654.891 83.2429C651.946 82.9874 644.301 82.9667 641.342 83.2291L640.416 85.9914L637.741 86.9513C637.478 87.9043 637.195 88.8711 636.96 89.8311L634.126 90.4388L633.275 93.2011C632.446 93.4497 631.222 93.7743 630.434 94.0712C630.317 95.3695 630.414 99.7064 629.695 100.376C628.741 101.253 626.847 100.639 626.446 102.607C626.003 104.789 627.241 110.072 625.699 111.501C624.953 112.192 623.404 111.28 622.914 113.622C622.395 116.121 623.66 124.125 622.333 125.714C621.372 126.397 619.133 126.425 619.202 127.861C619.347 130.741 618.51 145.561 619.437 147.35L619.713 147.564C624.013 148.675 622.81 150.761 622.921 154.504C631.036 158.523 635.743 155.505 643.955 155.043L644.868 152.101C645.801 151.845 646.907 151.569 647.812 151.279L648.476 148.323L651.587 147.66C651.67 145.471 651.144 141.417 653.709 140.886C658.105 141.894 653.446 154.435 656.978 155.015C659.785 155.471 666.849 155.512 669.621 154.877C669.787 151.735 669.601 147.729 669.967 144.829C670.838 144.58 672.711 144.187 673.216 143.489C674.916 141.114 671.681 130.361 675.165 129.912C675.283 129.899 676.63 129.484 676.914 129.388C677.488 124.029 676.637 117.344 677.266 112.109C678.442 111.778 679.624 111.481 680.812 111.211C681.13 106.184 680.515 98.7257 681.096 94.1955C682.174 93.8157 683.253 93.4566 684.345 93.1113C684.552 89.7275 684.179 82.3521 684.718 79.6726C685.769 79.3549 686.826 79.0511 687.891 78.761C688.181 74.7764 688.022 69.5004 688.036 65.4328C688.043 62.4081 688.174 57.1182 687.891 54.2385L687.898 54.2247ZM658.568 118.103C658.402 118.697 655.706 119.174 655.727 120.306C655.513 122.157 655.693 124.181 655.706 126.052C655.727 129.622 655.492 129.622 652.126 130.078L651.386 133.02C650.059 133.434 649.077 133.545 648.379 134.698C647.349 137.916 646.25 137.032 643.222 137.177C642.642 137.205 641.951 137.025 641.563 136.59C640.596 134.304 640.582 123.338 641.169 120.355C641.322 119.588 643.464 118.704 644.273 118.311C644.543 115.942 644.398 111.55 644.501 108.843C645.331 108.539 646.782 108.152 647.674 107.89C648.027 106.75 648.365 105.148 649.278 104.513C653.183 104.326 654.732 103.553 655.997 107.717C656.999 108.09 658.665 108.477 658.762 109.754C658.955 112.213 659.232 115.721 658.561 118.103H658.568Z" fill="#6A110B"/>
<path d="M621.947 96.7925C622.058 93.8023 621.912 89.8798 622.272 87.0968L625.452 85.9297C625.652 83.5817 625.493 81.6343 625.472 79.307C625.445 76.227 626.35 75.716 628.97 74.9633C629.481 69.4801 627.912 69.9289 632.917 67.6086C633.014 64.8394 632.848 60.758 633.076 58.2581C634.175 57.7609 635.281 57.2913 636.401 56.8562C636.429 55.7789 636.276 51.4697 637.113 50.8344C638.316 49.9228 641.399 50.1714 640.03 47.2365C639.836 46.829 639.18 46.7185 638.779 46.6702C635.468 46.6495 621.456 46.1246 619.099 46.9809C617.979 48.0168 618.311 51.8357 618.159 53.3688L615.263 54.2527C615.076 55.5441 614.91 59.6531 614.004 60.5923C613.382 61.2345 611.233 61.1655 611.253 62.9126C610.928 65.7716 611.475 68.5063 610.728 71.3239L607.756 72.5255C607.493 77.8982 609.629 81.4478 603.981 83.561C603.912 85.6535 604.168 91.3162 603.504 92.7733C601.61 94.5067 600.145 92.8838 600.166 90.8397C600.2 87.7321 600.249 84.6245 600.249 81.51V58.2927C600.249 55.3232 600.491 49.985 599.772 47.2779C599.454 46.0694 585.394 46.539 583.631 46.5942C582.649 46.9671 582.332 47.271 582.29 48.4588C581.993 56.877 582.643 65.4402 582.173 73.8376C582.076 75.4743 580.133 75.6331 578.668 76.1304C578.239 80.2946 578.495 88.8854 578.502 93.4294V134.077C578.488 137.827 578.488 141.577 578.516 145.327C578.543 147.771 578.599 150.195 578.516 152.64C578.433 155.243 577.175 155.015 575.011 155.692C574.942 157.301 574.908 160.464 574.638 161.935C573.691 162.246 572.751 162.57 571.79 162.826C571.5 163.8 571.258 165.015 570.587 165.733C569.765 166.106 569.619 166.196 568.728 166.154C566.281 164.704 568.534 161.058 566.682 159.304C565.237 158.896 551.509 158.89 550.43 159.442C549.055 161.251 549.331 177.183 549.608 179.959C552.712 180.981 552.781 180.919 553.424 184.089C557.986 184.634 559.285 182.929 560.937 187.777C563.716 187.859 568.175 187.991 570.864 187.68C571.154 186.609 571.451 185.532 571.755 184.462C573.47 184.365 576.525 184.344 578.046 184.137C578.516 182.259 578.412 181.706 579.815 180.719C581.924 179.227 585.103 181.838 585.587 179.393C585.898 177.832 585.663 175.684 585.926 173.861C587.004 173.461 587.986 173.102 589.085 172.75L589.949 170.049L592.735 169.096C592.797 167.308 592.818 164.787 593.06 163.074L596.309 162.039C596.723 160.07 596.239 152.909 597.497 152.053C598.728 151.217 599.813 151.473 600.159 149.767C600.67 147.253 600.166 144.325 600.283 141.742C600.795 140.9 602.682 140.562 603.719 140.278C603.753 138.621 603.733 135.686 603.947 134.139C604.852 133.828 606.587 133.276 607.403 132.91C607.7 130.9 607.652 129.126 607.548 127.102C607.355 123.518 607.845 122.979 610.998 122.026C611.108 120.203 611.094 117.6 611.253 115.922C612.332 115.535 613.569 115.127 614.62 114.72C614.758 112.621 614.716 110.777 614.592 108.677C614.398 105.238 615.38 104.886 618.138 103.809C618.325 99.2372 616.984 97.8146 621.947 96.7718V96.7925ZM598.942 104.472C598.327 104.644 597.663 104.479 597.207 104.03C596.751 103.581 596.571 102.925 596.737 102.303C596.903 101.689 597.394 101.205 598.009 101.047C598.949 100.805 599.91 101.364 600.166 102.296C600.421 103.229 599.875 104.196 598.942 104.465V104.472Z" fill="#6A110B"/>
<path d="M350.873 104.078C351.502 98.9745 350.68 92.0825 351.212 86.7236C352.29 86.3783 353.383 86.0606 354.475 85.7706C354.703 83.2292 354.613 80.2805 354.599 77.6977C354.599 76.1991 354.62 74.3967 354.502 72.9327C354.205 69.2588 354.807 68.7547 358.028 67.8155C358.394 62.4497 357.834 56.9527 358.201 51.5937C358.249 50.8894 361.601 49.5773 361.878 47.761C360.62 45.5097 350.168 46.9807 347.348 46.5594C346.09 46.373 341.776 46.4351 340.608 46.9876C339.233 48.5068 340.318 53.9003 339.834 56.0204C339.509 57.4291 336.772 57.3394 336.564 58.6584C335.811 63.4786 336.772 68.7892 336.309 73.7131C336.06 76.358 333.136 74.4382 332.901 77.2005C332.472 82.0898 333.564 88.1324 332.521 92.849C332.41 93.3601 330.067 93.8297 329.431 93.9885L329.445 94.0023C328.871 99.4234 329.714 106.074 329.078 111.343L325.919 112.275C325.809 113.877 326.154 125.375 324.986 125.672C317.908 127.454 325.829 132.53 318.862 133.725C318.357 135.189 318.067 137.101 316.2 137.164C315.433 137.191 311.659 137.516 311.583 136.376C311.14 129.926 310.988 122.44 311.389 115.97L314.389 115.003C314.604 112.158 313.781 99.154 315.281 97.8281C315.972 97.2135 317.396 96.9925 318.302 96.7508C318.454 92.5728 318.157 87.4142 318.488 83.4502C319.318 83.1118 321.226 82.5732 321.578 81.7031C322.85 78.5955 320.375 66.1926 322.961 65.0117C323.742 64.6526 324.73 64.4869 325.567 64.2797C325.705 61.621 326.044 48.9972 325.214 47.2224C323.735 46.1174 311.216 46.5318 308.756 46.6008C305.935 47.8853 308.928 51.9598 306.35 53.479C305.603 53.921 304.504 53.8174 304.014 54.5218C303.177 57.443 303.91 62.4151 303.855 65.6263C303.813 67.8431 303.744 69.1276 303.468 71.372L300.537 72.5736C300.288 75.1633 300.889 88.6641 299.797 89.6517C298.871 90.1558 297.751 90.287 296.707 90.4804C296.382 94.2647 296.928 100.984 296.306 104.112L293.161 104.955C292.795 109.644 293.479 118.076 292.781 122.026C291.64 122.358 290.562 122.668 289.408 122.945C288.958 127.24 289.304 134.104 289.207 138.621C289.152 141.176 289.103 149.256 289.449 151.217C292.221 152.032 292.504 151.894 293.334 154.718C296.14 155.671 296.196 155.713 296.97 158.579C300.177 159.124 303.862 159.062 307.069 158.579C308.147 153.372 309.744 155.637 314.14 154.988L315.15 152.039C316.028 151.804 317.403 151.479 318.219 151.182C318.357 149.401 318.136 145.955 318.951 144.746C319.553 144.401 319.712 144.263 320.431 144.27C323.396 145.81 320.956 153.247 322.442 154.739C323.735 155.402 337.2 155.423 338.887 154.863C339.309 154.725 339.454 154.622 339.661 154.2C341.023 151.369 338.369 138.289 340.947 137.267C341.721 136.963 342.772 136.901 343.594 136.784C344.002 131.819 343.27 123.898 343.975 119.533C345.046 119.146 346.021 118.801 347.113 118.476C347.272 114.961 346.982 107.89 347.479 104.955L350.901 104.071L350.873 104.078Z" fill="#6A110B"/>
<defs>
<clipPath id="clip0_1_17">
<rect width="214.992" height="145.749" fill="white" transform="translate(0 11.6212)"/>
</clipPath>
</defs>
</svg>
