<svg width="699" height="192" viewBox="0 0 699 192" fill="none" xmlns="http://www.w3.org/2000/svg">
<rect x="42.7508" y="75.7587" width="107.582" height="49.8552" fill="#F10900"/>
<path d="M37.6738 148.278V145.205H34.09V141.108H30.5127V137.526H25.3642V133.945H20.4431V130.357H16.1972V126.769H12.1051V123.18H8.52793V119.592H4.95072V111.921H26.9355V108.339H23.3516V104.751H19.7744V101.163H16.1972V97.5746H12.1051V93.9864H8.52793V86.3147H4.95072V79.1585H23.3583V72.0022H19.7744V68.4207H16.1905V60.7557H12.0985V57.1743H8.51456V50.018H4.93066V46.4365H1.36682V42.8618H34.09V2.52834H37.6738V6.10981H41.7726V9.69129H45.3565V13.2728H48.9404V20.9378H52.5243V24.5193H56.1082V28.1007H59.6921V31.6822H63.276V38.8385H67.3681V42.9287H100.091V35.257H103.675V31.6755H107.259V28.094H110.843V20.9378H114.427V17.3563H118.526V13.2661H122.109V9.68459H125.693V6.10312H129.277V2.52164H132.861V42.922L132.955 45.5395L195.245 46.5035H196.748V49.7395H212.095V59.9792L205.983 59.9122V63.5004H202.406V72.0759H189.582V75.6573H186.004V89.0728H174.597V92.7279H171.02L171.067 99.3017L162.014 99.3687V104.811L171.121 105.012L171.268 108.721L174.945 108.788L175.025 111.653L187.034 111.733L187.208 122.304L189.782 122.498V125.898H202.165V133.958H202.406V137.54H205.99V141.121H212.101V148.278H37.6738ZM78.0663 101.23C76.8761 101.23 73.7368 101.23 72.5467 101.23V97.6416H68.6729V94.0534H65.2834V86.3817H45.3431V94.0534H48.9203V101.21H56.0815V104.791H63.2426V108.373H74.489V104.791H78.0729C78.0997 103.6 78.0395 102.401 78.0729 101.21C79.2631 101.21 80.4667 101.21 81.6568 101.21V86.375H78.0729C77.9726 91.3087 78.2134 96.2759 78.0729 101.21L78.0663 101.23ZM136.358 101.23C133.978 101.297 131.577 101.183 129.197 101.23V97.6416H125.62V94.0534H122.043V86.3817H103.635V89.9631H107.212V97.6349H110.796V101.216H114.38V104.791H122.049V108.373H132.788V104.791H136.371C136.398 103.6 136.338 102.401 136.371 101.21C137.562 101.176 138.765 101.236 139.955 101.21V89.9565H136.371C136.298 93.6986 136.478 97.4742 136.371 101.21L136.358 101.23Z" fill="black"/>
<path d="M78.0677 101.23C78.0342 102.422 78.0944 103.627 78.0677 104.812H74.4838V108.386H63.2373V104.805H56.0762V101.223H48.9151V94.0671H45.3379V86.3954H67.3227V94.0671H70.9066V97.6486H74.4905V101.23C75.6806 101.23 76.8842 101.23 78.0744 101.23C78.2148 96.303 77.9741 91.3291 78.0744 86.3954H81.6583V101.23C80.4681 101.23 79.2645 101.23 78.0744 101.23H78.0677Z" fill="#F10900"/>
<path d="M136.358 101.23C136.325 102.421 136.385 103.626 136.358 104.811H132.774V108.386H122.036V104.805H114.367V101.223H110.783V97.6349H107.206V89.9632H103.622V86.3817H122.029V94.0534H125.613V97.6349H129.197V101.216C131.577 101.163 133.978 101.283 136.358 101.216C136.465 97.4809 136.285 93.7053 136.358 89.9632H139.942V101.216C138.752 101.243 137.548 101.183 136.358 101.216V101.23Z" fill="#F10900"/>
<path d="M446.984 106.026C447.667 100.794 447.132 96.8855 447.575 92.4137L450.716 91.3926C450.843 88.3505 450.505 75.724 451.153 74.0339C451.934 73.3368 453.519 73.0833 454.61 72.7804C454.723 67.9285 454.899 60.0413 454.582 55.3302C445.772 53.5133 455.42 48.8022 447.765 47.1895C447.371 46.0206 447.103 44.6755 445.977 44.1826C443.822 43.2319 439.378 43.8305 436.871 43.9009V43.915C434.484 52.281 430.442 42.753 428.343 50.9359C426.963 51.2387 426.372 51.1754 425.393 52.3021C423.836 54.1049 426.759 59.5484 422.463 58.3231C419.872 56.6189 422.315 49.443 420.773 47.9078C419.111 46.9924 416.949 47.8797 415.245 47.2811C412.28 46.2389 416.956 43.4009 407.118 43.9009C406.731 45.0628 406.316 46.2107 405.886 47.3515C401.759 47.6191 400.069 46.1966 398.9 50.6331C392.302 52.1753 397.133 56.3654 394.598 58.3864C393.774 58.5343 393.577 58.6118 392.788 58.3512C389.837 56.0766 394.429 47.5557 389.513 47.605C387.013 47.6261 378.88 46.7529 377.338 48.4853C376.485 50.9289 378.676 54.4288 374.788 55.0907C374.028 55.2245 374.049 55.2316 373.507 55.7668C373.183 57.0273 373.352 59.1188 373.309 60.4779C373.176 64.3229 373.577 69.2735 373.105 73.0058C372.155 73.2382 370.697 73.5551 369.803 73.8438C369.436 76.4564 370.098 90.611 369.021 91.3786C368.232 91.9349 367.148 92.125 366.232 92.3715C365.577 97.4136 366.521 104.315 365.873 109.625C364.782 109.97 363.148 110.315 362.479 111.118C361.549 113.223 362.345 118.779 362.253 121.307C362.127 124.878 362.176 124.54 358.93 125.73C358.704 128.913 359.176 141.251 358.43 142.912C357.634 143.567 356.127 143.729 355.049 143.955C354.901 146.293 354.556 155.856 355.359 157.602C356.521 158.63 369.584 158.321 371.683 158.187C372.063 158.159 372.45 158.123 372.831 158.081L373.605 155.053C374.626 154.835 375.88 154.68 376.669 154.046C377.563 152.567 376.971 140.046 377.239 136.849L380.535 135.821C381.063 130.568 380.436 123.8 380.795 118.272C382.021 117.913 383.253 117.568 384.485 117.244C384.584 114.223 384.387 105.927 384.788 103.568C385.689 103.23 387.232 102.688 388.063 102.301C388.351 97.808 387.774 88.5336 388.408 84.921C389.485 84.6252 390.584 84.3435 391.647 84.0126C391.999 80.5126 391.626 77.1184 392.027 73.7452L395.358 72.7875C395.471 70.7171 395.048 67.9848 396.069 66.5834C398.478 64.8581 399.21 67.6186 399.738 69.2946C400.837 69.6326 402.133 69.8721 402.696 70.9918C403.217 72.034 403.238 74.5621 402.858 75.6607C402.738 76.0057 402.471 76.3789 402.133 76.5268C401.182 76.9353 399.83 77.0761 399.379 78.1183C398.189 80.8929 400.386 94.2799 398.26 95.1954C397.492 95.5264 396.4 95.4559 395.851 96.146C395.006 98.6601 396.379 108.927 394.612 109.843C393.724 110.308 392.485 110.336 392.133 111.441C390.929 115.167 392.76 123.216 391.872 127.265C391.753 127.793 391.471 128.202 390.992 128.469C390.189 128.92 389.133 128.772 388.549 129.582C387.668 133.166 388.746 142.131 388.034 146.581C386.95 146.948 385.851 147.293 384.753 147.61C384.267 149.673 383.985 155.75 385.049 157.588C386.513 158.637 402.668 158.285 405.562 158.18C408.125 156.278 405.048 143.342 407.175 140.272C407.485 139.828 409.738 139.631 410.224 139.575C411.02 134.307 409.738 127.645 410.611 122.878C410.703 122.378 410.83 122.026 411.259 121.723C412.231 121.04 413.794 121.371 414.041 119.836C414.492 117.068 413.175 104.78 414.717 103.554C415.421 102.991 416.71 102.85 417.583 102.554C417.773 99.2798 417.428 90.9631 417.97 88.5124L421.217 87.435C421.301 84.2802 421.055 76.217 421.562 73.8227C422.576 73.5199 423.59 73.1959 424.611 72.9635C424.9 72.0974 425.273 70.865 425.597 70.0411L428.477 69.2312C428.717 68.2524 428.879 67.0552 429.583 66.3933C430.491 66.02 430.139 66.0412 431.111 66.1538C431.646 66.506 432.308 67.1749 432.385 68.2524C432.611 71.4424 432.738 76.9071 432.146 79.9774C432.026 80.5971 429.371 80.9281 429.188 81.6535C428.217 85.428 429.378 89.604 428.829 93.5827C428.393 96.7165 425.329 94.3081 425.09 97.0334C424.674 101.745 425.717 108.702 424.639 113.181C424.555 113.533 422.167 114.336 421.583 114.533C420.921 118.448 421.52 127.216 421.203 131.948L417.942 132.835C417.463 138.504 418.16 144.821 417.618 150.532C416.407 150.743 415.118 150.757 414.4 151.673C414.013 152.616 413.675 157.947 414.942 157.961C419.858 158.004 431.562 159.039 435.822 157.708C436.723 156.623 436.216 146.652 436.463 144.081C437.392 143.722 438.977 143.166 439.822 142.751C439.935 139.983 439.604 127.159 440.244 125.716C441.04 124.983 442.294 124.821 443.392 124.547C443.977 119.16 443.16 112.596 443.758 107.082C444.836 106.737 445.913 106.385 446.991 106.033L446.984 106.026Z" fill="#040000"/>
<path d="M511.907 106.075C512.083 103.463 511.696 93.9629 512.421 92.5615C513.266 91.8573 514.71 91.7235 515.83 91.5193C516.09 86.3504 515.534 78.3717 516.133 73.7521L519.139 72.7662C519.632 67.7945 519.492 60.3158 519.139 55.1821L516.175 54.2455C516.006 52.3794 516.189 49.1893 515.083 48.0344C513.365 47.0767 511.126 47.5133 509.09 47.3654C508.21 44.5345 507.069 42.8233 503.337 43.612C501.26 44.0486 500.95 45.5063 500.372 47.3795C498.295 47.4499 496.006 47.4711 493.971 47.8161C493.443 49.4147 493.323 50.2879 491.908 51.2175C490.218 51.3653 489.76 48.2457 489.837 47.119C489.992 44.8092 489.373 34.8094 490.288 33.3376C491.175 32.7672 492.246 32.5207 493.26 32.225C493.513 29.9645 492.88 19.5352 494.105 18.5633C494.894 17.9366 496.26 17.7042 497.225 17.3662C497.295 15.7254 497.626 12.4086 496.894 11.0565C495.626 10.1551 478.781 10.4368 476.007 10.5424C473.556 12.6903 476.556 22.1196 474.45 24.8871C474.169 25.2533 472.26 25.7744 471.718 25.9505C471.443 28.38 472.225 38.429 470.789 39.591C470.056 40.1825 468.69 40.429 467.789 40.7036C467.535 45.0909 468.063 54.5695 467.415 58.0835C466.648 58.3229 464.866 58.8299 464.204 59.1116C463.711 64.0974 464.521 72.0761 463.845 76.2732C463.127 76.5056 460.754 77.1605 460.606 77.752C459.648 81.5477 460.394 87.287 460.021 91.3714C459.106 91.6812 457.796 92.0756 456.937 92.4629C456.655 94.9628 457.458 108.632 455.993 109.688C454.937 110.448 453.338 110.089 453.021 111.723C452.416 114.843 454.127 126.92 452.014 128.42C451.395 128.863 450.191 129.046 449.458 129.258C449.205 132.025 449.958 145.581 448.522 146.638C447.444 147.426 446.113 147.109 445.782 148.736C445.465 150.292 445.571 155.954 445.958 157.447C447.169 158.687 457.775 158.285 459.923 158.06L460.725 155.046C461.669 154.785 463.007 154.461 463.894 154.13C464.07 150.807 463.986 147.504 463.986 144.18C463.986 142.462 463.739 140.201 465.993 139.926C470.014 141.546 465.676 151.905 468.69 154.405C468.753 154.461 470.556 155.053 470.908 155.194C471.282 156.074 471.641 156.912 471.936 157.82C472.718 158.102 473.972 158.518 474.69 158.842C474.95 159.884 475.225 160.933 475.5 161.975C478.486 162.13 482.302 162.194 485.281 161.975L485.401 161.82C486.485 160.384 486.507 158.13 488.64 158.032C491.943 157.877 493.387 159.651 493.865 155.032C494.774 154.828 496.422 154.511 497.246 154.236C497.302 152.328 497.295 149.609 497.626 147.8L500.865 146.391C500.908 144.567 500.908 141.997 501.196 140.25C502.26 139.99 503.323 139.708 504.4 139.504C504.76 136.582 504.168 127.025 505.126 125.645C506.203 124.983 507.21 124.99 508.372 124.652C508.633 121.519 508.147 108.885 508.893 107.209C509.668 106.575 510.943 106.336 511.943 106.068L511.907 106.075ZM486.901 51.478C491.063 51.1823 490.556 56.4356 488.866 58.33C484.859 58.9497 485.795 52.8653 486.901 51.478ZM497.161 79.6604C496.654 80.8364 495.358 80.4632 494.408 80.8928C492.253 81.8646 494.408 95.3502 493.161 98.2656C492.816 99.0684 491.042 99.5684 490.274 99.8782C489.866 103.892 490.373 109.026 490.021 113.378C488.816 113.709 487.605 113.955 486.394 114.223C486.183 117.159 486.647 130.265 485.901 131.779C485.14 132.399 484 132.553 483.021 132.779L482.267 135.56C481.373 135.927 480.162 136.321 479.225 136.659C478.831 137.934 478.655 138.687 477.943 139.821C475.239 139.877 475.352 139.096 474.76 136.722C473.803 136.504 472.605 136.342 471.894 135.715C471.127 134.11 471.465 123.997 471.648 121.8C472.451 121.533 474.634 121.202 474.873 120.3C475.936 116.35 474.098 107.279 475.394 103.822C475.866 103.202 477.725 102.773 478.633 102.47C478.802 98.7515 478.352 92.0122 478.986 88.6672C480.155 88.3715 481.281 88.0334 482.429 87.6884C482.788 84.5687 482.436 81.0054 482.767 77.583L485.767 76.6182C486.302 72.1113 484.309 70.4001 489.464 69.217C489.795 67.8931 489.901 66.9283 490.859 65.9917H490.866C493.429 66.1115 493.394 66.9776 494.077 69.1607C495.189 69.548 496.323 69.8367 497.02 70.7804C497.633 72.6606 497.943 77.8013 497.154 79.6393L497.161 79.6604Z" fill="#040000"/>
<path d="M294.763 46.9007C295.876 46.4641 296.989 46.0415 298.115 45.6331C298.27 43.6402 298.298 41.7952 298.334 39.8023C299.298 39.3938 300.552 38.9079 301.474 38.4713L302.334 35.7179C303.284 35.3869 304.481 35.0136 305.397 34.6545C305.488 30.1053 304.446 29.0561 308.974 27.4786C309.038 25.8026 309.08 22.8449 309.333 21.2886L312.566 20.2605C312.707 18.9295 313.185 16.0352 312.39 14.8874C311.89 14.1621 310.383 14.0283 309.559 13.9438C307.502 13.7325 292.454 13.5705 291.601 14.2606C291.151 14.6198 291.08 15.4015 291.059 15.9367C291.01 17.0564 291.285 19.4436 290.468 20.2464C289.848 20.8591 288.425 21.0422 287.587 21.2393C287.454 25.2956 288.376 27.1617 284.214 28.6335C283.933 29.4082 283.503 30.7391 283.179 31.4504C276.348 33.6686 284.179 36.9291 277.067 39.6121L276.665 39.76C276.531 43.7106 277.686 45.6401 273.433 46.8162L272.44 49.3302C271.546 49.633 270.356 49.9921 269.51 50.3231C269.384 52.2597 269.581 55.2737 268.461 56.661C267.623 57.0976 267.968 57.006 267.032 56.9286C265.313 55.9075 265.553 53.2104 265.581 51.4358C265.63 48.6119 265.525 45.6965 265.954 42.9008L267.947 42.9149C268.553 42.9149 269.046 42.443 269.067 41.8374C269.172 38.1544 269.081 31.1898 269.51 28.9856C270.186 28.6335 270.574 28.6054 271.025 28.542C271.679 28.4434 272.165 27.88 272.165 27.2181L272.109 14.3452C270.729 13.0705 258.236 13.5424 255.793 13.6269C254.94 14.2184 254.645 15.7677 254.285 16.8592L251.736 17.2113L250.666 31.2813C250.37 31.7039 249.046 32.0419 248.497 32.1898C248.265 32.2532 248.032 32.3165 247.8 32.3799C247.201 36.6685 247.8 44.3726 247.469 49.2739L244.194 50.1682C243.976 52.5343 244.687 62.6538 243.377 63.858C242.229 64.9002 240.652 64.034 240.42 66.1467C240.117 68.8649 241.208 80.5759 239.624 81.9702C238.617 82.8575 237.075 82.4913 236.856 84.1955C236.554 86.5546 237.525 98.9909 236.216 100.019C235.539 100.554 234.117 100.653 233.265 100.815C233.103 104.561 233.378 111.209 232.941 114.455C231.871 114.758 230.793 115.033 229.709 115.286C229.455 119.814 229.99 128.87 229.328 132.596C228.244 133.018 227.145 133.406 226.04 133.758C225.519 138.736 226.117 145.286 225.779 150.532C224.793 150.757 223.427 150.947 222.758 151.623C222.138 152.736 222.005 157.018 222.955 157.912C225.223 158.447 241.11 158.391 243.448 157.757C244.405 156.68 243.821 150.307 244.145 148.032C245.208 147.659 246.469 147.257 247.497 146.849C247.581 144.377 247.053 131.039 248.088 130.032C248.849 129.3 250.117 129.075 251.102 128.751C251.173 126.025 251.06 121.519 251.419 119.068L254.652 118.012C254.835 115.962 254.518 113.23 255.581 111.871C256.469 111.462 256.109 111.54 257.081 111.631C259.461 113.012 258.342 119.033 258.673 121.751C259.363 122.018 261.652 122.828 261.757 123.427C262.666 129.011 261.729 137.708 262.187 143.187C263.377 143.736 265.243 144.363 265.609 145.581C266.496 148.518 264.961 155.053 266.144 157.651C269.06 158.877 282.841 158.158 286.587 157.856C287.418 157.792 287.2 153.159 287.193 152.299C287.376 149.236 287.573 143.962 287.292 140.905C286.792 140.772 284.292 140.201 284.2 139.687C283.01 133.307 284.369 126.194 283.623 119.688C283.51 118.723 280.672 118.864 280.503 118.033C279.419 112.645 281.031 106.371 279.806 101.005C279.757 100.808 278.799 100.47 278.482 100.378C277.891 100.209 277.292 100.047 276.693 99.8923C276.574 97.505 276.306 80.6956 276.905 79.4421C277.644 78.7309 278.989 78.4914 280.045 78.1675C280.433 73.5901 278.855 72.4352 283.714 70.8367C283.848 66.4143 282.771 65.0904 287.334 63.6326C287.376 61.8087 287.355 59.175 287.672 57.4427L290.658 56.5554L291.601 53.985L294.531 53.2315C294.658 51.3513 294.615 48.5908 294.792 46.9007H294.763ZM264.567 63.9918C263.778 64.4214 262.785 64.1256 262.363 63.3298C261.94 62.5341 262.236 61.5482 263.025 61.1257C263.813 60.6961 264.799 60.9989 265.222 61.7876C265.651 62.5763 265.349 63.5622 264.56 63.9918H264.567Z" fill="#040000"/>
<path d="M563.376 156.497C564.165 151.877 560.51 148.539 566.672 146.581C567.045 143.758 566.334 134.272 567.376 133.004C568.277 132.42 569.566 132.188 570.629 131.92C570.826 127.188 570.347 118.357 570.967 114.287L574.214 113.301C574.629 107.963 574.038 102.512 574.467 97.1813C574.587 95.6955 576.594 95.3856 577.784 94.9842C578.164 92.111 577.523 82.6394 578.509 81.2592C579.333 80.6747 580.467 80.5057 581.467 80.2733C581.763 76.9847 582.002 58.4077 581.389 55.7528C580.713 54.943 579.439 54.8232 578.383 54.619C578.157 53.7247 577.883 52.4853 577.601 51.6402L574.925 50.774C574.545 49.8304 574.087 48.6192 573.671 47.7178C571.411 47.4572 569.679 47.5206 567.573 47.3516C567.376 46.6403 566.826 44.3305 566.249 44.1827C563.552 43.4785 556.186 43.7672 553.51 43.9291V43.9503C552.341 44.5911 551.982 46.1051 551.503 47.3938C547.172 47.5206 545.693 46.3235 544.475 50.8093C543.482 51.105 542.496 51.4149 541.489 51.6543L540.665 54.6754C539.834 54.8444 538.602 55.0627 537.813 55.288L537.06 58.1823C536.116 58.4288 534.651 58.7668 533.778 59.0978C533.679 60.802 533.644 63.478 533.447 65.0695C532.32 65.6117 530.426 66.3229 530.158 67.5483C529.715 69.5764 529.757 74.3861 530.651 76.1819C531.644 77.3579 545.778 76.9002 548.003 76.71C548.292 75.7593 548.686 74.5692 548.897 73.6185C549.869 73.3932 551.116 73.1397 552.038 72.858C552.116 69.6398 551.2 63.2174 559.017 66.8652C559.911 67.2807 559.404 81.2944 559.306 82.9634C559.277 84.1676 556.883 84.6816 555.932 85.0056C555.693 87.8647 556.904 95.3645 553.644 95.7588C550.869 94.6321 553.285 89.3012 551.066 88.2449C550.566 88.0055 549.531 87.759 548.954 87.6182L548.052 84.8929C544.94 84.6253 537.531 84.576 534.306 84.8507L533.292 87.7731L530.37 88.6252C530.081 89.5759 529.75 90.597 529.51 91.5618L526.757 92.2589C526.496 93.1321 526.187 94.2589 525.891 95.0969C524.982 95.3504 523.729 95.6462 522.863 95.9419C522.518 100.519 523.997 101.9 519.264 103.681C519.011 109.125 521.257 112.984 515.469 114.498C514.793 118.723 515.891 123.512 515.088 127.497C514.99 127.983 514.821 128.258 514.412 128.526C513.574 129.089 512.145 128.645 511.821 129.864C511.384 131.511 511.328 149.265 511.919 150.236C511.997 150.37 511.983 150.335 512.138 150.448C516.687 151.701 514.849 153.807 515.342 157.736C516.3 158.123 518.307 158.94 519.314 159.18C521.13 159.609 528.433 159.933 529.863 159.102C534.37 156.49 536.426 160.926 537.799 155.138L540.686 154.271L541.32 151.215C542.221 151.06 543.919 150.814 544.743 150.595C544.912 148.553 544.588 145.236 545.609 143.884C550.292 141.187 547.933 155.539 548.63 157.138C549.2 158.447 552.834 158.412 554.411 158.356C556.799 158.271 562.32 159.314 563.369 156.497H563.376ZM552.031 120.103C551.433 121.089 549.778 121.617 548.672 122.089C548.411 124.427 548.651 126.448 548.686 128.765C548.728 131.765 547.862 132.195 545.334 132.744L544.524 135.673C543.243 136.025 541.883 136.117 541.278 137.335C540.44 140.399 539.56 139.807 536.658 139.913C535.722 139.948 535.06 139.835 534.327 139.237C533.278 137.173 533.327 125.251 533.982 122.554C534.426 121.751 536.355 121.026 537.285 120.603C537.574 118.455 537.44 113.603 537.546 111.04C538.412 110.716 539.658 110.371 540.574 110.089C540.651 109.773 540.729 109.456 540.813 109.139C541.137 107.878 541.172 107.266 542.292 106.597C546.235 106.399 547.623 105.625 548.918 109.808C549.707 110.082 551.573 110.716 551.834 111.413C552.51 113.237 552.418 118.385 552.038 120.103H552.031Z" fill="#040000"/>
<path d="M698.821 55.2948L695.526 54.5273L694.688 51.7386L692.209 50.6612C691.85 49.795 691.371 48.5556 690.969 47.7387C688.66 47.457 687.012 47.5204 684.829 47.3655C684.533 46.3162 684.237 44.6402 683.35 44.105C681.547 43.612 672.984 43.767 670.78 43.936C669.463 44.6472 669.23 45.9571 668.73 47.4007C664.35 47.5204 662.808 46.2669 661.519 50.8161L658.829 51.7104L657.977 54.6188L654.991 55.2103L654.203 58.1046C653.308 58.3934 651.858 58.8018 651.034 59.1539C650.801 63.7946 652.041 64.696 647.456 66.6255C647.358 68.9987 646.978 74.1324 647.851 76.1464C649.259 77.3365 662.541 76.8999 664.914 76.7028C665.033 76.6957 665.153 76.6816 665.266 76.6746L666.083 73.5972C667.04 73.3859 668.47 73.1113 669.371 72.8014C669.449 71.4282 669.111 67.1537 670.378 66.4354C671.597 65.7382 675.195 65.7523 676.301 66.8298C676.942 68.7311 677.019 82.2378 676.35 83.7237C674.653 85.4068 673.223 83.1533 673.195 87.625C673.181 89.6813 674.082 95.7305 671.097 95.3713C670.343 95.2798 670.287 95.1812 669.78 94.7023C668.519 91.47 671.575 89.0194 666.209 87.6814L665.195 84.8857C662.195 84.6251 654.407 84.604 651.393 84.8716L650.449 87.6884L647.724 88.6672C647.456 89.6391 647.168 90.6249 646.928 91.6038L644.041 92.2235L643.175 95.0403C642.33 95.2938 641.083 95.6248 640.281 95.9276C640.161 97.2515 640.259 101.674 639.527 102.357C638.555 103.251 636.626 102.625 636.217 104.632C635.767 106.857 637.027 112.244 635.457 113.702C634.696 114.406 633.119 113.476 632.619 115.864C632.091 118.413 633.379 126.575 632.027 128.194C631.048 128.892 628.767 128.92 628.837 130.385C628.985 133.321 628.133 148.433 629.077 150.257L629.358 150.476C633.738 151.609 632.513 153.736 632.626 157.553C640.893 161.651 645.689 158.574 654.055 158.102L654.984 155.102C655.935 154.842 657.062 154.56 657.984 154.264L658.66 151.25L661.829 150.574C661.914 148.342 661.379 144.208 663.991 143.666C668.47 144.694 663.724 157.482 667.322 158.074C670.181 158.539 677.378 158.581 680.202 157.933C680.371 154.729 680.181 150.645 680.554 147.687C681.441 147.433 683.35 147.032 683.864 146.321C685.596 143.898 682.301 132.934 685.85 132.476C685.969 132.462 687.343 132.039 687.631 131.941C688.216 126.476 687.35 119.659 687.991 114.322C689.188 113.984 690.392 113.681 691.603 113.406C691.927 108.279 691.3 100.674 691.892 96.0544C692.99 95.6671 694.089 95.3009 695.202 94.9488C695.413 91.4982 695.033 83.9772 695.582 81.2449C696.652 80.921 697.73 80.6111 698.814 80.3153C699.11 76.2521 698.948 70.8719 698.962 66.7241C698.969 63.6397 699.103 58.2455 698.814 55.3089L698.821 55.2948ZM668.942 120.434C668.773 121.04 666.026 121.526 666.047 122.68C665.829 124.568 666.012 126.631 666.026 128.539C666.047 132.18 665.808 132.18 662.379 132.645L661.625 135.645C660.273 136.067 659.273 136.18 658.562 137.356C657.512 140.638 656.393 139.736 653.308 139.884C652.717 139.912 652.013 139.729 651.618 139.286C650.632 136.955 650.618 125.772 651.217 122.73C651.372 121.948 653.555 121.047 654.379 120.645C654.653 118.23 654.505 113.751 654.611 110.991C655.456 110.681 656.935 110.286 657.843 110.019C658.203 108.857 658.548 107.223 659.477 106.575C663.456 106.385 665.033 105.596 666.322 109.843C667.343 110.223 669.04 110.617 669.139 111.92C669.336 114.427 669.618 118.005 668.935 120.434H668.942Z" fill="#040000"/>
<path d="M631.635 98.7024C631.747 95.6532 631.6 91.6533 631.966 88.8154L635.205 87.6253C635.409 85.2309 635.247 83.2451 635.226 80.8719C635.198 77.7311 636.121 77.21 638.79 76.4424C639.311 70.851 637.712 71.3088 642.811 68.9426C642.909 66.1187 642.74 61.9569 642.973 59.4076C644.092 58.9006 645.219 58.4218 646.36 57.9781C646.388 56.8795 646.233 52.4853 647.085 51.8374C648.31 50.9079 651.451 51.1614 650.057 48.1685C649.86 47.753 649.191 47.6403 648.782 47.591C645.409 47.5699 631.135 47.0347 628.733 47.9079C627.593 48.9642 627.931 52.8585 627.776 54.4218L624.825 55.3232C624.635 56.6401 624.466 60.8301 623.543 61.7879C622.91 62.4428 620.72 62.3724 620.741 64.154C620.41 67.0694 620.966 69.8581 620.206 72.7313L617.177 73.9566C616.91 79.4353 619.086 83.0549 613.332 85.2098C613.262 87.3436 613.523 93.1181 612.847 94.6039C610.917 96.3715 609.424 94.7166 609.445 92.6322C609.48 89.4632 609.53 86.2943 609.53 83.1183V59.4429C609.53 56.4148 609.776 50.9712 609.044 48.2107C608.72 46.9784 594.396 47.4572 592.601 47.5136C591.601 47.8938 591.277 48.2037 591.234 49.4149C590.932 57.9992 591.594 66.7314 591.115 75.2946C591.016 76.9635 589.037 77.1255 587.544 77.6325C587.108 81.8789 587.368 90.6393 587.375 95.2729V136.723C587.361 140.546 587.361 144.37 587.389 148.194C587.418 150.687 587.474 153.159 587.389 155.652C587.305 158.307 586.023 158.074 583.819 158.764C583.749 160.405 583.713 163.63 583.439 165.13C582.474 165.447 581.516 165.778 580.538 166.039C580.242 167.032 579.995 168.271 579.312 169.003C578.474 169.384 578.326 169.475 577.418 169.433C574.925 167.954 577.221 164.236 575.333 162.447C573.862 162.032 559.876 162.025 558.777 162.588C557.376 164.433 557.658 180.679 557.939 183.51C561.101 184.552 561.172 184.489 561.827 187.721C566.474 188.278 567.798 186.538 569.481 191.482C572.312 191.566 576.854 191.7 579.594 191.383C579.89 190.292 580.192 189.193 580.502 188.102C582.249 188.003 585.361 187.982 586.911 187.771C587.389 185.855 587.284 185.292 588.713 184.285C590.861 182.764 594.101 185.426 594.594 182.933C594.91 181.341 594.671 179.151 594.939 177.292C596.037 176.884 597.037 176.517 598.157 176.158L599.037 173.405L601.875 172.433C601.938 170.609 601.96 168.039 602.206 166.292L605.516 165.236C605.938 163.229 605.445 155.926 606.727 155.053C607.98 154.201 609.086 154.462 609.438 152.722C609.959 150.159 609.445 147.173 609.565 144.539C610.086 143.68 612.009 143.335 613.065 143.046C613.1 141.356 613.079 138.363 613.297 136.786C614.22 136.469 615.987 135.906 616.818 135.533C617.121 133.483 617.072 131.673 616.966 129.61C616.769 125.955 617.269 125.406 620.48 124.434C620.593 122.575 620.579 119.92 620.741 118.209C621.839 117.815 623.1 117.399 624.17 116.984C624.311 114.843 624.269 112.963 624.142 110.822C623.945 107.315 624.945 106.956 627.755 105.857C627.945 101.195 626.579 99.7447 631.635 98.6813V98.7024ZM608.199 106.533C607.572 106.709 606.896 106.54 606.431 106.083C605.966 105.625 605.783 104.956 605.952 104.322C606.121 103.695 606.621 103.202 607.248 103.04C608.206 102.794 609.185 103.364 609.445 104.315C609.706 105.266 609.149 106.252 608.199 106.526V106.533Z" fill="#040000"/>
<path d="M355.479 106.132C356.12 100.928 355.282 93.8996 355.824 88.4349C356.923 88.0828 358.036 87.7589 359.148 87.4631C359.381 84.8716 359.289 81.8646 359.275 79.2309C359.275 77.7028 359.296 75.8648 359.176 74.3719C358.874 70.6255 359.486 70.1114 362.768 69.1537C363.141 63.682 362.571 58.0765 362.944 52.6119C362.993 51.8936 366.409 50.5556 366.69 48.7035C365.409 46.4078 354.761 47.9077 351.888 47.4782C350.606 47.288 346.212 47.3514 345.022 47.9148C343.62 49.464 344.726 54.9639 344.233 57.1258C343.902 58.5624 341.113 58.4709 340.902 59.8159C340.135 64.7313 341.113 70.1466 340.642 75.1676C340.388 77.8647 337.409 75.907 337.17 78.7239C336.733 83.7097 337.846 89.8715 336.783 94.6812C336.67 95.2023 334.283 95.6812 333.635 95.8432L333.649 95.8572C333.064 101.385 333.923 108.167 333.276 113.54L330.057 114.491C329.945 116.124 330.297 127.849 329.107 128.152C321.896 129.969 329.966 135.145 322.867 136.363C322.353 137.856 322.058 139.807 320.156 139.87C319.375 139.898 315.53 140.229 315.452 139.067C315.001 132.49 314.846 124.857 315.255 118.258L318.311 117.272C318.529 114.371 317.691 101.111 319.22 99.7586C319.924 99.1318 321.374 98.9065 322.297 98.66C322.452 94.3995 322.149 89.1391 322.487 85.097C323.332 84.7519 325.276 84.2026 325.635 83.3153C326.931 80.1464 324.41 67.4988 327.043 66.2946C327.839 65.9284 328.846 65.7594 329.698 65.5482C329.839 62.837 330.184 49.964 329.339 48.1542C327.832 47.0275 315.079 47.45 312.572 47.5204C309.699 48.8303 312.748 52.9851 310.121 54.5343C309.361 54.985 308.241 54.8794 307.741 55.5977C306.889 58.5765 307.635 63.6468 307.579 66.9214C307.537 69.1819 307.466 70.4917 307.185 72.7804L304.199 74.0057C303.945 76.6465 304.558 90.4137 303.445 91.4207C302.502 91.9348 301.361 92.0686 300.298 92.2658C299.967 96.1248 300.523 102.977 299.889 106.167L296.685 107.026C296.312 111.808 297.009 120.406 296.298 124.434C295.136 124.772 294.037 125.089 292.861 125.371C292.403 129.751 292.755 136.751 292.657 141.356C292.601 143.962 292.551 152.201 292.903 154.201C295.727 155.032 296.016 154.891 296.861 157.771C299.72 158.743 299.776 158.785 300.565 161.708C303.833 162.264 307.586 162.201 310.854 161.708C311.952 156.398 313.579 158.708 318.058 158.046L319.086 155.039C319.98 154.799 321.382 154.468 322.212 154.166C322.353 152.349 322.128 148.835 322.959 147.602C323.572 147.25 323.734 147.109 324.466 147.117C327.487 148.687 325.001 156.271 326.515 157.792C327.832 158.468 341.55 158.489 343.268 157.919C343.698 157.778 343.846 157.673 344.057 157.243C345.444 154.356 342.74 141.018 345.367 139.976C346.156 139.666 347.226 139.603 348.064 139.483C348.479 134.42 347.733 126.342 348.451 121.892C349.543 121.497 350.536 121.145 351.648 120.814C351.81 117.23 351.515 110.019 352.022 107.026L355.507 106.125L355.479 106.132Z" fill="#040000"/>
</svg>
