<svg width="700" height="267" viewBox="0 0 700 267" fill="none" xmlns="http://www.w3.org/2000/svg">
<path d="M248.83 69.5798C249.444 71.7647 253.603 71.5743 254.314 68.3398C255.363 63.5642 252.179 60.8677 259.194 59.2207C260.334 52.1162 265.245 56.1203 268.994 54.4542C271.053 53.5406 270.712 49.8961 271.615 49.6826L279.844 49.7984L282.264 54.2346L291.283 55.4403C293.642 57.4751 289.047 72.9533 296.069 70.8823C299.239 69.9475 296.108 63.1139 298.733 61.2071C299.754 60.4658 301.8 60.6501 302.673 59.5451C303.492 58.5086 303.078 56.7015 304.327 55.5995C306.488 53.6927 311.273 55.6609 313.47 54.2326C314.761 53.3935 313.642 50.2497 316.376 49.7219C317.668 49.4721 328.302 49.5678 328.981 49.9767C330.022 50.6033 330.06 53.3683 330.924 54.1943C331.868 55.0968 333.925 54.6597 334.865 55.8553C335.672 58.5791 334.111 64.5242 337.358 65.6806C338.761 66.1802 340.065 65.466 340.891 67.1895C342.718 71.0011 340.452 85.744 341.193 90.7422C340.475 93.1305 336.355 91.4957 335.38 95.5712C333.852 101.964 336.077 111.963 335.06 118.76L330.73 121.153C330.485 124.103 331.102 139.823 329.162 140.994C328.199 141.575 326.459 141.238 325.563 142.301C323.051 145.279 325.414 161.576 324.473 166.401C323.938 169.152 320.049 167.726 319.46 170.909C318.268 177.348 320.407 186.937 319.335 193.735C318.737 195.738 313.841 195.663 313.841 198.882V216.235L312.999 217.075H282.736L281.895 216.235V207.839L286.244 206.308C287.909 204.912 286.308 185.61 287.077 181.64C287.674 178.551 291.017 180.941 292.169 177.238C293.604 172.625 291.352 155.675 293.051 153.49C293.972 152.306 297.394 152.519 297.575 150.172C298.557 143.72 296.199 132.795 297.835 126.905C298.471 124.617 302.428 125.772 303.101 123.785C304.191 120.562 301.879 106.161 304.118 104.517C305.509 103.496 307.996 104.306 308.676 101.365C309.212 99.0505 309.117 88.4577 308.809 85.7994C308.635 84.2905 307.961 82.4018 306.243 82.155C302.5 81.6181 303.607 85.4368 302.51 86.5307C301.872 87.1673 299.97 86.986 298.954 87.7395C297.734 88.645 297.861 90.6586 296.777 91.7203C295.569 92.9009 292.898 92.7347 292.354 94.0553C290.807 99.0676 293.224 108.071 291.873 112.572C291.283 114.541 288.56 113.874 287.626 114.767C285.959 116.361 287.594 130.32 286.817 133.83C286.056 137.263 282.003 135.003 281.373 139.027C280.334 145.657 282.159 154.401 281.225 161.271C280.256 163.595 276.811 162.709 276.304 165.312C275.108 171.455 277.174 180.872 276.133 187.555C275.489 191.694 270.126 189.33 270.126 193.286V216.516C269.575 216.335 268.909 217.076 268.725 217.076H239.583C237.691 214.589 237.617 206.37 238.197 203.377C238.775 200.395 242.855 202.289 243.666 198.763C245.164 192.256 242.388 182.031 244.295 175.321C245.276 174.059 248.331 174.567 248.819 172.003C249.995 165.832 247.597 155.865 248.952 149.746C249.603 146.809 251.872 147.477 253.301 146.253C255.776 144.131 253.71 130.532 254.527 126.767L259.37 123.768C259.99 116.863 258.926 109.427 259.458 102.587C259.9 96.8999 261.538 99.7495 264.259 97.3048C266.198 95.5622 265.986 90.982 264.774 88.921C263.84 87.3325 261.883 87.5803 260.845 86.6868C259.608 85.6211 259.841 82.8017 257.96 82.2618C251.615 80.4426 254.936 89.738 253.617 91.7143C252.949 92.7165 249.54 92.3156 248.938 94.3171C247.995 97.4529 249.873 105.722 248.318 108.115C247.495 109.381 244.105 108.25 243.347 111.683C241.994 117.808 244.408 127.801 243.213 133.939C242.706 136.542 239.26 135.656 238.291 137.981L237.809 156.497L232.669 159.234C231.748 163.841 234.027 181.592 231.493 184.368C230.085 185.911 227.642 184.488 227.11 187.241C226.15 192.203 228.168 207.998 226.697 210.925L225.843 211.751C221.085 211.129 222.065 216.544 219.392 217.063L195.961 216.986C195.385 216.797 195.118 216.337 194.88 215.827C194.188 214.344 194.19 201.739 194.457 199.436C195.049 194.334 199.325 197.486 200.388 193.046C201.886 186.786 199.703 177.077 200.722 170.429C201.219 168.893 204.435 169.326 205.008 167.433C206.317 163.111 203.943 153.94 205.369 149.322C206.255 146.452 208.972 147.479 210.169 146.28C212.666 143.78 210.415 126.729 211.293 122.214C211.842 119.398 215.689 120.947 216.288 117.128C216.877 113.371 215.384 94.8782 217.02 93.5043L221.093 92.2582C222.929 83.9903 221.4 75.0485 222.001 66.5781C230.073 65.7148 226.304 61.2172 227.64 56.8163C228.515 53.9364 241.208 54.4703 244.058 54.7584C245.765 54.9306 247.772 55.2661 248.829 56.7095V69.5839L248.83 69.5798Z" fill="#880000"/>
<path d="M0 207.559C1.98071 206.885 4.44148 207.337 4.9064 204.93C6.15594 198.471 3.93117 189.22 5.18072 182.76C5.71926 179.972 8.27987 181.43 9.57278 179.897C12.0537 176.957 9.77246 160.594 10.6478 155.782C11.0623 153.504 13.6905 154.366 14.8574 153.269C17.0832 151.176 14.6012 137.504 15.7691 134.028C16.4458 132.016 20.383 134.199 21.1636 129.903C22.3506 123.379 20.4909 114.507 21.3703 107.718C21.7999 106.469 24.9041 106.428 25.6303 105.536C27.5263 103.208 25.5133 86.2551 26.3534 81.9086C26.8395 79.3954 29.1177 80.2879 30.5054 79.339C33.2354 77.4725 31.3132 63.2131 32.0343 59.5949C32.6969 57.6457 36.1783 59.1295 36.862 56.02C38.1822 50.0205 35.8334 40.3212 37.0002 34.3267C37.5105 31.7057 41.2632 32.4914 41.9217 30.2854C43.0129 26.6289 40.4261 12.6616 43.7361 10.8253C44.5771 10.359 45.6421 10.6309 46.5558 9.72436C48.1785 8.11368 46.8019 5.84926 50.5243 5.29223C53.5115 4.84599 67.7164 5.04644 70.9194 5.46045C71.8735 5.58334 72.6198 5.66996 73.1382 6.60273L73.8865 24.708C73.3187 26.3569 69.4964 25.8432 68.615 29.5188C67.6589 33.5068 69.3603 43.8507 68.0996 46.3569C67.318 47.9102 63.3284 47.2947 63.3284 49.4272V67.339C63.3284 67.7218 64.7161 68.6646 65.3232 68.7553C70.6895 69.5551 67.9726 61.0383 69.4409 59.0187C69.9593 58.3065 72.1417 58.4647 73.1694 57.5752C74.182 56.6989 74.0458 54.9996 74.8183 54.1857C76.2333 52.6949 78.9845 54.1121 79.5432 50.509C80.3238 45.4685 77.8307 43.7571 84.3538 41.3204L85.4389 32.8883C89.6696 32.299 89.1704 29.4111 90.7558 27.5637C91.7089 26.4536 93.7178 26.7538 94.6577 25.3033C95.9819 23.2585 94.6708 18.6621 96.1211 16.6888C96.8603 15.6825 99.8788 15.7933 100.507 14.3156C102.023 10.7508 98.5445 6.10008 103.95 5.47656C109.304 4.85909 122.047 4.95478 127.49 5.49469C133.807 6.12124 132.242 8.73216 132.171 14.0729L127.73 16.4904L126.846 24.9527L122.28 27.7027L121.345 35.7258C120.295 36.7251 118.733 36.6516 117.646 37.6286C116.381 38.7649 116.458 40.6717 115.49 41.6327C114.328 42.786 112.668 42.0517 111.589 43.8941C110.179 46.3035 111.678 50.5171 110.708 51.9706C110.203 52.7271 107.988 52.7422 107.066 53.3707C104.559 55.0791 106.864 60.1781 105.649 62.5906C104.972 63.9363 102.836 63.5838 101.76 64.303C100.561 65.1038 100.833 66.9159 99.7467 67.888C98.7392 68.7895 96.3611 68.7804 95.7863 69.6679L94.7616 78.4465C93.7713 79.9675 90.4059 78.0275 89.7211 83.064C89.0555 87.9575 91.3589 89.0313 85.1384 90.9381L84.1138 99.7167C83.1688 101.17 79.9416 99.4286 79.1559 103.857C78.4691 107.73 78.4691 125.464 79.1559 129.338C80.0081 134.147 83.8727 131.429 84.4889 134.62C85.7556 141.171 83.8183 150.573 84.6392 157.447C85.208 160.389 89.2158 158.981 89.6767 161.373C90.5501 169.512 88.4251 180.308 89.8038 188.113C90.5702 192.449 93.2004 190.684 94.5871 192.013C96.7322 194.068 93.9397 212.189 94.7334 216.131C94.6204 216.5 93.4677 217.074 93.3124 217.074H64.7302C61.7591 212.755 66.3347 200.216 61.9457 196.907C61.0451 196.228 59.494 196.179 58.9736 195.676C57.2571 194.018 58.8647 171.565 58.2707 167.55C57.7876 164.974 54.2185 164.785 53.5176 163.342C52.3517 160.94 54.3748 150.859 51.7043 149.344C46.4953 146.391 46.935 155.395 47.0006 158.223C38.3193 158.99 43.8782 168.974 41.7543 173.415C41.0887 174.806 38.7137 174.803 37.7909 175.614C34.9096 178.146 37.3088 194.837 36.4153 199.429C35.9746 201.691 33.8728 201.197 32.5113 202.246C29.0763 204.894 34.366 216.38 28.8888 217.1C23.703 217.781 7.20984 217.721 1.93432 217.103C1.11844 217.007 0.493161 217.033 0.00100851 216.234V207.558L0 207.559ZM62.6305 78.6742C65.0116 76.3765 60.088 72.8923 58.5561 75.4458C56.9364 78.1463 60.4511 80.7764 62.6305 78.6742Z" fill="#880000"/>
<path d="M329.251 217.076C327.295 216.44 327.384 204.1 328.93 202.201C329.727 201.223 331.495 201.34 332.33 200.559C334.835 198.219 332.675 180.315 333.562 176.04C334.178 174.015 337.964 174.734 338.487 172.002C339.667 165.84 337.263 155.858 338.62 149.745C339.31 146.636 342.169 147.405 343.564 145.726C346.183 142.574 343.716 127.158 344.677 122.209C345.179 119.623 348.525 120.395 349.057 118.747C350.422 114.53 347.173 101.433 350.83 98.6877C352.41 97.5021 354.558 98.0621 355.191 95.2064C356.567 89.0065 354.352 79.0765 355.389 72.4535C355.936 70.8247 359.547 71.9962 360.233 68.8957C361.102 64.9713 359.298 46.2777 361.051 44.8C361.632 44.3115 364.057 44.2239 365.017 43.5862C367.605 41.8658 364.188 25.4669 367.115 23.1521C369.554 21.2221 370.968 23.5883 371.493 18.5709C371.914 14.5377 370.694 4.72955 371.642 1.92321C371.994 0.882664 374.167 0.555291 375.21 0.448517C381.227 -0.165937 393.825 -0.12363 399.893 0.420313C405.906 0.959219 402.794 5.63512 403.53 10.1448C403.361 10.8449 400.112 11.5228 399.288 12.1846C395.93 14.8771 399.597 30.2193 397.101 32.3901C396.055 33.2997 393.511 33.1707 392.971 34.9819L393.139 58.6655C398.855 62.8156 396.752 55.5328 402.159 54.7955C407.592 54.0551 408.187 56.2974 410.613 49.6865L418.844 49.7832L421.435 54.4721C424.493 55.279 427.938 53.9131 430.71 55.8431C431.519 58.2062 430.009 63.8995 432.46 65.2916C434.208 66.2838 435.568 64.9209 435.957 67.9357C436.481 71.9922 436.779 81.0841 436.568 85.2452C436.516 86.2576 435.821 91.4502 435.504 91.8914C434.57 93.1888 431.633 91.3082 431.024 95.9408C430.097 102.995 431.661 111.539 430.895 118.762L430.435 119.423C428.839 119.753 426.038 119.855 425.473 121.744C424.193 126.023 426.279 135.171 425.272 140.015C424.631 141.898 420.512 140.863 420.335 143.48L420.212 166.868C419.564 169.014 415.462 168.299 414.822 170.441C415.15 173.001 414.131 175.857 414.106 178.173C414.082 180.355 414.805 182.418 414.737 184.909C414.579 190.752 414.041 188.782 410.834 190.53C407.44 192.382 410.243 197.323 408.594 199.907C408.008 200.825 405.175 201.024 404.364 202.531C403.073 204.931 404.675 208.406 403.203 210.895C402.261 212.487 400.021 211.835 399.012 212.863C398.118 213.774 398.547 215.88 397.352 216.803L389.639 217.496C386.926 218.656 388.463 222.308 384.038 223.098C381.971 223.466 373.541 223.576 372.136 222.378C371.118 221.51 371.432 219.346 370.192 218.163C369.24 217.256 367.674 217.339 366.811 216.502C365.994 215.709 365.858 213.788 364.819 212.895C363.77 211.992 361.428 211.976 360.866 211.108C359.326 208.726 361.041 197.061 360.339 193.299C359.959 191.263 357.145 189.759 355.575 191.314C353.431 193.438 355.746 206.846 354.64 210.527C354.063 212.448 351.411 211.799 350.266 212.875C349.228 213.854 349.6 216.101 348.305 217.074H329.25L329.251 217.076ZM392.159 61.0428C387.296 56.8252 385.601 69.3188 388.5 70.6121C394.477 73.2795 393.316 62.046 392.159 61.0428ZM399.149 86.5255C398.033 85.209 399.297 81.4437 394.85 82.173C392.219 82.6041 393.171 85.5263 392.177 86.5315C391.425 87.2921 388.755 87.1168 387.944 87.9005C386.273 89.5162 388.493 95.837 385.804 97.7972C385.104 98.3079 383.748 98.2938 383.017 98.9314C381.066 100.63 382.99 109.597 382.103 112.572C381.399 114.936 377.345 114.059 376.718 116.149C375.6 119.874 378.119 133.674 375.462 135.606C373.756 136.847 371.577 135.606 371.041 139.027C370.487 142.563 371.884 161.596 370.325 162.667C369.044 163.549 366.399 162.275 365.932 165.83C365.654 167.941 365.614 182.173 366.067 183.663C366.581 185.356 369.052 185.158 370.195 186.257C371.275 187.297 371.177 189.683 372.496 190.121C376.775 191.542 376.192 187.452 377.688 185.968C378.594 185.07 379.861 185.28 380.839 184.639C382.376 183.63 382.244 181.436 383.294 180.374C384.633 179.019 387.115 179.943 387.569 177.941L387.893 153.62C388.459 151.937 392.647 152.849 393.311 150.635C394.345 147.186 392.244 133.364 394.108 131.56C395.292 130.415 397.869 131.393 398.431 127.761C399.483 120.962 397.652 111.972 398.541 104.922C399.196 102.971 403.413 104.855 404.03 100.889C404.287 99.2356 404.351 91.2165 403.952 89.8476C403.256 87.4522 399.7 87.1752 399.149 86.5255Z" fill="#880000"/>
<path d="M580.732 93.4965C581.555 92.7018 584.344 92.8881 584.969 90.7325C585.896 87.5403 583.78 79.5182 586.222 77.4301C587.44 76.3875 589.39 76.8539 590.27 74.7567C591.127 72.7149 590.474 68.3915 591.762 66.7305C592.532 65.7363 594.889 65.7836 595.466 64.8327C596.489 63.1495 594.823 57.3888 597.225 55.2573C598.072 54.8222 598.986 54.802 599.915 54.7224C605.951 54.2067 619.294 54.0516 625.171 54.7325C631.557 55.4729 628.297 60.4127 623.708 61.2709L622.503 70.2833C613.744 70.9662 619.573 82.3689 617.321 86.1019C616.671 87.1797 613.821 87.0981 612.854 88.3563C611.144 90.5784 612.714 94.7778 611.716 96.736C611.117 97.9105 609.331 97.7091 608.318 98.3799C605.318 100.366 606.823 109.876 606.293 113.15C605.766 114.69 602.868 114.503 602.031 115.329C599.931 117.4 602.986 128.105 600.195 130.008C593.055 130.892 597.1 135.878 595.322 139.694C594.475 141.513 592.557 141.095 591.493 142.028C589.105 144.126 590.612 153.074 590.041 156.25L585.358 158.849L584.816 167.264C584.007 168.871 581.06 168.046 580.417 169.621C578.917 173.296 581.751 182.111 578.012 184.536C577.026 185.175 574.907 185.302 574.392 186.096L573.377 195.02L568.927 197.294C568.26 200.547 569.929 208.895 567.753 211.235C566.88 212.176 565.546 211.887 564.6 212.564C561.79 214.575 564.16 223.734 562.859 227.023L557.905 229.946C557.005 232.211 558.511 236.59 556.781 238.339C555.969 239.158 554.264 239.098 553.383 239.982C552.403 240.966 552.768 242.419 551.781 243.42C550.721 244.496 548.07 244.535 547.491 245.429C546.348 247.197 547.359 251.038 546.963 253.161C546.284 256.797 539.696 254.134 537.024 255.825L535.219 260.464C532.901 261.209 528.205 260.161 526.248 261.579C525.129 262.39 525.62 265.621 523.613 266.224C522.317 266.612 512.413 266.518 511.079 266.084C508.665 265.298 509.378 262.56 507.728 261.595C505.242 260.141 501.159 261.377 499.335 260.462C497.968 259.777 498.341 257.388 497.374 256.262C496.428 255.161 494.076 255.281 493.45 254.024L493.213 226.344C493.5 224.521 494.456 223.553 496.295 223.265C499.279 222.797 514.68 222.762 517.432 223.355C521.829 224.303 517.405 232.514 521.594 233.774C525.505 234.951 525.136 230.703 526.482 229.346C527.449 228.372 529.836 228.391 530.454 227.156L531.415 218.324C533.213 217.533 535.337 217.705 536.212 215.555L536.308 102.019C535.722 97.1974 540.908 99.7005 541.92 95.8707L542.044 56.8116C542.257 56.1025 543.099 55.4477 543.763 55.1697C545.676 54.3679 561.705 54.4404 564.632 54.7456C566.018 54.8897 567.766 55.1626 568.43 56.5497C570.375 64.4338 566.991 122.032 569.384 124.444C570.012 125.077 571.454 125.427 572.352 125.189C576.23 124.162 573.595 114.311 574.551 111.109C575.718 108.749 578.928 109.613 579.794 106.829C580.702 103.903 579.145 95.0296 580.735 93.4945L580.732 93.4965ZM564.709 136.542C563.107 137.108 562.731 141.414 565.75 141.566C570.751 141.818 569.371 134.895 564.709 136.542Z" fill="#880000"/>
<path d="M693.67 61.0411C694.441 61.8469 694.292 64.0519 695.502 65.0925C696.562 66.0041 699.806 66.0514 700 66.8703L699.959 101.472C699.585 104.086 695.792 102.946 695.05 105.525C693.803 109.852 696.084 118.979 694.822 123.209C694.123 125.552 690.229 124.176 689.461 128.49C688.322 134.883 690.467 144.077 689.311 150.171C688.722 153.274 684.701 150.881 683.842 154.786C682.444 161.153 684.7 171.304 683.646 178.099C683.145 179.586 679.415 178.989 678.787 181.081C677.772 184.456 679.945 198.68 677.751 200.33C676.701 201.12 673.997 200.838 673.448 202.082C672.292 206.828 674.102 211.958 672.243 216.526C671.802 217.032 667.142 217.618 666.096 217.658C664.514 217.72 653.463 217.14 652.893 216.804C650.006 215.104 653.604 199.275 650.636 196.67C645.15 191.856 646.092 204.48 645.111 205.66C644.237 206.711 641.974 206.388 641.111 207.263C640.177 208.21 640.764 210.441 639.879 211.352C639.104 212.149 636.289 212.191 635.658 212.729C634.882 213.388 635.032 216.456 633.474 216.988C631.496 217.232 629.529 216.925 627.546 217.224C625.301 217.563 623.978 219.02 622.328 219.289C619.504 219.751 611.026 219.551 608.316 218.786C606.518 218.277 604.933 216.934 603.112 216.428C602.775 213.68 603.797 208.743 601.087 206.973C599.791 206.127 597.636 206.601 597.431 204.468L597.429 176.508C597.596 174.103 600.759 174.608 601.755 173.832C604.536 171.662 601.994 158.001 603.129 154.214C603.766 152.093 607.02 153.103 607.691 151.46C608.925 148.437 606.915 138.341 609.004 136.993C609.669 136.564 610.96 136.487 611.821 136.026C615.447 134.081 612.63 129.971 613.96 126.969C614.76 125.164 617.087 125.574 618.191 124.479C619.129 123.55 619.101 121.53 620.068 120.756C621.012 120 622.948 120.249 623.766 119.412C624.584 118.576 624.265 116.814 625.162 115.769C626.017 114.775 627.584 114.882 628.541 114.106C630.364 112.627 629.12 110.023 632.414 109.579C634.252 109.331 649.196 109.426 650.102 109.876C651.36 110.502 651.24 112.853 652.343 113.796C653.339 114.648 654.808 114.384 655.678 114.943C658.41 116.702 654.297 127.736 661.17 124.911C663.681 123.88 661.732 113.937 662.543 111.122C663.285 108.543 667.078 109.684 667.452 107.07C666.79 100.104 668.39 91.4062 667.493 84.6694C666.961 80.6694 660.447 82.0443 657.513 82.8683C655.94 84.4387 657.639 90.0776 656.319 91.9129C655.856 92.5565 653.449 92.2957 652.359 93.1156C650.997 94.139 651.396 96.892 649.969 97.4782C646.348 97.6011 627.505 98.7454 625.665 97.3402C623.668 95.8162 623.718 83.7719 625.58 82.3234C626.352 81.722 628.191 82.0907 628.844 81.2486C630.414 79.2289 629.683 74.6306 630.014 72.1919C631.212 71.4616 633.541 71.2017 634.435 70.1753C635.326 69.1509 635.17 66.9519 635.879 66.4493C636.739 65.8389 638.98 66.0776 640.006 65.1015C640.969 64.1859 640.723 62.3042 641.416 61.4722C642.173 60.5646 644.535 60.6694 645.634 58.9701C646.337 57.8822 646.252 56.068 646.859 55.4334C648.336 53.8903 653.741 55.4747 655.708 54.4765C657.198 53.721 656.427 50.268 659.357 49.7251C660.86 49.447 676.221 49.4702 677.185 49.7996C678.785 50.4241 678.598 53.7603 679.787 54.4775C681.313 55.3982 685.287 54.0988 687.805 55.4254C689.759 56.4548 689.155 58.2539 690.465 59.4828C691.294 60.2604 693.107 60.4528 693.668 61.0411H693.67ZM652.481 164.039C653.315 163.178 656.176 163.061 656.714 161.274C657.107 159.967 657.029 152.419 656.834 150.733C656.359 146.642 653.838 147.612 652.314 145.731C651.537 144.772 651.648 143.256 650.644 142.362C648.982 140.881 644.001 141.449 641.816 141.88C640.419 142.452 640.683 145.482 639.202 146.58C638.166 147.348 635.861 147.17 635.235 148.217C634.127 150.074 635.66 158.075 634.712 161.129C633.748 164.234 630.039 162.395 629.396 167.015C628.86 170.86 629.003 185.133 630.175 188.555C631.248 191.689 637.545 191.23 639.685 189.605C640.891 188.689 640.365 187.059 641.633 185.954C642.768 184.965 644.297 185.406 645.335 184.054C646.174 182.964 645.936 181.214 646.722 180.401C647.675 179.416 650.785 179.669 651.507 178.463C652.554 175.588 650.728 165.847 652.48 164.039H652.481Z" fill="#880000"/>
<path d="M500.463 216.236L499.53 216.984C497.661 216.871 495.858 217.572 494.043 217.658C492.428 217.733 480.876 217.152 480.282 216.802C478.007 215.463 479.776 201.703 479.047 198.443C478.777 197.236 477.787 196.104 476.52 195.905C471.576 195.123 474.691 205.329 472.927 206.365C472.149 206.821 470.566 205.876 469.027 207.227C467.626 208.457 468.043 210.595 467.132 211.49C466.201 212.403 464.047 211.92 463.215 213.173C462.661 214.008 462.893 215.694 462.228 216.388C461.148 217.517 456.77 216.903 454.924 217.208C453.036 217.521 451.421 219.01 449.713 219.28C447.491 219.632 439.671 219.633 437.449 219.28C435.439 218.962 432.663 216.917 430.506 216.423C430.038 213.927 431.063 210.168 429.745 207.943C428.421 205.706 425.21 207.401 424.772 202.835C423.984 194.617 425.326 184.986 424.932 176.616C425.438 173.513 429.21 175.274 430.164 172.326C431.615 167.839 429.219 158.551 430.521 154.211C431.148 152.121 435.202 152.998 435.906 150.634C436.741 147.83 435.018 138.829 436.707 137.16C437.464 136.412 439.919 136.508 440.546 135.541C441.887 133.474 440.162 128.715 441.926 126.42C442.891 125.165 445.274 125.318 445.978 124.591C446.664 123.883 446.421 121.941 447.176 121.027C448.075 119.94 450.273 120.314 451.159 119.408C451.975 118.573 451.656 116.825 452.557 115.767C453.562 114.585 455.804 114.713 456.748 113.796C458.132 112.451 457.074 110.009 460.367 109.573C462.486 109.292 477.17 109.414 478.24 110.111C479.053 110.641 478.932 112.539 479.978 113.551C480.995 114.535 483.338 114.546 483.94 115.749L484.727 124.338C492.91 128.56 488.684 115.265 489.925 111.108C490.586 108.896 494.242 109.463 494.962 107.706C495.773 105.72 495.775 88.7381 495.433 85.7968C494.925 81.4251 490.995 81.6447 487.267 82.1433C482.138 82.8283 485.343 89.6286 483.955 91.7107C483.421 92.5105 480.968 92.4682 479.974 93.3324C478.765 94.3841 479.006 97.1038 477.097 97.7353C473.523 97.4483 454.539 98.7638 452.959 97.1541C451.782 94.0869 450.756 85.4594 452.787 82.9703C453.515 82.0778 454.98 82.1272 455.845 81.547C458.657 79.6633 456.423 74.9915 457.584 72.6485C458.326 71.1516 461.508 71.3934 462.408 70.1897C463.16 69.1834 462.654 67.6895 463.416 66.7195C464.223 65.6921 466.412 66.0285 467.398 65.0988C468.408 64.1469 468.072 62.0305 469.088 61.1894C470.982 59.62 474.389 60.5377 474.819 55.4347L483.842 54.23C485.164 53.3718 483.829 50.4939 486.857 49.8291C489.228 49.3083 500.949 49.3274 503.572 49.679C507.126 50.1544 505.812 53.3838 506.985 54.235C508.708 55.4851 514.249 53.9963 516.01 55.4488C516.693 56.0119 517.258 58.9582 517.975 59.6402C518.741 60.3695 520.984 60.3544 521.635 61.0252C522.979 62.4123 522.108 66.7145 527.293 66.5704L527.642 100.381C527.351 104.464 523.232 102.767 522.439 105.52C521.167 109.939 523.217 118.843 522.231 123.783C521.702 125.325 518.805 125.136 517.967 125.962C515.312 128.58 517.472 146.191 516.626 150.652C516.099 152.193 513.201 152.005 512.364 152.831C510.599 154.571 512.354 173.728 511.564 177.501C510.892 179.752 507.117 179.14 506.341 180.681C505.091 183.16 506.714 194.748 505.933 198.773C505.346 201.801 500.464 200.262 500.464 204.478V216.233L500.463 216.236ZM478.474 178.883C480.117 177.26 478.449 168.474 479.412 165.545C480.245 163.011 483.987 163.668 484.65 160.701C485.067 158.83 484.996 152.279 484.633 150.322C483.915 146.448 481.07 147.629 479.692 145.741C478.886 144.637 479.216 142.571 477.472 141.801C476.388 141.321 471.747 141.292 470.494 141.524C467.484 142.08 468.264 145.397 467.272 146.423C466.595 147.123 463.829 147.145 463.183 148.216C462.056 150.087 463.646 158.121 462.665 161.133C461.858 163.609 458.097 163.044 457.425 165.415C456.882 167.328 456.708 173.682 456.724 175.963C456.751 179.767 457.763 184.139 457.431 188.127C458.156 191.764 465.999 191.481 467.651 189.063C468.276 188.149 468.223 186.511 469.324 185.696C470.429 184.879 472.249 185.244 473.271 184.041C474.173 182.982 473.844 181.271 474.673 180.404C475.475 179.565 477.78 179.569 478.474 178.883Z" fill="#880000"/>
<path d="M178.777 216.516L152.776 216.575C150.705 213.757 153.263 202.906 150.759 201.683C144.829 198.784 147.354 208.235 145.994 210.922C145.252 212.39 142.867 211.884 141.925 212.738C141.107 213.479 140.993 216.074 140.31 216.567C138.592 217.807 134.17 216.413 131.835 217.49C129.752 218.451 130.474 220.705 129.506 221.88C128.122 223.559 116.562 223.506 114.662 222.176C114.128 221.802 114.346 219.704 113.224 218.455C112.12 217.225 110.47 217.355 109.53 216.549C108.551 215.71 108.652 214.082 107.871 213.168C106.481 211.539 103.895 212.913 103.243 209.953L103.627 169.724L108.616 166.869L108.735 144.039C109.259 141.286 112.034 142.081 113.077 141.38C115.507 139.746 113.753 124.331 114.399 120.871C116.538 120.064 119.182 120.335 119.811 117.598C120.718 113.652 118.839 95.0304 120.631 93.5033C121.223 92.9987 122.815 93.2596 123.875 91.9874C126.449 88.901 124.225 71.6953 124.95 66.8693C128.412 64.9987 129.876 66.3344 130.536 61.6948C131.094 57.7643 128.999 55.1604 134.198 54.7222C139.274 54.2941 148.785 54.275 153.832 54.7534C154.834 54.8481 155.848 55.0828 156.781 55.4404C158.395 56.8305 157.02 76.1536 157.466 79.6398C156.832 83.0405 152.666 81.4016 151.989 83.6852C150.861 90.2306 153.166 100.307 151.756 106.403C151.15 109.015 149.375 108.369 147.976 109.345C144.777 111.576 146.961 125.365 146.195 129.398L145.721 130.044C142.697 130.892 141.199 131.111 140.718 134.563C139.794 141.213 141.39 149.41 140.56 156.235C139.95 158.257 136.476 157.497 136.184 159.7L136.269 189.288C136.903 191.223 144.048 191.136 145.542 190.035C146.688 189.191 146.651 186.491 147.623 185.679C148.539 184.911 150.95 185.161 151.606 184.06C152.735 182.168 150.707 176.32 153.018 174.835C153.862 174.293 155.31 174.496 156.36 173.695C159.926 170.976 156.499 155.074 158.835 153.216C160.04 152.258 162.569 152.877 163.07 150.169C164.264 143.717 161.946 133.949 163.222 127.344C163.84 124.153 167.703 126.871 168.555 122.062C169.687 115.682 167.529 106.409 168.703 100.379C169.209 97.7763 172.655 98.6627 173.624 96.3379C174.56 89.4701 172.73 80.7177 173.769 74.0926C174.359 70.3314 178.136 71.8232 179.085 68.767C180.039 65.6968 178.491 57.7532 179.612 55.8585C180.175 54.9055 181.938 54.8099 182.954 54.7192C189.273 54.1541 200.716 54.2377 207.098 54.7242C208.457 54.828 210.603 54.8129 211.047 56.3843C212.283 60.761 206.868 59.0979 206.25 62.3143C205.342 68.9453 207.479 78.9227 206.113 85.1276C205.475 88.0277 203.142 86.7695 201.756 88.0538C199.257 90.3706 201.411 108.319 200.524 112.572C199.934 114.54 197.211 113.873 196.277 114.766C194.548 116.42 196.237 136.254 195.499 140.018L190.358 142.754C188.984 146.615 191.414 160.119 188.862 162.495C187.571 163.697 185.171 162.97 184.503 165.978L184.406 189.277L179.717 190.722C179.43 190.893 178.778 191.953 178.778 192.166V216.515L178.777 216.516Z" fill="#880000"/>
</svg>
