<svg width="269" height="269" viewBox="0 0 269 269" fill="none" xmlns="http://www.w3.org/2000/svg">
<path d="M68 231.52C69.9807 230.845 72.4415 231.297 72.9064 228.891C74.1559 222.431 71.9312 213.18 73.1807 206.72C73.7193 203.933 76.2799 205.391 77.5728 203.858C80.0537 200.917 77.7725 184.555 78.6478 179.743C79.0623 177.464 81.6905 178.326 82.8574 177.229C85.0832 175.136 82.6012 161.464 83.7691 157.989C84.4458 155.976 88.383 158.159 89.1636 153.863C90.3506 147.34 88.4909 138.467 89.3703 131.678C89.7999 130.429 92.9041 130.389 93.6303 129.496C95.5263 127.169 93.5133 110.216 94.3534 105.869C94.8395 103.356 97.1177 104.248 98.5054 103.3C101.235 101.433 99.3132 87.1737 100.034 83.5554C100.697 81.6063 104.178 83.0901 104.862 79.9805C106.182 73.981 103.833 64.2817 105 58.2873C105.511 55.6663 109.263 56.452 109.922 54.246C111.013 50.5895 108.426 36.6222 111.736 34.7859C112.577 34.3195 113.642 34.5915 114.556 33.6849C116.179 32.0743 114.802 29.8098 118.524 29.2528C121.512 28.8066 135.716 29.007 138.919 29.421C139.873 29.5439 140.62 29.6305 141.138 30.5633L141.886 48.6685C141.319 50.3175 137.496 49.8038 136.615 53.4794C135.659 57.4673 137.36 67.8113 136.1 70.3175C135.318 71.8707 131.328 71.2553 131.328 73.3877V91.2996C131.328 91.6823 132.716 92.6252 133.323 92.7158C138.689 93.5156 135.973 84.9989 137.441 82.9793C137.959 82.2671 140.142 82.4252 141.169 81.5358C142.182 80.6594 142.046 78.9601 142.818 78.1462C144.233 76.6554 146.984 78.0727 147.543 74.4696C148.324 69.429 145.831 67.7176 152.354 65.281L153.439 56.8488C157.67 56.2596 157.17 53.3716 158.756 51.5242C159.709 50.4142 161.718 50.7144 162.658 49.2639C163.982 47.219 162.671 42.6227 164.121 40.6494C164.86 39.6431 167.879 39.7539 168.507 38.2762C170.023 34.7114 166.545 30.0607 171.95 29.4371C177.304 28.8197 190.047 28.9154 195.49 29.4553C201.807 30.0818 200.242 32.6927 200.171 38.0334L195.73 40.451L194.846 48.9133L190.28 51.6633L189.345 59.6864C188.295 60.6857 186.733 60.6121 185.646 61.5892C184.381 62.7254 184.458 64.6323 183.49 65.5932C182.328 66.7466 180.668 66.0123 179.589 67.8546C178.179 70.2641 179.678 74.4776 178.708 75.9312C178.203 76.6877 175.988 76.7028 175.066 77.3313C172.559 79.0397 174.864 84.1387 173.649 86.5512C172.972 87.8969 170.836 87.5444 169.76 88.2636C168.561 89.0644 168.833 90.8765 167.747 91.8486C166.739 92.7501 164.361 92.741 163.786 93.6285L162.762 102.407C161.771 103.928 158.406 101.988 157.721 107.025C157.055 111.918 159.359 112.992 153.138 114.899L152.114 123.677C151.169 125.131 147.942 123.389 147.156 127.817C146.469 131.69 146.469 149.425 147.156 153.299C148.008 158.108 151.873 155.389 152.489 158.58C153.756 165.132 151.818 174.534 152.639 181.408C153.208 184.349 157.216 182.942 157.677 185.333C158.55 193.472 156.425 204.268 157.804 212.074C158.57 216.409 161.2 214.645 162.587 215.973C164.732 218.028 161.94 236.15 162.733 240.091C162.62 240.461 161.468 241.035 161.312 241.035H132.73C129.759 236.716 134.335 224.177 129.946 220.868C129.045 220.189 127.494 220.14 126.974 219.637C125.257 217.979 126.865 195.525 126.271 191.511C125.788 188.934 122.218 188.746 121.518 187.303C120.352 184.9 122.375 174.82 119.704 173.305C114.495 170.352 114.935 179.356 115.001 182.183C106.319 182.951 111.878 192.934 109.754 197.376C109.089 198.767 106.714 198.764 105.791 199.574C102.91 202.107 105.309 218.798 104.415 223.389C103.975 225.651 101.873 225.158 100.511 226.207C97.0763 228.855 102.366 240.341 96.8888 241.06C91.703 241.741 75.2098 241.682 69.9343 241.063C69.1184 240.968 68.4932 240.994 68.001 240.195V231.519L68 231.52ZM130.63 102.635C133.012 100.337 128.088 96.8528 126.556 99.4063C124.936 102.107 128.451 104.737 130.63 102.635Z" fill="#880000"/>
</svg>
