<svg width="279" height="279" viewBox="0 0 279 279" fill="none" xmlns="http://www.w3.org/2000/svg">
<rect width="278.753" height="278.753" fill="#FDDBB4"/>
<path d="M133.062 228.837C133.361 226.545 133.126 224.834 133.321 222.876L134.696 222.428C134.751 221.096 134.603 215.567 134.887 214.827C135.229 214.522 135.923 214.411 136.401 214.278C136.451 212.153 136.528 208.699 136.389 206.636C132.531 205.841 136.756 203.778 133.404 203.071C133.231 202.56 133.114 201.971 132.621 201.755C131.677 201.338 129.731 201.601 128.633 201.631V201.638C127.588 205.301 125.818 201.129 124.899 204.712C124.294 204.845 124.035 204.817 123.607 205.31C122.925 206.1 124.205 208.484 122.324 207.947C121.189 207.201 122.259 204.058 121.584 203.386C120.856 202.985 119.909 203.374 119.163 203.112C117.865 202.655 119.912 201.412 115.604 201.631C115.435 202.14 115.253 202.643 115.065 203.142C113.257 203.26 112.517 202.637 112.005 204.579C109.116 205.255 111.231 207.09 110.121 207.975C109.76 208.039 109.674 208.073 109.329 207.959C108.037 206.963 110.047 203.232 107.895 203.253C106.8 203.263 103.238 202.88 102.563 203.639C102.19 204.709 103.149 206.242 101.447 206.531C101.114 206.59 101.123 206.593 100.885 206.828C100.743 207.38 100.818 208.295 100.799 208.891C100.74 210.574 100.916 212.742 100.71 214.377C100.293 214.478 99.6549 214.617 99.2633 214.744C99.1029 215.888 99.3928 222.086 98.921 222.422C98.5756 222.666 98.1007 222.749 97.6998 222.857C97.413 225.065 97.8262 228.087 97.5425 230.412C97.0645 230.563 96.3491 230.715 96.0561 231.066C95.6491 231.988 95.9975 234.421 95.9575 235.528C95.9019 237.092 95.9235 236.944 94.5019 237.465C94.4032 238.859 94.6098 244.262 94.283 244.989C93.9345 245.276 93.2746 245.347 92.8027 245.446C92.738 246.47 92.5869 250.657 92.9384 251.422C93.4473 251.872 99.1677 251.737 100.087 251.678C100.253 251.666 100.423 251.65 100.589 251.632L100.929 250.306C101.376 250.21 101.925 250.142 102.27 249.865C102.662 249.217 102.403 243.734 102.52 242.334L103.963 241.884C104.194 239.583 103.92 236.62 104.077 234.199C104.614 234.042 105.153 233.891 105.693 233.749C105.736 232.426 105.65 228.793 105.826 227.76C106.22 227.612 106.896 227.375 107.26 227.205C107.386 225.238 107.133 221.176 107.411 219.594C107.882 219.465 108.364 219.342 108.829 219.197C108.983 217.664 108.82 216.178 108.996 214.7L110.454 214.281C110.504 213.374 110.319 212.178 110.766 211.564C111.82 210.809 112.141 212.018 112.372 212.751C112.854 212.9 113.421 213.004 113.668 213.495C113.896 213.951 113.905 215.058 113.739 215.539C113.686 215.69 113.569 215.854 113.421 215.919C113.005 216.097 112.413 216.159 112.215 216.615C111.694 217.83 112.656 223.693 111.725 224.094C111.389 224.239 110.911 224.208 110.67 224.51C110.3 225.611 110.901 230.107 110.127 230.508C109.739 230.711 109.196 230.724 109.042 231.208C108.515 232.839 109.316 236.364 108.928 238.137C108.875 238.368 108.752 238.547 108.542 238.665C108.191 238.862 107.728 238.797 107.472 239.152C107.087 240.721 107.559 244.647 107.247 246.596C106.772 246.756 106.291 246.907 105.81 247.046C105.597 247.95 105.474 250.611 105.94 251.416C106.581 251.875 113.655 251.721 114.923 251.675C116.045 250.842 114.698 245.177 115.629 243.833C115.765 243.639 116.751 243.552 116.964 243.528C117.313 241.221 116.751 238.304 117.134 236.216C117.174 235.997 117.229 235.843 117.418 235.71C117.843 235.411 118.528 235.556 118.636 234.884C118.833 233.672 118.256 228.291 118.932 227.754C119.24 227.507 119.804 227.446 120.187 227.316C120.27 225.882 120.119 222.24 120.356 221.167L121.778 220.695C121.815 219.314 121.707 215.783 121.929 214.734C122.373 214.602 122.817 214.46 123.264 214.358C123.391 213.979 123.554 213.439 123.696 213.078L124.957 212.724C125.062 212.295 125.133 211.771 125.442 211.481C125.839 211.318 125.685 211.327 126.111 211.376C126.345 211.53 126.635 211.823 126.669 212.295C126.768 213.692 126.823 216.085 126.564 217.43C126.512 217.701 125.349 217.846 125.269 218.164C124.843 219.816 125.352 221.645 125.112 223.387C124.92 224.76 123.579 223.705 123.474 224.899C123.292 226.962 123.749 230.008 123.277 231.97C123.24 232.124 122.194 232.475 121.938 232.562C121.648 234.276 121.911 238.116 121.772 240.188L120.344 240.576C120.134 243.059 120.44 245.825 120.202 248.326C119.672 248.419 119.107 248.425 118.793 248.826C118.623 249.239 118.475 251.573 119.03 251.579C121.183 251.598 126.308 252.051 128.174 251.468C128.568 250.994 128.346 246.627 128.454 245.501C128.861 245.344 129.555 245.1 129.925 244.918C129.975 243.707 129.83 238.091 130.11 237.459C130.459 237.138 131.008 237.067 131.489 236.947C131.745 234.588 131.387 231.714 131.649 229.299C132.121 229.148 132.593 228.994 133.065 228.84L133.062 228.837Z" fill="#6A110B"/>
<path d="M161.491 228.858C161.568 227.714 161.399 223.554 161.716 222.94C162.086 222.632 162.718 222.573 163.209 222.484C163.323 220.221 163.079 216.727 163.341 214.704L164.658 214.272C164.874 212.095 164.812 208.82 164.658 206.572L163.36 206.162C163.286 205.344 163.366 203.947 162.882 203.442C162.129 203.022 161.149 203.213 160.258 203.149C159.872 201.909 159.373 201.16 157.738 201.505C156.828 201.696 156.693 202.335 156.44 203.155C155.53 203.186 154.528 203.195 153.637 203.346C153.405 204.046 153.353 204.428 152.733 204.836C151.993 204.9 151.793 203.534 151.827 203.041C151.894 202.029 151.623 197.65 152.024 197.006C152.412 196.756 152.881 196.648 153.325 196.519C153.436 195.529 153.159 190.962 153.695 190.536C154.041 190.262 154.639 190.16 155.061 190.012C155.092 189.293 155.237 187.841 154.916 187.249C154.361 186.854 146.985 186.977 145.77 187.024C144.697 187.964 146.01 192.093 145.088 193.305C144.965 193.466 144.129 193.694 143.892 193.771C143.772 194.835 144.114 199.235 143.485 199.744C143.164 200.003 142.566 200.111 142.171 200.231C142.06 202.153 142.291 206.303 142.008 207.842C141.672 207.947 140.891 208.169 140.602 208.292C140.386 210.476 140.74 213.97 140.444 215.808C140.13 215.909 139.09 216.196 139.026 216.455C138.606 218.117 138.933 220.631 138.77 222.419C138.369 222.555 137.795 222.728 137.419 222.897C137.296 223.992 137.647 229.978 137.006 230.44C136.543 230.773 135.843 230.616 135.704 231.331C135.439 232.698 136.189 237.986 135.263 238.643C134.992 238.837 134.465 238.918 134.144 239.01C134.033 240.222 134.363 246.158 133.734 246.621C133.262 246.966 132.679 246.827 132.534 247.54C132.396 248.221 132.442 250.701 132.611 251.354C133.142 251.897 137.786 251.721 138.727 251.623L139.078 250.303C139.491 250.189 140.077 250.047 140.466 249.902C140.543 248.446 140.506 247 140.506 245.545C140.506 244.792 140.398 243.802 141.385 243.682C143.146 244.391 141.246 248.927 142.566 250.022C142.594 250.047 143.383 250.306 143.537 250.368C143.701 250.753 143.858 251.12 143.988 251.518C144.33 251.641 144.879 251.823 145.193 251.965C145.307 252.421 145.428 252.881 145.548 253.337C146.855 253.405 148.527 253.433 149.831 253.337L149.884 253.269C150.359 252.64 150.368 251.654 151.302 251.61C152.749 251.543 153.381 252.32 153.59 250.297C153.988 250.207 154.71 250.068 155.071 249.948C155.095 249.112 155.092 247.922 155.237 247.13L156.656 246.513C156.674 245.714 156.674 244.589 156.801 243.824C157.266 243.71 157.732 243.586 158.204 243.497C158.361 242.217 158.102 238.032 158.521 237.428C158.993 237.138 159.434 237.141 159.943 236.993C160.057 235.621 159.844 230.089 160.171 229.355C160.51 229.077 161.069 228.972 161.507 228.855L161.491 228.858ZM150.541 204.95C152.363 204.82 152.141 207.121 151.401 207.95C149.646 208.222 150.056 205.557 150.541 204.95ZM155.034 217.291C154.812 217.806 154.244 217.642 153.828 217.831C152.884 218.256 153.828 224.162 153.282 225.438C153.131 225.79 152.354 226.009 152.018 226.144C151.839 227.902 152.061 230.15 151.907 232.056C151.379 232.201 150.849 232.309 150.319 232.426C150.226 233.712 150.43 239.451 150.103 240.114C149.77 240.385 149.27 240.453 148.841 240.552L148.511 241.77C148.12 241.93 147.589 242.103 147.179 242.251C147.007 242.809 146.929 243.139 146.618 243.636C145.434 243.66 145.483 243.318 145.224 242.279C144.805 242.183 144.28 242.112 143.969 241.838C143.633 241.135 143.781 236.706 143.861 235.744C144.213 235.627 145.169 235.482 145.273 235.087C145.739 233.357 144.934 229.386 145.502 227.871C145.708 227.6 146.522 227.412 146.92 227.279C146.994 225.651 146.797 222.7 147.074 221.235C147.586 221.106 148.08 220.958 148.582 220.806C148.74 219.44 148.585 217.88 148.73 216.381L150.044 215.959C150.278 213.985 149.406 213.236 151.663 212.718C151.808 212.138 151.854 211.715 152.274 211.305H152.277C153.399 211.358 153.384 211.737 153.683 212.693C154.17 212.863 154.667 212.989 154.972 213.402C155.24 214.226 155.376 216.477 155.031 217.282L155.034 217.291Z" fill="#6A110B"/>
<path d="M66.4023 202.945C66.8896 202.754 67.3768 202.569 67.8702 202.39C67.9381 201.517 67.9504 200.709 67.9658 199.837C68.3883 199.658 68.9372 199.445 69.3412 199.254L69.7174 198.048C70.1337 197.903 70.658 197.74 71.0588 197.582C71.0989 195.59 70.6425 195.131 72.6254 194.44C72.6532 193.706 72.6717 192.411 72.7827 191.729L74.1981 191.279C74.2598 190.696 74.4695 189.429 74.121 188.926C73.9021 188.609 73.2422 188.55 72.8814 188.513C71.9809 188.42 65.3909 188.35 65.0177 188.652C64.8204 188.809 64.7895 189.151 64.7803 189.386C64.7587 189.876 64.8789 190.921 64.5212 191.273C64.2498 191.541 63.6269 191.621 63.26 191.708C63.2014 193.484 63.6053 194.301 61.7828 194.946C61.6595 195.285 61.4714 195.868 61.3295 196.179C58.3382 197.151 61.7674 198.578 58.6528 199.753L58.477 199.818C58.4184 201.548 58.9242 202.393 57.0615 202.908L56.6267 204.009C56.2351 204.142 55.7139 204.299 55.3439 204.444C55.2884 205.292 55.3747 206.612 54.8844 207.219C54.5174 207.41 54.6685 207.37 54.2584 207.336C53.5059 206.889 53.6108 205.708 53.6231 204.931C53.6447 203.694 53.5985 202.418 53.7866 201.193L54.6593 201.2C54.9245 201.2 55.1404 200.993 55.1496 200.728C55.1959 199.115 55.1558 196.065 55.3439 195.1C55.6399 194.946 55.8095 194.933 56.0069 194.906C56.2937 194.862 56.5065 194.616 56.5065 194.326L56.4818 188.689C55.8774 188.131 50.4067 188.337 49.3367 188.374C48.9635 188.633 48.834 189.312 48.6767 189.79L47.5604 189.944L47.0917 196.105C46.9622 196.29 46.3824 196.438 46.1419 196.503C46.0401 196.531 45.9383 196.559 45.8366 196.586C45.5745 198.464 45.8366 201.838 45.6916 203.984L44.2577 204.376C44.1621 205.412 44.4735 209.843 43.9 210.371C43.3973 210.827 42.7065 210.448 42.6048 211.373C42.4722 212.563 42.9502 217.692 42.2563 218.302C41.8153 218.691 41.14 218.531 41.0444 219.277C40.9118 220.31 41.3373 225.756 40.7637 226.206C40.4677 226.44 39.8448 226.484 39.4716 226.555C39.4007 228.195 39.521 231.106 39.3298 232.528C38.8611 232.66 38.3892 232.781 37.9143 232.892C37.8033 234.875 38.0377 238.84 37.7478 240.472C37.2729 240.657 36.7918 240.826 36.3077 240.98C36.0795 243.161 36.3416 246.029 36.1936 248.326C35.7618 248.425 35.1636 248.508 34.8706 248.804C34.5993 249.291 34.5407 251.166 34.957 251.558C35.95 251.792 42.907 251.768 43.9308 251.49C44.3502 251.018 44.0942 248.227 44.2361 247.231C44.7017 247.068 45.2537 246.892 45.704 246.713C45.741 245.631 45.5097 239.79 45.963 239.349C46.2961 239.028 46.8511 238.93 47.2829 238.788C47.3137 237.594 47.2644 235.621 47.4216 234.548L48.8371 234.085C48.9173 233.188 48.7785 231.991 49.2442 231.396C49.6327 231.217 49.4754 231.251 49.901 231.291C50.9433 231.896 50.453 234.532 50.5979 235.723C50.9001 235.84 51.9024 236.194 51.9486 236.457C52.3464 238.902 51.9363 242.71 52.1367 245.11C52.6579 245.35 53.4751 245.625 53.6355 246.158C54.024 247.444 53.3518 250.306 53.8698 251.444C55.1465 251.98 61.1815 251.666 62.8221 251.533C63.1859 251.505 63.0903 249.476 63.0873 249.1C63.1674 247.759 63.2538 245.449 63.1304 244.11C62.9115 244.052 61.8167 243.802 61.7767 243.577C61.2555 240.783 61.8507 237.668 61.5238 234.819C61.4744 234.397 60.2317 234.458 60.1577 234.094C59.6828 231.735 60.389 228.988 59.8524 226.638C59.8308 226.551 59.4114 226.403 59.2726 226.363C59.0136 226.289 58.7515 226.218 58.4893 226.151C58.4369 225.105 58.3197 217.744 58.5818 217.195C58.9056 216.884 59.4947 216.779 59.9572 216.637C60.1268 214.633 59.4361 214.127 61.5639 213.427C61.6225 211.49 61.1507 210.91 63.1489 210.272C63.1674 209.473 63.1582 208.32 63.297 207.561L64.6045 207.173L65.0177 206.047L66.3006 205.717C66.3561 204.894 66.3376 203.685 66.4147 202.945H66.4023ZM53.1791 210.429C52.8337 210.618 52.3989 210.488 52.2138 210.14C52.0288 209.791 52.1583 209.359 52.5037 209.174C52.8491 208.986 53.2808 209.119 53.4659 209.464C53.654 209.81 53.5214 210.241 53.176 210.429H53.1791Z" fill="#6A110B"/>
<path d="M184.028 250.938C184.373 248.915 182.773 247.454 185.471 246.596C185.635 245.36 185.323 241.206 185.78 240.651C186.174 240.395 186.739 240.293 187.204 240.176C187.291 238.104 187.081 234.237 187.352 232.454L188.774 232.022C188.956 229.685 188.697 227.298 188.885 224.964C188.937 224.313 189.816 224.177 190.337 224.002C190.504 222.743 190.223 218.596 190.655 217.991C191.016 217.735 191.512 217.661 191.95 217.56C192.08 216.119 192.185 207.984 191.916 206.822C191.62 206.467 191.062 206.415 190.6 206.325C190.501 205.934 190.381 205.391 190.257 205.021L189.085 204.642C188.919 204.228 188.718 203.698 188.536 203.303C187.547 203.189 186.788 203.217 185.866 203.143C185.78 202.831 185.539 201.82 185.286 201.755C184.105 201.447 180.879 201.573 179.708 201.644V201.653C179.196 201.934 179.038 202.597 178.829 203.161C176.932 203.217 176.285 202.693 175.751 204.657C175.316 204.786 174.885 204.922 174.444 205.027L174.083 206.35C173.719 206.424 173.179 206.52 172.834 206.618L172.504 207.886C172.091 207.994 171.449 208.142 171.067 208.287C171.024 209.033 171.008 210.205 170.922 210.902C170.428 211.139 169.599 211.451 169.482 211.987C169.287 212.875 169.306 214.981 169.698 215.768C170.132 216.283 176.322 216.082 177.296 215.999C177.423 215.583 177.595 215.062 177.688 214.645C178.113 214.547 178.659 214.436 179.063 214.312C179.097 212.903 178.696 210.091 182.119 211.688C182.511 211.87 182.289 218.007 182.246 218.738C182.233 219.265 181.185 219.49 180.768 219.632C180.664 220.884 181.194 224.168 179.766 224.341C178.551 223.847 179.609 221.513 178.638 221.05C178.419 220.946 177.965 220.838 177.712 220.776L177.318 219.582C175.955 219.465 172.71 219.444 171.298 219.564L170.854 220.844L169.574 221.217C169.448 221.633 169.303 222.08 169.198 222.503L167.992 222.808C167.878 223.191 167.743 223.684 167.613 224.051C167.215 224.162 166.666 224.291 166.287 224.421C166.136 226.425 166.783 227.03 164.711 227.81C164.6 230.194 165.584 231.884 163.049 232.547C162.753 234.397 163.234 236.494 162.882 238.239C162.839 238.452 162.765 238.572 162.586 238.69C162.219 238.936 161.593 238.742 161.452 239.276C161.26 239.997 161.236 247.771 161.495 248.197C161.529 248.255 161.523 248.24 161.59 248.289C163.582 248.838 162.778 249.76 162.993 251.481C163.413 251.651 164.292 252.008 164.733 252.113C165.528 252.301 168.726 252.443 169.352 252.079C171.326 250.935 172.226 252.878 172.828 250.343L174.092 249.964L174.37 248.626C174.764 248.558 175.507 248.45 175.868 248.354C175.942 247.46 175.8 246.007 176.248 245.415C178.298 244.234 177.265 250.519 177.571 251.219C177.82 251.793 179.412 251.777 180.102 251.753C181.148 251.716 183.565 252.172 184.025 250.938H184.028ZM179.06 235.001C178.798 235.433 178.073 235.664 177.589 235.871C177.475 236.895 177.58 237.78 177.595 238.794C177.614 240.108 177.234 240.296 176.127 240.537L175.773 241.82C175.211 241.974 174.616 242.014 174.351 242.547C173.984 243.889 173.599 243.63 172.328 243.676C171.918 243.691 171.628 243.642 171.307 243.38C170.848 242.476 170.869 237.256 171.156 236.075C171.351 235.723 172.195 235.405 172.603 235.22C172.729 234.28 172.67 232.155 172.717 231.033C173.096 230.891 173.642 230.74 174.043 230.616C174.077 230.477 174.111 230.339 174.148 230.2C174.289 229.648 174.305 229.38 174.795 229.087C176.522 229 177.13 228.661 177.697 230.493C178.042 230.613 178.86 230.891 178.974 231.196C179.27 231.995 179.23 234.249 179.063 235.001H179.06Z" fill="#6A110B"/>
<path d="M243.345 206.621L241.901 206.285L241.534 205.063L240.449 204.592C240.292 204.212 240.082 203.67 239.906 203.312C238.895 203.188 238.173 203.216 237.217 203.148C237.088 202.689 236.958 201.955 236.569 201.721C235.78 201.505 232.03 201.573 231.065 201.647C230.488 201.958 230.386 202.532 230.168 203.164C228.249 203.216 227.574 202.667 227.01 204.659L225.832 205.051L225.459 206.325L224.151 206.584L223.806 207.851C223.414 207.978 222.779 208.156 222.418 208.311C222.316 210.343 222.859 210.738 220.851 211.583C220.808 212.622 220.642 214.87 221.024 215.752C221.641 216.273 227.457 216.082 228.496 215.995C228.549 215.992 228.601 215.986 228.65 215.983L229.008 214.636C229.427 214.543 230.053 214.423 230.448 214.287C230.482 213.686 230.334 211.814 230.889 211.499C231.423 211.194 232.998 211.2 233.483 211.672C233.763 212.505 233.797 218.419 233.504 219.07C232.761 219.807 232.135 218.82 232.123 220.778C232.116 221.679 232.511 224.328 231.204 224.171C230.874 224.13 230.849 224.087 230.627 223.878C230.075 222.462 231.413 221.389 229.064 220.803L228.619 219.579C227.306 219.465 223.895 219.455 222.575 219.573L222.162 220.806L220.969 221.235C220.851 221.66 220.725 222.092 220.62 222.521L219.356 222.792L218.976 224.026C218.606 224.137 218.061 224.282 217.709 224.414C217.657 224.994 217.7 226.931 217.379 227.23C216.953 227.621 216.109 227.347 215.93 228.226C215.732 229.2 216.284 231.559 215.597 232.198C215.264 232.506 214.573 232.099 214.354 233.144C214.123 234.261 214.687 237.835 214.095 238.544C213.666 238.849 212.667 238.862 212.698 239.503C212.763 240.789 212.389 247.407 212.803 248.206L212.926 248.301C214.844 248.798 214.308 249.729 214.357 251.4C217.977 253.195 220.077 251.848 223.741 251.641L224.148 250.327C224.564 250.213 225.058 250.09 225.462 249.96L225.758 248.64L227.145 248.344C227.182 247.367 226.948 245.557 228.092 245.319C230.053 245.769 227.975 251.37 229.551 251.629C230.803 251.832 233.954 251.851 235.191 251.567C235.265 250.164 235.182 248.375 235.345 247.08C235.734 246.969 236.569 246.793 236.795 246.482C237.553 245.421 236.11 240.619 237.664 240.419C237.717 240.413 238.318 240.228 238.444 240.185C238.7 237.792 238.321 234.807 238.602 232.469C239.126 232.321 239.653 232.188 240.184 232.068C240.325 229.823 240.051 226.493 240.31 224.47C240.791 224.3 241.272 224.14 241.759 223.986C241.852 222.474 241.685 219.181 241.926 217.984C242.395 217.843 242.867 217.707 243.341 217.577C243.471 215.798 243.4 213.442 243.406 211.626C243.409 210.275 243.468 207.913 243.341 206.627L243.345 206.621ZM230.26 235.146C230.186 235.411 228.983 235.624 228.993 236.129C228.897 236.956 228.977 237.859 228.983 238.695C228.993 240.29 228.888 240.29 227.386 240.493L227.056 241.807C226.464 241.992 226.026 242.041 225.715 242.556C225.255 243.993 224.765 243.598 223.414 243.663C223.155 243.676 222.847 243.595 222.674 243.401C222.242 242.38 222.236 237.483 222.498 236.151C222.566 235.809 223.522 235.414 223.883 235.238C224.003 234.181 223.938 232.219 223.985 231.01C224.355 230.875 225.002 230.702 225.4 230.585C225.557 230.076 225.708 229.361 226.115 229.077C227.858 228.994 228.549 228.648 229.113 230.508C229.56 230.674 230.303 230.847 230.346 231.417C230.433 232.515 230.556 234.082 230.257 235.146H230.26Z" fill="#6A110B"/>
<path d="M213.919 225.63C213.968 224.294 213.904 222.543 214.064 221.3L215.483 220.779C215.572 219.73 215.501 218.861 215.492 217.821C215.48 216.446 215.883 216.218 217.052 215.882C217.28 213.433 216.58 213.634 218.813 212.598C218.856 211.361 218.782 209.538 218.884 208.422C219.374 208.2 219.868 207.99 220.367 207.796C220.38 207.315 220.312 205.391 220.685 205.107C221.222 204.7 222.597 204.811 221.986 203.5C221.9 203.318 221.607 203.269 221.428 203.248C219.951 203.238 213.7 203.004 212.649 203.386C212.149 203.849 212.297 205.554 212.229 206.239L210.937 206.634C210.854 207.21 210.78 209.045 210.376 209.464C210.098 209.751 209.139 209.72 209.149 210.501C209.004 211.777 209.247 212.998 208.914 214.257L207.588 214.793C207.471 217.192 208.424 218.777 205.904 219.721C205.874 220.655 205.988 223.184 205.692 223.835C204.847 224.609 204.193 223.884 204.202 222.971C204.218 221.584 204.239 220.196 204.239 218.805V208.438C204.239 207.111 204.347 204.728 204.026 203.519C203.884 202.979 197.612 203.189 196.826 203.214C196.388 203.38 196.246 203.516 196.227 204.046C196.095 207.805 196.385 211.629 196.175 215.379C196.132 216.11 195.265 216.181 194.612 216.403C194.42 218.262 194.534 222.099 194.538 224.128V242.279C194.531 243.953 194.531 245.628 194.544 247.302C194.556 248.394 194.581 249.477 194.544 250.568C194.507 251.731 193.945 251.629 192.98 251.931C192.949 252.65 192.934 254.062 192.814 254.719C192.391 254.858 191.972 255.003 191.543 255.117C191.414 255.552 191.306 256.094 191.007 256.415C190.64 256.582 190.575 256.622 190.177 256.603C189.085 255.956 190.091 254.327 189.264 253.544C188.62 253.362 182.495 253.359 182.014 253.606C181.401 254.414 181.524 261.528 181.647 262.768C183.032 263.224 183.063 263.196 183.35 264.612C185.385 264.855 185.965 264.094 186.702 266.258C187.941 266.295 189.93 266.354 191.13 266.215C191.259 265.737 191.392 265.256 191.528 264.778C192.293 264.735 193.656 264.726 194.334 264.633C194.544 263.795 194.497 263.548 195.123 263.107C196.064 262.441 197.483 263.606 197.698 262.515C197.837 261.818 197.732 260.859 197.85 260.045C198.331 259.866 198.768 259.705 199.259 259.548L199.644 258.342L200.887 257.917C200.915 257.118 200.924 255.993 201.032 255.228L202.481 254.765C202.666 253.886 202.451 250.688 203.012 250.306C203.561 249.933 204.045 250.047 204.199 249.285C204.427 248.163 204.202 246.855 204.255 245.702C204.483 245.326 205.325 245.175 205.787 245.048C205.803 244.308 205.793 242.997 205.889 242.307C206.293 242.168 207.067 241.921 207.431 241.758C207.563 240.86 207.542 240.068 207.496 239.164C207.409 237.564 207.628 237.323 209.034 236.898C209.084 236.084 209.078 234.921 209.149 234.172C209.63 233.999 210.182 233.817 210.65 233.635C210.712 232.698 210.693 231.874 210.638 230.937C210.552 229.401 210.99 229.244 212.22 228.763C212.303 226.721 211.705 226.086 213.919 225.62V225.63ZM203.656 229.059C203.382 229.136 203.086 229.062 202.882 228.861C202.679 228.661 202.599 228.368 202.673 228.09C202.747 227.816 202.966 227.6 203.24 227.529C203.659 227.421 204.088 227.671 204.202 228.087C204.316 228.504 204.073 228.935 203.656 229.056V229.059Z" fill="#6A110B"/>
<path d="M92.9922 228.883C93.2729 226.604 92.9059 223.527 93.1433 221.134C93.6244 220.979 94.1117 220.837 94.5989 220.708C94.7007 219.573 94.6606 218.256 94.6544 217.103C94.6544 216.434 94.6637 215.629 94.6112 214.975C94.4786 213.335 94.7469 213.11 96.184 212.69C96.3474 210.294 96.0976 207.839 96.2611 205.446C96.2826 205.132 97.7783 204.546 97.9016 203.735C97.3404 202.73 92.6777 203.386 91.4195 203.198C90.8583 203.115 88.934 203.143 88.4128 203.389C87.7991 204.068 88.2833 206.476 88.0674 207.423C87.9225 208.052 86.7013 208.012 86.6088 208.601C86.2727 210.754 86.7013 213.125 86.4947 215.324C86.3837 216.505 85.0793 215.647 84.9744 216.881C84.7832 219.064 85.2704 221.763 84.8048 223.869C84.7555 224.097 83.7101 224.307 83.4263 224.378L83.4325 224.384C83.1766 226.805 83.5528 229.774 83.2691 232.127L81.8598 232.544C81.8104 233.259 81.9646 238.393 81.4435 238.526C78.2857 239.322 81.8197 241.588 78.7112 242.122C78.4861 242.776 78.3566 243.63 77.524 243.657C77.1817 243.67 75.4979 243.815 75.464 243.306C75.2667 240.426 75.1988 237.083 75.3777 234.193L76.716 233.762C76.8116 232.491 76.4447 226.684 77.1138 226.092C77.4222 225.818 78.0575 225.719 78.4615 225.611C78.5293 223.745 78.3967 221.442 78.5447 219.672C78.9148 219.521 79.7659 219.28 79.9232 218.892C80.4906 217.504 79.3866 211.965 80.5399 211.438C80.8884 211.278 81.3294 211.204 81.7025 211.111C81.7642 209.924 81.9153 204.287 81.5452 203.494C80.8853 203.001 75.3006 203.186 74.2027 203.217C72.9446 203.79 74.2798 205.61 73.1296 206.288C72.7965 206.486 72.3062 206.439 72.0873 206.754C71.7141 208.058 72.041 210.279 72.0163 211.713C71.9978 212.702 71.967 213.276 71.8436 214.278L70.5361 214.815C70.4251 215.971 70.6934 222 70.2062 222.441C69.7929 222.666 69.2934 222.725 68.8277 222.811C68.6828 224.501 68.9264 227.502 68.6488 228.899L67.2457 229.275C67.0823 231.369 67.3876 235.134 67.0761 236.898C66.5673 237.046 66.0862 237.185 65.5712 237.308C65.3708 239.226 65.525 242.291 65.4818 244.308C65.4571 245.449 65.4355 249.057 65.5897 249.933C66.8263 250.297 66.9528 250.235 67.3228 251.496C68.5748 251.922 68.5995 251.941 68.9449 253.22C70.3758 253.464 72.0194 253.436 73.4503 253.22C73.9314 250.895 74.6437 251.907 76.605 251.617L77.0552 250.3C77.4469 250.195 78.0606 250.05 78.4244 249.918C78.4861 249.122 78.3874 247.583 78.7513 247.043C79.0196 246.889 79.0905 246.828 79.4113 246.831C80.7342 247.518 79.6456 250.84 80.3086 251.506C80.8853 251.802 86.8925 251.811 87.645 251.561C87.8331 251.5 87.8978 251.453 87.9903 251.265C88.5978 250.001 87.4137 244.16 88.5639 243.704C88.9093 243.568 89.378 243.54 89.745 243.488C89.927 241.271 89.6001 237.734 89.9146 235.785C90.3926 235.612 90.8274 235.458 91.3147 235.313C91.3856 233.743 91.2561 230.585 91.4781 229.275L93.0046 228.88L92.9922 228.883Z" fill="#6A110B"/>
<g clip-path="url(#clip0_1_95)">
<path d="M70.2067 173.969V170.896H66.6228V166.799H63.0456V163.217H57.8971V159.636H52.976V156.048H48.7301V152.46H44.638V148.871H41.0608V145.283H37.4836V137.612H59.4684V134.03H55.8845V130.442H52.3073V126.854H48.7301V123.266H44.638V119.677H41.0608V112.006H37.4836V104.849H55.8912V97.6932H52.3073V94.1118H48.7234V86.4467H44.6314V82.8653H41.0475V75.709H37.4636V72.1275H33.8997V68.5528H66.6228V28.2194H70.2067V31.8008H74.3055V35.3823H77.8894V38.9638H81.4733V46.6288H85.0572V50.2103H88.6411V53.7917H92.225V57.3732H95.8089V64.5295H99.901V68.6197H132.624V60.948H136.208V57.3665H139.792V53.785H143.376V46.6288H146.96V43.0473H151.058V38.9571H154.642V35.3756H158.226V31.7941H161.81V28.2127H165.394V68.613L165.488 71.2305L227.778 72.1945H229.281V75.4305H244.628V85.6702L238.516 85.6033V89.1914H234.939V97.7669H222.115V101.348H218.537V114.764H207.13V118.419H203.553L203.6 124.993L194.547 125.06V130.502L203.653 130.703L203.801 134.412L207.478 134.479L207.558 137.344L219.567 137.424L219.741 147.995L222.315 148.189V151.589H234.698V159.649H234.939V163.231H238.523V166.812H244.634V173.969H70.2067ZM110.599 126.921C109.409 126.921 106.27 126.921 105.08 126.921V123.333H101.206V119.744H97.8163V112.073H77.876V119.744H81.4532V126.901H88.6143V130.482H95.7755V134.064H107.022V130.482H110.606C110.633 129.291 110.572 128.092 110.606 126.901C111.796 126.901 113 126.901 114.19 126.901V112.066H110.606C110.506 117 110.746 121.967 110.606 126.901L110.599 126.921ZM168.891 126.921C166.511 126.988 164.11 126.874 161.73 126.921V123.333H158.153V119.744H154.575V112.073H136.168V115.654H139.745V123.326H143.329V126.907H146.913V130.482H154.582V134.064H165.32V130.482H168.904C168.931 129.291 168.871 128.092 168.904 126.901C170.095 126.867 171.298 126.927 172.488 126.901V115.647H168.904C168.831 119.39 169.011 123.165 168.904 126.901L168.891 126.921Z" fill="#6A110B"/>
</g>
<defs>
<clipPath id="clip0_1_95">
<rect width="214.992" height="145.749" fill="white" transform="translate(33.9019 28.2192)"/>
</clipPath>
</defs>
</svg>
