<svg width="279" height="279" viewBox="0 0 279 279" fill="none" xmlns="http://www.w3.org/2000/svg">
<rect width="278.753" height="278.753" fill="#D9BFB6"/>
<path d="M133.061 228.708C133.36 226.417 133.126 224.706 133.32 222.747L134.695 222.3C134.751 220.968 134.603 215.439 134.886 214.699C135.229 214.393 135.923 214.282 136.401 214.15C136.45 212.025 136.527 208.571 136.388 206.508C132.53 205.712 136.755 203.649 133.403 202.943C133.23 202.431 133.113 201.842 132.62 201.626C131.676 201.21 129.73 201.472 128.633 201.503V201.509C127.587 205.173 125.817 201 124.898 204.584C124.294 204.716 124.035 204.689 123.606 205.182C122.924 205.972 124.204 208.355 122.323 207.819C121.188 207.072 122.258 203.93 121.583 203.258C120.855 202.857 119.909 203.245 119.162 202.983C117.864 202.527 119.912 201.284 115.604 201.503C115.434 202.012 115.252 202.515 115.064 203.014C113.257 203.131 112.517 202.508 112.005 204.451C109.115 205.127 111.231 206.961 110.121 207.846C109.76 207.911 109.673 207.945 109.328 207.831C108.036 206.835 110.047 203.104 107.894 203.125C106.799 203.134 103.238 202.752 102.562 203.511C102.189 204.581 103.148 206.113 101.446 206.403C101.113 206.462 101.122 206.465 100.885 206.699C100.743 207.251 100.817 208.167 100.798 208.762C100.74 210.446 100.916 212.614 100.709 214.248C100.293 214.35 99.6542 214.489 99.2626 214.615C99.1022 215.759 99.3921 221.958 98.9203 222.294C98.5749 222.538 98.1 222.621 97.6991 222.729C97.4123 224.937 97.8256 227.959 97.5419 230.284C97.0639 230.435 96.3484 230.586 96.0555 230.938C95.6484 231.86 95.9969 234.293 95.9568 235.4C95.9013 236.964 95.9229 236.816 94.5012 237.337C94.4026 238.731 94.6092 244.133 94.2823 244.861C93.9338 245.148 93.2739 245.219 92.8021 245.318C92.7373 246.341 92.5862 250.529 92.9378 251.294C93.4466 251.744 99.167 251.608 100.086 251.55C100.253 251.538 100.422 251.522 100.589 251.504L100.928 250.178C101.375 250.082 101.924 250.014 102.269 249.737C102.661 249.089 102.402 243.606 102.519 242.206L103.962 241.756C104.194 239.455 103.919 236.492 104.076 234.071C104.613 233.914 105.153 233.763 105.692 233.621C105.735 232.298 105.649 228.665 105.825 227.632C106.22 227.484 106.895 227.247 107.259 227.077C107.385 225.109 107.132 221.048 107.41 219.466C107.882 219.337 108.363 219.213 108.828 219.068C108.983 217.536 108.819 216.049 108.995 214.572L110.454 214.153C110.503 213.246 110.318 212.05 110.765 211.436C111.82 210.68 112.14 211.889 112.372 212.623C112.853 212.771 113.42 212.876 113.667 213.366C113.895 213.823 113.904 214.93 113.738 215.411C113.685 215.562 113.568 215.726 113.42 215.79C113.004 215.969 112.412 216.031 112.214 216.487C111.693 217.702 112.655 223.565 111.724 223.965C111.388 224.11 110.91 224.079 110.67 224.382C110.299 225.483 110.901 229.979 110.127 230.38C109.738 230.583 109.195 230.596 109.041 231.08C108.514 232.711 109.316 236.236 108.927 238.009C108.875 238.24 108.751 238.419 108.542 238.536C108.19 238.734 107.728 238.669 107.472 239.024C107.086 240.593 107.558 244.519 107.247 246.468C106.772 246.628 106.291 246.779 105.809 246.918C105.597 247.822 105.473 250.483 105.939 251.288C106.58 251.747 113.655 251.593 114.922 251.547C116.045 250.714 114.697 245.049 115.628 243.705C115.764 243.51 116.751 243.424 116.964 243.399C117.312 241.093 116.751 238.175 117.133 236.088C117.173 235.869 117.229 235.715 117.417 235.582C117.842 235.283 118.527 235.428 118.635 234.756C118.832 233.544 118.256 228.162 118.931 227.626C119.239 227.379 119.804 227.317 120.186 227.188C120.269 225.754 120.118 222.112 120.356 221.039L121.777 220.567C121.814 219.186 121.706 215.655 121.928 214.606C122.372 214.474 122.817 214.332 123.264 214.23C123.39 213.851 123.554 213.311 123.695 212.95L124.957 212.595C125.062 212.167 125.132 211.643 125.441 211.353C125.839 211.189 125.684 211.199 126.11 211.248C126.344 211.402 126.634 211.695 126.668 212.167C126.767 213.564 126.822 215.957 126.563 217.301C126.511 217.573 125.348 217.718 125.268 218.035C124.843 219.688 125.351 221.517 125.111 223.259C124.92 224.631 123.578 223.577 123.473 224.77C123.291 226.833 123.748 229.88 123.276 231.841C123.239 231.996 122.194 232.347 121.938 232.433C121.648 234.148 121.91 237.987 121.771 240.06L120.343 240.448C120.134 242.931 120.439 245.697 120.201 248.198C119.671 248.29 119.107 248.296 118.792 248.697C118.623 249.111 118.475 251.445 119.03 251.451C121.182 251.47 126.307 251.923 128.173 251.34C128.568 250.865 128.346 246.499 128.454 245.373C128.861 245.216 129.555 244.972 129.925 244.79C129.974 243.578 129.829 237.963 130.11 237.331C130.458 237.01 131.007 236.939 131.488 236.819C131.744 234.46 131.386 231.585 131.649 229.171C132.12 229.02 132.592 228.866 133.064 228.711L133.061 228.708Z" fill="#6A110B"/>
<path d="M161.49 228.73C161.568 227.586 161.398 223.426 161.716 222.812C162.086 222.504 162.718 222.445 163.208 222.356C163.322 220.092 163.079 216.598 163.341 214.575L164.657 214.144C164.873 211.966 164.812 208.691 164.657 206.443L163.359 206.033C163.285 205.216 163.365 203.819 162.881 203.313C162.129 202.894 161.148 203.085 160.257 203.02C159.871 201.781 159.372 201.031 157.737 201.377C156.828 201.568 156.692 202.206 156.439 203.027C155.529 203.057 154.527 203.067 153.636 203.218C153.405 203.918 153.352 204.3 152.732 204.707C151.992 204.772 151.792 203.406 151.826 202.912C151.894 201.901 151.622 197.522 152.023 196.877C152.412 196.628 152.88 196.52 153.325 196.39C153.436 195.4 153.158 190.833 153.695 190.408C154.04 190.133 154.638 190.031 155.061 189.883C155.092 189.165 155.236 187.712 154.916 187.12C154.361 186.726 146.984 186.849 145.769 186.895C144.696 187.836 146.01 191.965 145.088 193.177C144.964 193.337 144.129 193.565 143.891 193.643C143.771 194.706 144.113 199.107 143.484 199.616C143.163 199.875 142.565 199.983 142.171 200.103C142.059 202.024 142.291 206.175 142.007 207.714C141.671 207.819 140.891 208.041 140.601 208.164C140.385 210.347 140.74 213.841 140.444 215.679C140.129 215.781 139.09 216.068 139.025 216.327C138.606 217.989 138.933 220.502 138.769 222.291C138.368 222.427 137.795 222.599 137.418 222.769C137.295 223.864 137.647 229.849 137.005 230.312C136.543 230.645 135.843 230.488 135.704 231.203C135.439 232.569 136.188 237.858 135.263 238.515C134.991 238.709 134.464 238.789 134.143 238.882C134.032 240.094 134.362 246.03 133.733 246.492C133.261 246.838 132.679 246.699 132.534 247.411C132.395 248.093 132.441 250.572 132.611 251.226C133.141 251.769 137.785 251.593 138.726 251.494L139.077 250.175C139.491 250.06 140.077 249.919 140.465 249.774C140.542 248.318 140.505 246.872 140.505 245.416C140.505 244.664 140.397 243.674 141.384 243.554C143.145 244.263 141.245 248.799 142.565 249.894C142.593 249.919 143.382 250.178 143.537 250.239C143.7 250.625 143.857 250.992 143.987 251.39C144.329 251.513 144.878 251.695 145.193 251.837C145.307 252.293 145.427 252.753 145.547 253.209C146.855 253.277 148.526 253.305 149.831 253.209L149.883 253.141C150.358 252.512 150.367 251.525 151.302 251.482C152.748 251.414 153.38 252.191 153.59 250.168C153.988 250.079 154.709 249.94 155.07 249.82C155.095 248.984 155.092 247.794 155.237 247.001L156.655 246.385C156.674 245.586 156.674 244.46 156.8 243.695C157.266 243.581 157.731 243.458 158.203 243.369C158.36 242.089 158.101 237.904 158.521 237.3C158.993 237.01 159.434 237.013 159.942 236.865C160.056 235.493 159.844 229.96 160.171 229.226C160.51 228.949 161.068 228.844 161.506 228.727L161.49 228.73ZM150.54 204.821C152.362 204.692 152.14 206.992 151.4 207.822C149.646 208.093 150.056 205.429 150.54 204.821ZM155.033 217.163C154.811 217.678 154.244 217.514 153.827 217.702C152.884 218.128 153.827 224.033 153.281 225.31C153.13 225.662 152.353 225.88 152.017 226.016C151.838 227.774 152.06 230.022 151.906 231.928C151.379 232.073 150.848 232.181 150.318 232.298C150.225 233.584 150.429 239.323 150.102 239.986C149.769 240.257 149.269 240.325 148.841 240.424L148.511 241.642C148.119 241.802 147.589 241.975 147.179 242.123C147.006 242.681 146.929 243.011 146.617 243.507C145.433 243.532 145.482 243.19 145.223 242.151C144.804 242.055 144.28 241.984 143.968 241.71C143.632 241.006 143.78 236.578 143.86 235.616C144.212 235.499 145.168 235.354 145.273 234.959C145.738 233.229 144.934 229.257 145.501 227.743C145.708 227.472 146.522 227.284 146.92 227.151C146.994 225.523 146.796 222.572 147.074 221.107C147.586 220.977 148.079 220.829 148.582 220.678C148.739 219.312 148.585 217.752 148.73 216.253L150.043 215.83C150.278 213.857 149.405 213.107 151.662 212.589C151.807 212.01 151.854 211.587 152.273 211.177H152.276C153.399 211.229 153.383 211.609 153.682 212.565C154.17 212.734 154.666 212.861 154.971 213.274C155.24 214.097 155.375 216.348 155.03 217.153L155.033 217.163Z" fill="#6A110B"/>
<path d="M66.4017 202.817C66.8889 202.626 67.3761 202.441 67.8695 202.262C67.9374 201.389 67.9497 200.581 67.9651 199.708C68.3876 199.529 68.9365 199.317 69.3405 199.125L69.7167 197.92C70.133 197.775 70.6573 197.611 71.0582 197.454C71.0983 195.462 70.6419 195.002 72.6247 194.312C72.6525 193.578 72.671 192.283 72.782 191.601L74.1975 191.151C74.2591 190.568 74.4688 189.301 74.1204 188.798C73.9014 188.48 73.2415 188.422 72.8807 188.385C71.9802 188.292 65.3902 188.221 65.017 188.523C64.8197 188.681 64.7888 189.023 64.7796 189.257C64.758 189.748 64.8783 190.793 64.5205 191.145C64.2492 191.413 63.6263 191.493 63.2593 191.579C63.2007 193.356 63.6047 194.173 61.7821 194.817C61.6588 195.157 61.4707 195.739 61.3288 196.051C58.3376 197.022 61.7667 198.45 58.6521 199.625L58.4763 199.69C58.4177 201.42 58.9235 202.265 57.0609 202.78L56.6261 203.881C56.2344 204.013 55.7133 204.171 55.3432 204.316C55.2877 205.164 55.374 206.483 54.8837 207.091C54.5168 207.282 54.6679 207.242 54.2577 207.208C53.5053 206.761 53.6101 205.58 53.6225 204.803C53.644 203.566 53.5978 202.289 53.7859 201.065L54.6586 201.071C54.9238 201.071 55.1397 200.865 55.1489 200.6C55.1952 198.987 55.1551 195.937 55.3432 194.972C55.6392 194.817 55.8089 194.805 56.0062 194.777C56.293 194.734 56.5058 194.487 56.5058 194.198L56.4811 188.56C55.8767 188.002 50.4061 188.209 49.336 188.246C48.9629 188.505 48.8333 189.183 48.6761 189.661L47.5597 189.816L47.091 195.977C46.9615 196.162 46.3817 196.31 46.1412 196.375C46.0394 196.403 45.9377 196.43 45.8359 196.458C45.5738 198.336 45.8359 201.71 45.691 203.856L44.257 204.248C44.1614 205.284 44.4729 209.715 43.8993 210.243C43.3966 210.699 42.7059 210.32 42.6041 211.245C42.4715 212.435 42.9495 217.563 42.2556 218.174C41.8146 218.563 41.1393 218.402 41.0437 219.149C40.9111 220.182 41.3367 225.628 40.7631 226.078C40.467 226.312 39.8441 226.355 39.471 226.426C39.4 228.067 39.5203 230.978 39.3291 232.4C38.8604 232.532 38.3886 232.652 37.9137 232.763C37.8026 234.746 38.037 238.712 37.7471 240.343C37.2722 240.528 36.7912 240.698 36.307 240.852C36.0788 243.032 36.3409 245.9 36.1929 248.198C35.7612 248.296 35.1629 248.38 34.87 248.676C34.5986 249.163 34.54 251.038 34.9563 251.43C35.9493 251.664 42.9063 251.639 43.9301 251.362C44.3495 250.89 44.0936 248.099 44.2354 247.103C44.7011 246.94 45.2531 246.764 45.7033 246.585C45.7403 245.503 45.509 239.662 45.9623 239.221C46.2954 238.9 46.8505 238.801 47.2822 238.66C47.313 237.466 47.2637 235.493 47.421 234.419L48.8364 233.957C48.9166 233.059 48.7778 231.863 49.2435 231.268C49.632 231.089 49.4748 231.123 49.9003 231.163C50.9426 231.767 50.4523 234.404 50.5973 235.594C50.8995 235.712 51.9017 236.066 51.948 236.328C52.3458 238.774 51.9356 242.582 52.1361 244.981C52.6572 245.222 53.4744 245.496 53.6348 246.03C54.0234 247.316 53.3511 250.178 53.8692 251.315C55.1458 251.852 61.1808 251.537 62.8214 251.405C63.1853 251.377 63.0897 249.348 63.0866 248.972C63.1668 247.63 63.2531 245.321 63.1298 243.982C62.9108 243.924 61.8161 243.674 61.776 243.449C61.2548 240.655 61.85 237.54 61.5231 234.691C61.4738 234.268 60.231 234.33 60.157 233.966C59.6821 231.607 60.3883 228.859 59.8517 226.509C59.8301 226.423 59.4107 226.275 59.272 226.235C59.0129 226.161 58.7508 226.09 58.4887 226.022C58.4362 224.977 58.3191 217.616 58.5812 217.067C58.905 216.755 59.494 216.651 59.9566 216.509C60.1262 214.504 59.4354 213.999 61.5632 213.299C61.6218 211.362 61.15 210.782 63.1483 210.144C63.1668 209.345 63.1575 208.192 63.2963 207.433L64.6038 207.045L65.017 205.919L66.2999 205.589C66.3554 204.766 66.3369 203.557 66.414 202.817H66.4017ZM53.1784 210.301C52.833 210.489 52.3982 210.36 52.2132 210.011C52.0281 209.663 52.1577 209.231 52.503 209.046C52.8484 208.858 53.2802 208.991 53.4652 209.336C53.6533 209.681 53.5207 210.113 53.1753 210.301H53.1784Z" fill="#6A110B"/>
<path d="M184.03 250.81C184.375 248.787 182.775 247.325 185.473 246.468C185.636 245.231 185.325 241.077 185.781 240.522C186.176 240.266 186.74 240.165 187.206 240.047C187.292 237.975 187.083 234.108 187.354 232.326L188.776 231.894C188.958 229.556 188.698 227.17 188.887 224.835C188.939 224.184 189.818 224.049 190.339 223.873C190.506 222.615 190.225 218.467 190.657 217.863C191.017 217.607 191.514 217.533 191.952 217.431C192.081 215.991 192.186 207.856 191.918 206.693C191.622 206.339 191.064 206.286 190.601 206.197C190.502 205.805 190.382 205.262 190.259 204.892L189.087 204.513C188.921 204.1 188.72 203.569 188.538 203.175C187.548 203.06 186.79 203.088 185.868 203.014C185.781 202.703 185.541 201.691 185.288 201.627C184.107 201.318 180.881 201.445 179.709 201.516V201.525C179.197 201.805 179.04 202.468 178.83 203.033C176.934 203.088 176.286 202.564 175.753 204.528C175.318 204.658 174.886 204.794 174.445 204.898L174.084 206.221C173.721 206.295 173.181 206.391 172.835 206.49L172.506 207.757C172.092 207.865 171.451 208.013 171.068 208.158C171.025 208.904 171.01 210.076 170.924 210.773C170.43 211.01 169.601 211.322 169.483 211.859C169.289 212.747 169.308 214.853 169.699 215.639C170.134 216.154 176.323 215.954 177.298 215.871C177.424 215.454 177.597 214.933 177.689 214.517C178.115 214.418 178.661 214.307 179.065 214.184C179.099 212.774 178.698 209.962 182.121 211.559C182.512 211.741 182.29 217.878 182.247 218.609C182.235 219.136 181.186 219.361 180.77 219.503C180.665 220.755 181.196 224.039 179.768 224.212C178.553 223.719 179.611 221.384 178.639 220.922C178.42 220.817 177.967 220.709 177.714 220.647L177.319 219.454C175.956 219.337 172.712 219.315 171.3 219.435L170.856 220.715L169.576 221.088C169.449 221.505 169.305 221.952 169.2 222.374L167.994 222.68C167.88 223.062 167.744 223.555 167.615 223.922C167.217 224.033 166.668 224.163 166.289 224.292C166.137 226.297 166.785 226.901 164.713 227.681C164.602 230.065 165.585 231.755 163.051 232.418C162.755 234.268 163.236 236.365 162.884 238.111C162.841 238.324 162.767 238.444 162.588 238.561C162.221 238.808 161.595 238.613 161.453 239.147C161.262 239.869 161.237 247.643 161.496 248.068C161.53 248.127 161.524 248.111 161.592 248.161C163.584 248.71 162.779 249.632 162.995 251.353C163.415 251.522 164.293 251.88 164.734 251.985C165.53 252.173 168.728 252.315 169.354 251.951C171.328 250.807 172.228 252.75 172.829 250.215L174.094 249.835L174.371 248.497C174.766 248.429 175.509 248.321 175.87 248.226C175.944 247.331 175.802 245.879 176.249 245.287C178.3 244.106 177.267 250.39 177.572 251.09C177.822 251.664 179.413 251.649 180.104 251.624C181.149 251.587 183.567 252.043 184.027 250.81H184.03ZM179.062 234.873C178.8 235.305 178.075 235.536 177.591 235.742C177.477 236.766 177.581 237.651 177.597 238.666C177.615 239.98 177.236 240.168 176.129 240.408L175.774 241.691C175.213 241.845 174.618 241.885 174.353 242.419C173.986 243.76 173.6 243.501 172.33 243.547C171.92 243.563 171.63 243.514 171.309 243.251C170.85 242.348 170.871 237.127 171.158 235.946C171.352 235.594 172.197 235.277 172.604 235.092C172.731 234.151 172.672 232.026 172.718 230.904C173.098 230.762 173.643 230.611 174.044 230.488C174.078 230.349 174.112 230.21 174.149 230.071C174.291 229.519 174.306 229.251 174.797 228.958C176.524 228.872 177.131 228.533 177.699 230.364C178.044 230.485 178.861 230.762 178.975 231.067C179.271 231.866 179.231 234.12 179.065 234.873H179.062Z" fill="#6A110B"/>
<path d="M243.343 206.493L241.899 206.156L241.532 204.935L240.447 204.463C240.29 204.084 240.08 203.541 239.904 203.184C238.893 203.06 238.171 203.088 237.215 203.02C237.086 202.561 236.956 201.827 236.568 201.592C235.778 201.377 232.028 201.444 231.063 201.518C230.486 201.83 230.385 202.404 230.166 203.036C228.248 203.088 227.572 202.539 227.008 204.531L225.83 204.923L225.457 206.197L224.149 206.456L223.804 207.723C223.412 207.849 222.777 208.028 222.416 208.183C222.314 210.215 222.857 210.609 220.85 211.454C220.806 212.494 220.64 214.742 221.022 215.624C221.639 216.145 227.455 215.954 228.494 215.867C228.547 215.864 228.599 215.858 228.648 215.855L229.006 214.507C229.426 214.415 230.052 214.295 230.446 214.159C230.48 213.558 230.332 211.686 230.887 211.371C231.421 211.066 232.997 211.072 233.481 211.544C233.761 212.376 233.795 218.291 233.502 218.942C232.759 219.679 232.133 218.692 232.121 220.65C232.115 221.551 232.509 224.2 231.202 224.042C230.872 224.002 230.847 223.959 230.625 223.749C230.073 222.334 231.412 221.261 229.062 220.675L228.618 219.451C227.304 219.337 223.893 219.327 222.573 219.445L222.16 220.678L220.967 221.107C220.85 221.532 220.723 221.964 220.618 222.393L219.354 222.664L218.975 223.897C218.605 224.009 218.059 224.153 217.707 224.286C217.655 224.866 217.698 226.802 217.377 227.102C216.952 227.493 216.107 227.219 215.928 228.098C215.73 229.072 216.282 231.431 215.595 232.07C215.262 232.378 214.571 231.971 214.352 233.016C214.121 234.133 214.685 237.707 214.093 238.416C213.664 238.721 212.665 238.734 212.696 239.375C212.761 240.661 212.388 247.279 212.801 248.077L212.924 248.173C214.842 248.67 214.306 249.601 214.355 251.272C217.975 253.067 220.076 251.719 223.739 251.513L224.146 250.199C224.562 250.085 225.056 249.962 225.46 249.832L225.756 248.512L227.144 248.216C227.181 247.239 226.946 245.428 228.09 245.191C230.052 245.641 227.973 251.241 229.549 251.5C230.801 251.704 233.953 251.722 235.189 251.439C235.263 250.036 235.18 248.247 235.343 246.952C235.732 246.841 236.568 246.665 236.793 246.354C237.551 245.293 236.108 240.491 237.662 240.291C237.715 240.285 238.316 240.1 238.443 240.057C238.699 237.664 238.319 234.678 238.6 232.341C239.124 232.193 239.651 232.06 240.182 231.94C240.324 229.695 240.049 226.365 240.308 224.342C240.789 224.172 241.27 224.012 241.758 223.857C241.85 222.346 241.684 219.053 241.924 217.856C242.393 217.715 242.865 217.579 243.34 217.449C243.469 215.67 243.398 213.314 243.404 211.498C243.407 210.147 243.466 207.785 243.34 206.499L243.343 206.493ZM230.258 235.018C230.184 235.283 228.981 235.496 228.991 236.001C228.895 236.828 228.975 237.731 228.982 238.567C228.991 240.161 228.886 240.161 227.384 240.365L227.054 241.679C226.462 241.864 226.024 241.913 225.713 242.428C225.253 243.865 224.763 243.47 223.412 243.535C223.153 243.547 222.845 243.467 222.672 243.273C222.24 242.252 222.234 237.355 222.496 236.023C222.564 235.681 223.52 235.286 223.881 235.11C224.001 234.052 223.936 232.091 223.983 230.882C224.353 230.747 225 230.574 225.398 230.457C225.555 229.948 225.707 229.232 226.114 228.949C227.856 228.865 228.547 228.52 229.111 230.38C229.558 230.546 230.301 230.719 230.345 231.289C230.431 232.387 230.554 233.954 230.255 235.018H230.258Z" fill="#6A110B"/>
<path d="M213.921 225.501C213.97 224.166 213.905 222.414 214.066 221.172L215.484 220.65C215.574 219.602 215.503 218.732 215.493 217.693C215.481 216.318 215.885 216.089 217.054 215.753C217.282 213.305 216.582 213.505 218.815 212.469C218.858 211.232 218.784 209.41 218.886 208.294C219.376 208.072 219.869 207.862 220.369 207.668C220.381 207.187 220.313 205.262 220.687 204.979C221.223 204.571 222.598 204.683 221.988 203.372C221.902 203.19 221.609 203.141 221.43 203.119C219.953 203.11 213.702 202.875 212.65 203.258C212.151 203.72 212.299 205.426 212.231 206.11L210.939 206.505C210.855 207.082 210.781 208.917 210.377 209.336C210.1 209.623 209.141 209.592 209.15 210.372C209.005 211.649 209.249 212.87 208.916 214.128L207.59 214.665C207.473 217.064 208.425 218.649 205.906 219.593C205.875 220.527 205.989 223.056 205.693 223.706C204.848 224.48 204.194 223.756 204.204 222.843C204.219 221.455 204.241 220.068 204.241 218.677V208.309C204.241 206.983 204.349 204.599 204.028 203.39C203.886 202.851 197.614 203.06 196.827 203.085C196.389 203.252 196.248 203.387 196.229 203.918C196.096 207.677 196.386 211.501 196.177 215.251C196.133 215.981 195.267 216.052 194.613 216.274C194.422 218.134 194.536 221.97 194.539 223.999V242.15C194.533 243.825 194.533 245.499 194.545 247.174C194.558 248.266 194.582 249.348 194.545 250.44C194.508 251.602 193.947 251.501 192.982 251.803C192.951 252.521 192.936 253.934 192.815 254.59C192.393 254.729 191.973 254.874 191.545 254.988C191.415 255.423 191.307 255.966 191.008 256.287C190.641 256.453 190.576 256.493 190.179 256.475C189.087 255.827 190.092 254.199 189.266 253.416C188.621 253.234 182.497 253.231 182.016 253.477C181.402 254.285 181.526 261.399 181.649 262.639C183.034 263.096 183.064 263.068 183.351 264.483C185.386 264.727 185.966 263.965 186.703 266.13C187.943 266.167 189.932 266.226 191.132 266.087C191.261 265.609 191.394 265.128 191.529 264.65C192.294 264.607 193.657 264.597 194.336 264.505C194.545 263.666 194.499 263.419 195.125 262.978C196.066 262.312 197.484 263.478 197.7 262.386C197.839 261.689 197.734 260.73 197.851 259.916C198.332 259.737 198.77 259.577 199.26 259.42L199.646 258.214L200.889 257.788C200.916 256.99 200.926 255.864 201.034 255.099L202.483 254.637C202.668 253.758 202.452 250.56 203.013 250.178C203.562 249.804 204.046 249.919 204.201 249.157C204.429 248.034 204.204 246.727 204.256 245.573C204.484 245.197 205.326 245.046 205.789 244.92C205.804 244.18 205.795 242.869 205.891 242.178C206.295 242.039 207.069 241.793 207.432 241.629C207.565 240.732 207.543 239.939 207.497 239.036C207.411 237.435 207.63 237.195 209.036 236.769C209.085 235.955 209.079 234.793 209.15 234.043C209.631 233.871 210.183 233.689 210.652 233.507C210.714 232.569 210.695 231.746 210.64 230.808C210.553 229.273 210.991 229.115 212.222 228.634C212.305 226.593 211.707 225.958 213.921 225.492V225.501ZM203.658 228.93C203.383 229.007 203.087 228.933 202.884 228.733C202.68 228.532 202.6 228.24 202.674 227.962C202.748 227.688 202.967 227.472 203.242 227.401C203.661 227.293 204.09 227.543 204.204 227.959C204.318 228.375 204.074 228.807 203.658 228.927V228.93Z" fill="#6A110B"/>
<path d="M92.9901 228.755C93.2707 226.476 92.9038 223.398 93.1412 221.005C93.6223 220.851 94.1095 220.709 94.5968 220.579C94.6985 219.445 94.6584 218.128 94.6523 216.975C94.6523 216.305 94.6615 215.5 94.6091 214.847C94.4765 213.206 94.7448 212.981 96.1818 212.562C96.3453 210.166 96.0955 207.711 96.2589 205.318C96.2805 205.003 97.7761 204.417 97.8995 203.606C97.3382 202.601 92.6756 203.258 91.4174 203.07C90.8561 202.987 88.9318 203.014 88.4107 203.261C87.797 203.939 88.2812 206.348 88.0653 207.295C87.9204 207.924 86.6992 207.884 86.6067 208.473C86.2705 210.625 86.6992 212.996 86.4926 215.195C86.3816 216.376 85.0771 215.519 84.9723 216.753C84.7811 218.936 85.2683 221.634 84.8027 223.74C84.7533 223.969 83.7079 224.178 83.4242 224.249L83.4304 224.255C83.1744 226.676 83.5506 229.646 83.2669 231.999L81.8576 232.415C81.8083 233.13 81.9625 238.265 81.4413 238.398C78.2835 239.193 81.8176 241.46 78.7091 241.993C78.484 242.647 78.3545 243.501 77.5218 243.529C77.1795 243.541 75.4958 243.686 75.4619 243.177C75.2645 240.297 75.1967 236.954 75.3755 234.065L76.7139 233.633C76.8095 232.363 76.4425 226.556 77.1117 225.964C77.4201 225.689 78.0553 225.591 78.4593 225.483C78.5272 223.617 78.3946 221.313 78.5426 219.543C78.9126 219.392 79.7638 219.152 79.921 218.763C80.4884 217.375 79.3844 211.837 80.5378 211.31C80.8863 211.149 81.3272 211.075 81.7004 210.983C81.762 209.795 81.9132 204.158 81.5431 203.366C80.8832 202.872 75.2984 203.057 74.2006 203.088C72.9424 203.662 74.2777 205.481 73.1275 206.16C72.7944 206.357 72.3041 206.311 72.0851 206.625C71.712 207.93 72.0389 210.15 72.0142 211.584C71.9957 212.574 71.9649 213.148 71.8415 214.15L70.534 214.686C70.423 215.843 70.6913 221.872 70.204 222.313C69.7908 222.538 69.2912 222.596 68.8256 222.683C68.6806 224.373 68.9243 227.373 68.6467 228.77L67.2436 229.146C67.0802 231.24 67.3854 235.005 67.074 236.769C66.5652 236.917 66.0841 237.056 65.5691 237.179C65.3686 239.098 65.5228 242.163 65.4797 244.18C65.455 245.321 65.4334 248.929 65.5876 249.805C66.8242 250.168 66.9506 250.107 67.3207 251.368C68.5727 251.794 68.5974 251.812 68.9428 253.092C70.3736 253.335 72.0173 253.308 73.4482 253.092C73.9292 250.767 74.6416 251.778 76.6029 251.488L77.0531 250.171C77.4448 250.067 78.0584 249.922 78.4223 249.789C78.484 248.993 78.3853 247.455 78.7492 246.915C79.0175 246.761 79.0884 246.699 79.4091 246.702C80.7321 247.39 79.6435 250.711 80.3065 251.377C80.8832 251.673 86.8904 251.683 87.6428 251.433C87.8309 251.371 87.8957 251.325 87.9882 251.137C88.5957 249.872 87.4115 244.032 88.5618 243.575C88.9072 243.44 89.3759 243.412 89.7429 243.359C89.9248 241.142 89.5979 237.605 89.9125 235.656C90.3905 235.483 90.8253 235.329 91.3125 235.184C91.3835 233.615 91.2539 230.457 91.476 229.146L93.0024 228.752L92.9901 228.755Z" fill="#6A110B"/>
<g clip-path="url(#clip0_1_31)">
<path d="M70.2068 173.969V170.896H66.6229V166.799H63.0457V163.218H57.8972V159.636H52.976V156.048H48.7302V152.46H44.6381V148.872H41.0609V145.283H37.4837V137.612H59.4685V134.03H55.8846V130.442H52.3074V126.854H48.7302V123.266H44.6381V119.678H41.0609V112.006H37.4837V104.85H55.8913V97.6934H52.3074V94.1119H48.7235V86.4469H44.6314V82.8654H41.0475V75.7091H37.4636V72.1277H33.8998V68.5529H66.6229V28.2195H70.2068V31.8009H74.3056V35.3824H77.8895V38.9639H81.4734V46.6289H85.0573V50.2104H88.6412V53.7919H92.225V57.3733H95.8089V64.5296H99.901V68.6198H132.624V60.9481H136.208V57.3666H139.792V53.7852H143.376V46.6289H146.96V43.0474H151.058V38.9572H154.642V35.3757H158.226V31.7943H161.81V28.2128H165.394V68.6131L165.488 71.2306L227.778 72.1946H229.281V75.4306H244.628V85.6703L238.516 85.6034V89.1915H234.939V97.767H222.115V101.348H218.537V114.764H207.13V118.419H203.553L203.6 124.993L194.547 125.06V130.502L203.654 130.703L203.801 134.412L207.478 134.479L207.558 137.344L219.567 137.424L219.741 147.995L222.315 148.189V151.59H234.698V159.649H234.939V163.231H238.523V166.812H244.634V173.969H70.2068ZM110.599 126.921C109.409 126.921 106.27 126.921 105.08 126.921V123.333H101.206V119.745H97.8164V112.073H77.8761V119.745H81.4533V126.901H88.6144V130.482H95.7755V134.064H107.022V130.482H110.606C110.633 129.291 110.572 128.092 110.606 126.901C111.796 126.901 113 126.901 114.19 126.901V112.066H110.606C110.506 117 110.746 121.967 110.606 126.901L110.599 126.921ZM168.891 126.921C166.511 126.988 164.11 126.874 161.73 126.921V123.333H158.153V119.745H154.576V112.073H136.168V115.654H139.745V123.326H143.329V126.907H146.913V130.482H154.582V134.064H165.321V130.482H168.904C168.931 129.291 168.871 128.092 168.904 126.901C170.095 126.867 171.298 126.928 172.488 126.901V115.648H168.904C168.831 119.39 169.011 123.165 168.904 126.901L168.891 126.921Z" fill="#6A110B"/>
</g>
<defs>
<clipPath id="clip0_1_31">
<rect width="214.992" height="145.749" fill="white" transform="translate(33.902 28.2194)"/>
</clipPath>
</defs>
</svg>
