<svg width="279" height="279" viewBox="0 0 279 279" fill="none" xmlns="http://www.w3.org/2000/svg">
<rect width="278.753" height="278.753" fill="#F10900"/>
<path d="M133.061 228.708C133.36 226.417 133.126 224.706 133.32 222.747L134.696 222.3C134.751 220.968 134.603 215.439 134.887 214.699C135.229 214.393 135.923 214.282 136.401 214.15C136.45 212.025 136.527 208.571 136.389 206.508C132.531 205.712 136.756 203.649 133.404 202.943C133.231 202.431 133.114 201.842 132.62 201.626C131.677 201.21 129.731 201.472 128.633 201.503V201.509C127.588 205.173 125.817 201 124.898 204.584C124.294 204.716 124.035 204.689 123.606 205.182C122.925 205.972 124.205 208.355 122.324 207.819C121.189 207.072 122.259 203.93 121.583 203.258C120.856 202.857 119.909 203.245 119.163 202.983C117.864 202.527 119.912 201.284 115.604 201.503C115.434 202.012 115.252 202.515 115.064 203.014C113.257 203.131 112.517 202.508 112.005 204.451C109.116 205.127 111.231 206.961 110.121 207.846C109.76 207.911 109.674 207.945 109.328 207.831C108.036 206.835 110.047 203.104 107.894 203.125C106.8 203.134 103.238 202.752 102.563 203.511C102.189 204.581 103.149 206.113 101.446 206.403C101.113 206.462 101.122 206.465 100.885 206.699C100.743 207.251 100.817 208.167 100.799 208.762C100.74 210.446 100.916 212.614 100.709 214.248C100.293 214.35 99.6546 214.489 99.263 214.615C99.1026 215.759 99.3925 221.958 98.9207 222.294C98.5753 222.538 98.1004 222.621 97.6995 222.729C97.4127 224.937 97.8259 227.959 97.5422 230.284C97.0642 230.435 96.3488 230.586 96.0558 230.938C95.6488 231.86 95.9972 234.293 95.9572 235.4C95.9016 236.964 95.9232 236.816 94.5016 237.337C94.4029 238.731 94.6095 244.133 94.2827 244.861C93.9342 245.148 93.2743 245.219 92.8024 245.318C92.7377 246.341 92.5866 250.529 92.9381 251.294C93.4469 251.744 99.1674 251.608 100.086 251.55C100.253 251.538 100.422 251.522 100.589 251.504L100.928 250.178C101.375 250.082 101.924 250.014 102.27 249.737C102.661 249.089 102.402 243.606 102.519 242.206L103.963 241.756C104.194 239.455 103.919 236.492 104.077 234.071C104.613 233.914 105.153 233.763 105.693 233.621C105.736 232.298 105.649 228.665 105.825 227.632C106.22 227.484 106.895 227.247 107.259 227.077C107.386 225.109 107.133 221.048 107.41 219.466C107.882 219.337 108.363 219.213 108.829 219.068C108.983 217.536 108.82 216.049 108.995 214.572L110.454 214.153C110.503 213.246 110.318 212.05 110.765 211.436C111.82 210.68 112.141 211.889 112.372 212.623C112.853 212.771 113.421 212.876 113.667 213.366C113.896 213.823 113.905 214.93 113.738 215.411C113.686 215.562 113.569 215.726 113.421 215.79C113.004 215.969 112.412 216.031 112.215 216.487C111.694 217.702 112.656 223.565 111.725 223.965C111.388 224.11 110.91 224.079 110.67 224.382C110.3 225.483 110.901 229.979 110.127 230.38C109.739 230.583 109.196 230.596 109.042 231.08C108.514 232.711 109.316 236.236 108.928 238.009C108.875 238.24 108.752 238.419 108.542 238.536C108.191 238.734 107.728 238.669 107.472 239.024C107.087 240.593 107.558 244.519 107.247 246.468C106.772 246.628 106.291 246.779 105.81 246.918C105.597 247.822 105.474 250.483 105.939 251.288C106.581 251.747 113.655 251.593 114.922 251.547C116.045 250.714 114.697 245.049 115.629 243.705C115.764 243.51 116.751 243.424 116.964 243.399C117.312 241.093 116.751 238.175 117.134 236.088C117.174 235.869 117.229 235.715 117.417 235.582C117.843 235.283 118.527 235.428 118.635 234.756C118.833 233.544 118.256 228.162 118.931 227.626C119.24 227.379 119.804 227.317 120.186 227.188C120.27 225.754 120.119 222.112 120.356 221.039L121.778 220.567C121.815 219.186 121.707 215.655 121.929 214.606C122.373 214.474 122.817 214.332 123.264 214.23C123.391 213.851 123.554 213.311 123.696 212.95L124.957 212.595C125.062 212.167 125.133 211.643 125.441 211.353C125.839 211.189 125.685 211.199 126.11 211.248C126.345 211.402 126.635 211.695 126.669 212.167C126.767 213.564 126.823 215.957 126.564 217.301C126.511 217.573 125.349 217.718 125.269 218.035C124.843 219.688 125.352 221.517 125.111 223.259C124.92 224.631 123.579 223.577 123.474 224.77C123.292 226.833 123.748 229.88 123.276 231.841C123.239 231.996 122.194 232.347 121.938 232.433C121.648 234.148 121.91 237.987 121.772 240.06L120.344 240.448C120.134 242.931 120.439 245.697 120.202 248.198C119.671 248.29 119.107 248.296 118.793 248.697C118.623 249.111 118.475 251.445 119.03 251.451C121.183 251.47 126.308 251.923 128.173 251.34C128.568 250.865 128.346 246.499 128.454 245.373C128.861 245.216 129.555 244.972 129.925 244.79C129.974 243.578 129.829 237.963 130.11 237.331C130.459 237.01 131.007 236.939 131.489 236.819C131.744 234.46 131.387 231.585 131.649 229.171C132.121 229.02 132.593 228.866 133.064 228.711L133.061 228.708Z" fill="black"/>
<path d="M161.491 228.73C161.568 227.586 161.398 223.426 161.716 222.812C162.086 222.504 162.718 222.445 163.208 222.356C163.323 220.092 163.079 216.598 163.341 214.575L164.658 214.144C164.874 211.966 164.812 208.691 164.658 206.443L163.36 206.033C163.286 205.216 163.366 203.819 162.882 203.313C162.129 202.894 161.148 203.085 160.257 203.02C159.872 201.781 159.372 201.031 157.738 201.377C156.828 201.568 156.692 202.206 156.44 203.027C155.53 203.057 154.528 203.067 153.636 203.218C153.405 203.918 153.353 204.3 152.733 204.707C151.993 204.772 151.792 203.406 151.826 202.912C151.894 201.901 151.623 197.522 152.024 196.877C152.412 196.628 152.881 196.52 153.325 196.39C153.436 195.4 153.158 190.833 153.695 190.408C154.04 190.133 154.639 190.031 155.061 189.883C155.092 189.165 155.237 187.712 154.916 187.12C154.361 186.726 146.985 186.849 145.77 186.895C144.696 187.836 146.01 191.965 145.088 193.177C144.965 193.337 144.129 193.565 143.892 193.643C143.771 194.706 144.114 199.107 143.485 199.616C143.164 199.875 142.566 199.983 142.171 200.103C142.06 202.024 142.291 206.175 142.007 207.714C141.671 207.819 140.891 208.041 140.601 208.164C140.385 210.347 140.74 213.841 140.444 215.679C140.129 215.781 139.09 216.068 139.025 216.327C138.606 217.989 138.933 220.502 138.769 222.291C138.369 222.427 137.795 222.599 137.419 222.769C137.295 223.864 137.647 229.849 137.006 230.312C136.543 230.645 135.843 230.488 135.704 231.203C135.439 232.569 136.188 237.858 135.263 238.515C134.992 238.709 134.464 238.789 134.144 238.882C134.033 240.094 134.363 246.03 133.734 246.492C133.262 246.838 132.679 246.699 132.534 247.411C132.395 248.093 132.442 250.572 132.611 251.226C133.142 251.769 137.786 251.593 138.726 251.494L139.078 250.175C139.491 250.06 140.077 249.919 140.466 249.774C140.543 248.318 140.506 246.872 140.506 245.416C140.506 244.664 140.398 243.674 141.385 243.554C143.145 244.263 141.246 248.799 142.566 249.894C142.593 249.919 143.383 250.178 143.537 250.239C143.7 250.625 143.858 250.992 143.987 251.39C144.33 251.513 144.878 251.695 145.193 251.837C145.307 252.293 145.427 252.753 145.548 253.209C146.855 253.277 148.527 253.305 149.831 253.209L149.883 253.141C150.358 252.512 150.368 251.525 151.302 251.482C152.748 251.414 153.38 252.191 153.59 250.168C153.988 250.079 154.71 249.94 155.07 249.82C155.095 248.984 155.092 247.794 155.237 247.001L156.655 246.385C156.674 245.586 156.674 244.46 156.8 243.695C157.266 243.581 157.732 243.458 158.203 243.369C158.361 242.089 158.102 237.904 158.521 237.3C158.993 237.01 159.434 237.013 159.943 236.865C160.057 235.493 159.844 229.96 160.171 229.226C160.51 228.949 161.068 228.844 161.506 228.727L161.491 228.73ZM150.54 204.821C152.363 204.692 152.141 206.992 151.401 207.822C149.646 208.093 150.056 205.429 150.54 204.821ZM155.033 217.163C154.811 217.678 154.244 217.514 153.828 217.702C152.884 218.128 153.828 224.033 153.282 225.31C153.131 225.662 152.354 225.88 152.017 226.016C151.839 227.774 152.061 230.022 151.906 231.928C151.379 232.073 150.849 232.181 150.318 232.298C150.226 233.584 150.429 239.323 150.102 239.986C149.769 240.257 149.27 240.325 148.841 240.424L148.511 241.642C148.119 241.802 147.589 241.975 147.179 242.123C147.006 242.681 146.929 243.011 146.618 243.507C145.434 243.532 145.483 243.19 145.224 242.151C144.804 242.055 144.28 241.984 143.969 241.71C143.633 241.006 143.781 236.578 143.861 235.616C144.212 235.499 145.168 235.354 145.273 234.959C145.739 233.229 144.934 229.257 145.501 227.743C145.708 227.472 146.522 227.284 146.92 227.151C146.994 225.523 146.797 222.572 147.074 221.107C147.586 220.977 148.079 220.829 148.582 220.678C148.739 219.312 148.585 217.752 148.73 216.253L150.044 215.83C150.278 213.857 149.405 213.107 151.663 212.589C151.808 212.01 151.854 211.587 152.273 211.177H152.276C153.399 211.229 153.384 211.609 153.683 212.565C154.17 212.734 154.666 212.861 154.972 213.274C155.24 214.097 155.376 216.348 155.03 217.153L155.033 217.163Z" fill="black"/>
<path d="M66.402 202.817C66.8893 202.626 67.3765 202.441 67.8699 202.262C67.9378 201.389 67.9501 200.581 67.9655 199.708C68.388 199.529 68.9369 199.317 69.3409 199.125L69.7171 197.92C70.1334 197.775 70.6577 197.611 71.0585 197.454C71.0986 195.462 70.6422 195.002 72.6251 194.312C72.6529 193.578 72.6714 192.283 72.7824 191.601L74.1978 191.151C74.2595 190.568 74.4692 189.301 74.1207 188.798C73.9018 188.48 73.2419 188.422 72.8811 188.385C71.9806 188.292 65.3905 188.221 65.0174 188.523C64.82 188.681 64.7892 189.023 64.78 189.257C64.7584 189.748 64.8786 190.793 64.5209 191.145C64.2495 191.413 63.6266 191.493 63.2596 191.579C63.2011 193.356 63.605 194.173 61.7825 194.817C61.6592 195.157 61.4711 195.739 61.3292 196.051C58.3379 197.022 61.7671 198.45 58.6525 199.625L58.4767 199.69C58.4181 201.42 58.9238 202.265 57.0612 202.78L56.6264 203.881C56.2348 204.013 55.7136 204.171 55.3436 204.316C55.2881 205.164 55.3744 206.483 54.8841 207.091C54.5171 207.282 54.6682 207.242 54.2581 207.208C53.5056 206.761 53.6105 205.58 53.6228 204.803C53.6444 203.566 53.5982 202.289 53.7863 201.065L54.659 201.071C54.9242 201.071 55.14 200.865 55.1493 200.6C55.1956 198.987 55.1555 195.937 55.3436 194.972C55.6396 194.817 55.8092 194.805 56.0066 194.777C56.2934 194.734 56.5062 194.487 56.5062 194.198L56.4815 188.56C55.8771 188.002 50.4064 188.209 49.3364 188.246C48.9632 188.505 48.8337 189.183 48.6764 189.661L47.5601 189.816L47.0914 195.977C46.9619 196.162 46.3821 196.31 46.1416 196.375C46.0398 196.403 45.938 196.43 45.8363 196.458C45.5741 198.336 45.8363 201.71 45.6913 203.856L44.2574 204.248C44.1618 205.284 44.4732 209.715 43.8997 210.243C43.397 210.699 42.7062 210.32 42.6045 211.245C42.4719 212.435 42.9498 217.563 42.256 218.174C41.815 218.563 41.1397 218.402 41.0441 219.149C40.9115 220.182 41.337 225.628 40.7634 226.078C40.4674 226.312 39.8445 226.355 39.4713 226.426C39.4004 228.067 39.5207 230.978 39.3295 232.4C38.8607 232.532 38.3889 232.652 37.914 232.763C37.803 234.746 38.0374 238.712 37.7475 240.343C37.2726 240.528 36.7915 240.698 36.3074 240.852C36.0792 243.032 36.3413 245.9 36.1933 248.198C35.7615 248.296 35.1633 248.38 34.8703 248.676C34.599 249.163 34.5404 251.038 34.9567 251.43C35.9497 251.664 42.9067 251.639 43.9305 251.362C44.3499 250.89 44.0939 248.099 44.2358 247.103C44.7014 246.94 45.2534 246.764 45.7037 246.585C45.7407 245.503 45.5094 239.662 45.9627 239.221C46.2958 238.9 46.8508 238.801 47.2826 238.66C47.3134 237.466 47.2641 235.493 47.4213 234.419L48.8368 233.957C48.917 233.059 48.7782 231.863 49.2438 231.268C49.6324 231.089 49.4751 231.123 49.9007 231.163C50.943 231.767 50.4527 234.404 50.5976 235.594C50.8998 235.712 51.9021 236.066 51.9483 236.328C52.3461 238.774 51.936 242.582 52.1364 244.981C52.6576 245.222 53.4748 245.496 53.6352 246.03C54.0237 247.316 53.3514 250.178 53.8695 251.315C55.1462 251.852 61.1812 251.537 62.8217 251.405C63.1856 251.377 63.09 249.348 63.087 248.972C63.1671 247.63 63.2535 245.321 63.1301 243.982C62.9112 243.924 61.8164 243.674 61.7764 243.449C61.2552 240.655 61.8504 237.54 61.5235 234.691C61.4741 234.268 60.2314 234.33 60.1574 233.966C59.6825 231.607 60.3887 228.859 59.8521 226.509C59.8305 226.423 59.4111 226.275 59.2723 226.235C59.0133 226.161 58.7512 226.09 58.489 226.022C58.4366 224.977 58.3194 217.616 58.5815 217.067C58.9053 216.755 59.4944 216.651 59.9569 216.509C60.1265 214.504 59.4358 213.999 61.5636 213.299C61.6222 211.362 61.1503 210.782 63.1486 210.144C63.1671 209.345 63.1579 208.192 63.2967 207.433L64.6042 207.045L65.0174 205.919L66.3003 205.589C66.3558 204.766 66.3373 203.557 66.4144 202.817H66.402ZM53.1788 210.301C52.8334 210.489 52.3986 210.36 52.2135 210.011C52.0285 209.663 52.158 209.231 52.5034 209.046C52.8488 208.858 53.2805 208.991 53.4655 209.336C53.6537 209.681 53.5211 210.113 53.1757 210.301H53.1788Z" fill="black"/>
<path d="M184.03 250.81C184.375 248.787 182.775 247.325 185.473 246.468C185.637 245.231 185.325 241.077 185.782 240.522C186.176 240.266 186.741 240.165 187.206 240.047C187.293 237.975 187.083 234.108 187.354 232.326L188.776 231.894C188.958 229.556 188.699 227.17 188.887 224.835C188.939 224.184 189.818 224.049 190.339 223.873C190.506 222.615 190.225 218.467 190.657 217.863C191.018 217.607 191.514 217.533 191.952 217.431C192.082 215.991 192.187 207.856 191.918 206.693C191.622 206.339 191.064 206.286 190.602 206.197C190.503 205.805 190.383 205.262 190.259 204.892L189.087 204.513C188.921 204.1 188.72 203.569 188.538 203.175C187.549 203.06 186.79 203.088 185.868 203.014C185.782 202.703 185.541 201.691 185.288 201.627C184.107 201.318 180.881 201.445 179.71 201.516V201.525C179.198 201.805 179.04 202.468 178.831 203.033C176.934 203.088 176.287 202.564 175.753 204.528C175.318 204.658 174.887 204.794 174.446 204.898L174.085 206.221C173.721 206.295 173.181 206.391 172.836 206.49L172.506 207.757C172.093 207.865 171.451 208.013 171.069 208.158C171.026 208.904 171.01 210.076 170.924 210.773C170.43 211.01 169.601 211.322 169.484 211.859C169.29 212.747 169.308 214.853 169.7 215.639C170.134 216.154 176.324 215.954 177.298 215.871C177.425 215.454 177.597 214.933 177.69 214.517C178.115 214.418 178.661 214.307 179.065 214.184C179.099 212.774 178.698 209.962 182.121 211.559C182.513 211.741 182.291 217.878 182.248 218.609C182.235 219.136 181.187 219.361 180.77 219.503C180.666 220.755 181.196 224.039 179.768 224.212C178.553 223.719 179.611 221.384 178.64 220.922C178.421 220.817 177.967 220.709 177.714 220.647L177.32 219.454C175.957 219.337 172.712 219.315 171.3 219.435L170.856 220.715L169.576 221.088C169.45 221.505 169.305 221.952 169.2 222.374L167.994 222.68C167.88 223.062 167.745 223.555 167.615 223.922C167.217 224.033 166.668 224.163 166.289 224.292C166.138 226.297 166.785 226.901 164.713 227.681C164.602 230.065 165.586 231.755 163.051 232.418C162.755 234.268 163.236 236.365 162.884 238.111C162.841 238.324 162.767 238.444 162.588 238.561C162.221 238.808 161.595 238.613 161.454 239.147C161.262 239.869 161.238 247.643 161.497 248.068C161.531 248.127 161.525 248.111 161.592 248.161C163.584 248.71 162.78 249.632 162.995 251.353C163.415 251.522 164.294 251.88 164.735 251.985C165.53 252.173 168.728 252.315 169.354 251.951C171.328 250.807 172.228 252.75 172.83 250.215L174.094 249.835L174.372 248.497C174.766 248.429 175.509 248.321 175.87 248.226C175.944 247.331 175.802 245.879 176.25 245.287C178.3 244.106 177.267 250.39 177.573 251.09C177.822 251.664 179.414 251.649 180.104 251.624C181.15 251.587 183.567 252.043 184.027 250.81H184.03ZM179.062 234.873C178.8 235.305 178.075 235.536 177.591 235.742C177.477 236.766 177.582 237.651 177.597 238.666C177.616 239.98 177.236 240.168 176.129 240.408L175.775 241.691C175.213 241.845 174.618 241.885 174.353 242.419C173.986 243.76 173.601 243.501 172.33 243.547C171.92 243.563 171.63 243.514 171.309 243.251C170.85 242.348 170.871 237.127 171.158 235.946C171.353 235.594 172.198 235.277 172.605 235.092C172.731 234.151 172.672 232.026 172.719 230.904C173.098 230.762 173.644 230.611 174.045 230.488C174.079 230.349 174.113 230.21 174.15 230.071C174.291 229.519 174.307 229.251 174.797 228.958C176.524 228.872 177.132 228.533 177.699 230.364C178.044 230.485 178.862 230.762 178.976 231.067C179.272 231.866 179.232 234.12 179.065 234.873H179.062Z" fill="black"/>
<path d="M243.343 206.493L241.9 206.156L241.533 204.935L240.447 204.463C240.29 204.084 240.08 203.541 239.905 203.184C238.893 203.06 238.172 203.088 237.216 203.02C237.086 202.561 236.957 201.827 236.568 201.592C235.779 201.377 232.029 201.444 231.063 201.518C230.487 201.83 230.385 202.404 230.166 203.036C228.248 203.088 227.573 202.539 227.008 204.531L225.83 204.923L225.457 206.197L224.15 206.456L223.804 207.723C223.413 207.849 222.777 208.028 222.416 208.183C222.315 210.215 222.857 210.609 220.85 211.454C220.807 212.494 220.64 214.742 221.023 215.624C221.639 216.145 227.455 215.954 228.495 215.867C228.547 215.864 228.599 215.858 228.649 215.855L229.007 214.507C229.426 214.415 230.052 214.295 230.447 214.159C230.481 213.558 230.333 211.686 230.888 211.371C231.421 211.066 232.997 211.072 233.481 211.544C233.762 212.376 233.796 218.291 233.503 218.942C232.76 219.679 232.134 218.692 232.121 220.65C232.115 221.551 232.51 224.2 231.202 224.042C230.872 224.002 230.848 223.959 230.626 223.749C230.074 222.334 231.412 221.261 229.062 220.675L228.618 219.451C227.304 219.337 223.894 219.327 222.574 219.445L222.161 220.678L220.967 221.107C220.85 221.532 220.724 221.964 220.619 222.393L219.354 222.664L218.975 223.897C218.605 224.009 218.059 224.153 217.708 224.286C217.655 224.866 217.698 226.802 217.378 227.102C216.952 227.493 216.107 227.219 215.928 228.098C215.731 229.072 216.283 231.431 215.595 232.07C215.262 232.378 214.571 231.971 214.352 233.016C214.121 234.133 214.685 237.707 214.093 238.416C213.665 238.721 212.666 238.734 212.696 239.375C212.761 240.661 212.388 247.279 212.801 248.077L212.925 248.173C214.843 248.67 214.306 249.601 214.355 251.272C217.976 253.067 220.076 251.719 223.739 251.513L224.146 250.199C224.563 250.085 225.056 249.962 225.46 249.832L225.756 248.512L227.144 248.216C227.181 247.239 226.947 245.428 228.091 245.191C230.052 245.641 227.973 251.241 229.549 251.5C230.801 251.704 233.953 251.722 235.19 251.439C235.264 250.036 235.18 248.247 235.344 246.952C235.732 246.841 236.568 246.665 236.793 246.354C237.552 245.293 236.108 240.491 237.663 240.291C237.715 240.285 238.316 240.1 238.443 240.057C238.699 237.664 238.32 234.678 238.6 232.341C239.124 232.193 239.652 232.06 240.182 231.94C240.324 229.695 240.05 226.365 240.309 224.342C240.79 224.172 241.271 224.012 241.758 223.857C241.851 222.346 241.684 219.053 241.925 217.856C242.393 217.715 242.865 217.579 243.34 217.449C243.469 215.67 243.399 213.314 243.405 211.498C243.408 210.147 243.466 207.785 243.34 206.499L243.343 206.493ZM230.259 235.018C230.185 235.283 228.982 235.496 228.991 236.001C228.896 236.828 228.976 237.731 228.982 238.567C228.991 240.161 228.886 240.161 227.384 240.365L227.055 241.679C226.462 241.864 226.025 241.913 225.713 242.428C225.254 243.865 224.763 243.47 223.413 243.535C223.154 243.547 222.845 243.467 222.672 243.273C222.241 242.252 222.235 237.355 222.497 236.023C222.565 235.681 223.52 235.286 223.881 235.11C224.002 234.052 223.937 232.091 223.983 230.882C224.353 230.747 225.001 230.574 225.399 230.457C225.556 229.948 225.707 229.232 226.114 228.949C227.856 228.865 228.547 228.52 229.111 230.38C229.559 230.546 230.302 230.719 230.345 231.289C230.431 232.387 230.555 233.954 230.255 235.018H230.259Z" fill="black"/>
<path d="M213.921 225.501C213.97 224.166 213.906 222.414 214.066 221.172L215.485 220.65C215.574 219.602 215.503 218.732 215.494 217.693C215.481 216.318 215.885 216.089 217.054 215.753C217.282 213.305 216.582 213.505 218.815 212.469C218.858 211.232 218.784 209.41 218.886 208.294C219.376 208.072 219.87 207.862 220.369 207.668C220.382 207.187 220.314 205.262 220.687 204.979C221.223 204.571 222.599 204.683 221.988 203.372C221.902 203.19 221.609 203.141 221.43 203.119C219.953 203.11 213.702 202.875 212.651 203.258C212.151 203.72 212.299 205.426 212.231 206.11L210.939 206.505C210.856 207.082 210.782 208.917 210.378 209.336C210.1 209.623 209.141 209.592 209.15 210.372C209.006 211.649 209.249 212.87 208.916 214.128L207.59 214.665C207.473 217.064 208.426 218.649 205.906 219.593C205.875 220.527 205.99 223.056 205.694 223.706C204.849 224.48 204.195 223.756 204.204 222.843C204.219 221.455 204.241 220.068 204.241 218.677V208.309C204.241 206.983 204.349 204.599 204.028 203.39C203.886 202.851 197.614 203.06 196.828 203.085C196.39 203.252 196.248 203.387 196.229 203.918C196.097 207.677 196.387 211.501 196.177 215.251C196.134 215.981 195.267 216.052 194.614 216.274C194.422 218.134 194.536 221.97 194.539 223.999V242.15C194.533 243.825 194.533 245.499 194.546 247.174C194.558 248.266 194.583 249.348 194.546 250.44C194.509 251.602 193.947 251.501 192.982 251.803C192.951 252.521 192.936 253.934 192.816 254.59C192.393 254.729 191.974 254.874 191.545 254.988C191.416 255.423 191.308 255.966 191.009 256.287C190.642 256.453 190.577 256.493 190.179 256.475C189.087 255.827 190.093 254.199 189.266 253.416C188.622 253.234 182.497 253.231 182.016 253.477C181.403 254.285 181.526 261.399 181.649 262.639C183.034 263.096 183.065 263.068 183.352 264.483C185.387 264.727 185.967 263.965 186.704 266.13C187.943 266.167 189.932 266.226 191.132 266.087C191.261 265.609 191.394 265.128 191.53 264.65C192.295 264.607 193.658 264.597 194.336 264.505C194.546 263.666 194.499 263.419 195.125 262.978C196.066 262.312 197.485 263.478 197.7 262.386C197.839 261.689 197.734 260.73 197.851 259.916C198.333 259.737 198.77 259.577 199.261 259.42L199.646 258.214L200.889 257.788C200.917 256.99 200.926 255.864 201.034 255.099L202.483 254.637C202.668 253.758 202.452 250.56 203.014 250.178C203.563 249.804 204.047 249.919 204.201 249.157C204.429 248.034 204.204 246.727 204.256 245.573C204.485 245.197 205.327 245.046 205.789 244.92C205.805 244.18 205.795 242.869 205.891 242.178C206.295 242.039 207.069 241.793 207.433 241.629C207.565 240.732 207.544 239.939 207.498 239.036C207.411 237.435 207.63 237.195 209.036 236.769C209.086 235.955 209.08 234.793 209.15 234.043C209.632 233.871 210.184 233.689 210.652 233.507C210.714 232.569 210.695 231.746 210.64 230.808C210.554 229.273 210.991 229.115 212.222 228.634C212.305 226.593 211.707 225.958 213.921 225.492V225.501ZM203.658 228.93C203.384 229.007 203.088 228.933 202.884 228.733C202.681 228.532 202.601 228.24 202.675 227.962C202.749 227.688 202.967 227.472 203.242 227.401C203.661 227.293 204.09 227.543 204.204 227.959C204.318 228.375 204.075 228.807 203.658 228.927V228.93Z" fill="black"/>
<path d="M92.9905 228.755C93.2711 226.476 92.9041 223.398 93.1416 221.005C93.6226 220.851 94.1099 220.709 94.5971 220.579C94.6989 219.445 94.6588 218.128 94.6526 216.975C94.6526 216.305 94.6619 215.5 94.6095 214.847C94.4769 213.206 94.7451 212.981 96.1822 212.562C96.3456 210.166 96.0958 207.711 96.2593 205.318C96.2809 205.003 97.7765 204.417 97.8999 203.606C97.3386 202.601 92.6759 203.258 91.4177 203.07C90.8565 202.987 88.9322 203.014 88.4111 203.261C87.7974 203.939 88.2815 206.348 88.0657 207.295C87.9207 207.924 86.6995 207.884 86.607 208.473C86.2709 210.625 86.6996 212.996 86.4929 215.195C86.3819 216.376 85.0775 215.519 84.9726 216.753C84.7814 218.936 85.2687 221.634 84.803 223.74C84.7537 223.969 83.7083 224.178 83.4246 224.249L83.4307 224.255C83.1748 226.676 83.551 229.646 83.2673 231.999L81.858 232.415C81.8087 233.13 81.9629 238.265 81.4417 238.398C78.2839 239.193 81.8179 241.46 78.7095 241.993C78.4844 242.647 78.3548 243.501 77.5222 243.529C77.1799 243.541 75.4962 243.686 75.4622 243.177C75.2649 240.297 75.197 236.954 75.3759 234.065L76.7143 233.633C76.8099 232.363 76.4429 226.556 77.1121 225.964C77.4204 225.689 78.0557 225.591 78.4597 225.483C78.5275 223.617 78.3949 221.313 78.5429 219.543C78.913 219.392 79.7641 219.152 79.9214 218.763C80.4888 217.375 79.3848 211.837 80.5382 211.31C80.8866 211.149 81.3276 211.075 81.7007 210.983C81.7624 209.795 81.9135 204.158 81.5435 203.366C80.8835 202.872 75.2988 203.057 74.201 203.088C72.9428 203.662 74.2781 205.481 73.1278 206.16C72.7948 206.357 72.3044 206.311 72.0855 206.625C71.7124 207.93 72.0392 210.15 72.0146 211.584C71.9961 212.574 71.9652 213.148 71.8419 214.15L70.5344 214.686C70.4233 215.843 70.6916 221.872 70.2044 222.313C69.7912 222.538 69.2916 222.596 68.8259 222.683C68.681 224.373 68.9246 227.373 68.6471 228.77L67.244 229.146C67.0805 231.24 67.3858 235.005 67.0743 236.769C66.5655 236.917 66.0845 237.056 65.5695 237.179C65.369 239.098 65.5232 242.163 65.48 244.18C65.4554 245.321 65.4338 248.929 65.588 249.805C66.8246 250.168 66.951 250.107 67.3211 251.368C68.5731 251.794 68.5977 251.812 68.9431 253.092C70.374 253.335 72.0177 253.308 73.4485 253.092C73.9296 250.767 74.642 251.778 76.6032 251.488L77.0535 250.171C77.4451 250.067 78.0588 249.922 78.4227 249.789C78.4844 248.993 78.3857 247.455 78.7496 246.915C79.0178 246.761 79.0888 246.699 79.4095 246.702C80.7324 247.39 79.6439 250.711 80.3069 251.377C80.8835 251.673 86.8907 251.683 87.6432 251.433C87.8313 251.371 87.8961 251.325 87.9886 251.137C88.5961 249.872 87.4119 244.032 88.5622 243.575C88.9075 243.44 89.3763 243.412 89.7432 243.359C89.9252 241.142 89.5983 237.605 89.9129 235.656C90.3908 235.483 90.8257 235.329 91.3129 235.184C91.3838 233.615 91.2543 230.457 91.4763 229.146L93.0028 228.752L92.9905 228.755Z" fill="black"/>
<g clip-path="url(#clip0_1_47)">
<path d="M70.2072 173.969V170.896H66.6233V166.799H63.0461V163.218H57.8976V159.636H52.9764V156.048H48.7305V152.46H44.6385V148.872H41.0613V145.283H37.484V137.612H59.4689V134.03H55.885V130.442H52.3077V126.854H48.7305V123.266H44.6385V119.678H41.0613V112.006H37.484V104.85H55.8916V97.6934H52.3077V94.1119H48.7238V86.4469H44.6318V82.8654H41.0479V75.7091H37.464V72.1277H33.9001V68.5529H66.6233V28.2195H70.2072V31.8009H74.3059V35.3824H77.8898V38.9639H81.4737V46.6289H85.0576V50.2104H88.6415V53.7919H92.2254V57.3733H95.8093V64.5296H99.9014V68.6198H132.625V60.9481H136.208V57.3666H139.792V53.7852H143.376V46.6289H146.96V43.0474H151.059V38.9572H154.643V35.3757H158.227V31.7943H161.811V28.2128H165.394V68.6131L165.488 71.2306L227.778 72.1946H229.282V75.4306H244.628V85.6703L238.517 85.6034V89.1915H234.939V97.767H222.115V101.348H218.538V114.764H207.131V118.419H203.554L203.6 124.993L194.547 125.06V130.502L203.654 130.703L203.801 134.412L207.479 134.479L207.559 137.344L219.567 137.424L219.741 147.995L222.316 148.189V151.59H234.699V159.649H234.939V163.231H238.523V166.812H244.635V173.969H70.2072ZM110.6 126.921C109.409 126.921 106.27 126.921 105.08 126.921V123.333H101.206V119.745H97.8167V112.073H77.8764V119.745H81.4537V126.901H88.6148V130.482H95.7759V134.064H107.022V130.482H110.606C110.633 129.291 110.573 128.092 110.606 126.901C111.796 126.901 113 126.901 114.19 126.901V112.066H110.606C110.506 117 110.747 121.967 110.606 126.901L110.6 126.921ZM168.891 126.921C166.511 126.988 164.111 126.874 161.73 126.921V123.333H158.153V119.745H154.576V112.073H136.168V115.654H139.746V123.326H143.329V126.907H146.913V130.482H154.583V134.064H165.321V130.482H168.905C168.932 129.291 168.871 128.092 168.905 126.901C170.095 126.867 171.299 126.928 172.489 126.901V115.648H168.905C168.831 119.39 169.012 123.165 168.905 126.901L168.891 126.921Z" fill="black"/>
<path d="M110.601 126.921C110.568 128.113 110.628 129.318 110.601 130.503H107.017V134.077H95.7706V130.496H88.6095V126.914H81.4484V119.758H77.8712V112.087H99.856V119.758H103.44V123.34H107.024V126.921C108.214 126.921 109.418 126.921 110.608 126.921C110.748 121.994 110.507 117.02 110.608 112.087H114.192V126.921C113.001 126.921 111.798 126.921 110.608 126.921H110.601Z" fill="#F10900"/>
<path d="M168.892 126.921C168.858 128.112 168.918 129.317 168.892 130.502H165.308V134.077H154.569V130.496H146.9V126.914H143.316V123.326H139.739V115.654H136.155V112.073H154.563V119.745H158.147V123.326H161.73V126.907C164.111 126.854 166.511 126.974 168.892 126.907C168.999 123.172 168.818 119.396 168.892 115.654H172.475V126.907C171.285 126.934 170.082 126.874 168.892 126.907V126.921Z" fill="#F10900"/>
</g>
<defs>
<clipPath id="clip0_1_47">
<rect width="214.992" height="145.749" fill="white" transform="translate(33.9023 28.2194)"/>
</clipPath>
</defs>
</svg>
