<svg width="700" height="266" viewBox="0 0 700 266" fill="none" xmlns="http://www.w3.org/2000/svg">
<g style="mix-blend-mode:multiply">
<rect width="700" height="266" fill="black"/>
<path d="M248.83 69.4575C249.444 71.6385 253.603 71.4485 254.314 68.2197C255.363 63.4525 252.179 60.7607 259.194 59.1166C260.334 52.0246 265.244 56.0216 268.994 54.3585C271.052 53.4464 270.712 49.8084 271.615 49.5953L279.844 49.7109L282.264 54.1393L291.283 55.3429C293.642 57.374 289.047 72.825 296.069 70.7577C299.239 69.8245 296.108 63.003 298.733 61.0995C299.754 60.3595 301.8 60.5435 302.673 59.4404C303.492 58.4057 303.078 56.6018 304.327 55.5017C306.487 53.5983 311.273 55.5631 313.47 54.1372C314.761 53.2996 313.642 50.1614 316.376 49.6345C317.668 49.3851 328.302 49.4806 328.981 49.8889C330.022 50.5143 330.06 53.2745 330.924 54.099C331.868 55 333.925 54.5636 334.865 55.7571C335.672 58.4761 334.111 64.4108 337.358 65.5651C338.761 66.0638 340.065 65.3509 340.891 67.0714C342.718 70.8763 340.452 85.5933 341.193 90.5827C340.475 92.9668 336.354 91.3349 335.38 95.4032C333.852 101.784 336.077 111.766 335.06 118.552L330.73 120.94C330.485 123.885 331.102 139.577 329.162 140.746C328.199 141.326 326.459 140.99 325.563 142.051C323.051 145.023 325.414 161.292 324.473 166.108C323.938 168.854 320.049 167.431 319.46 170.609C318.268 177.036 320.407 186.608 319.335 193.394C318.737 195.394 313.841 195.319 313.841 198.533V215.855L312.999 216.693H282.736L281.895 215.855V207.474L286.244 205.945C287.909 204.552 286.308 185.284 287.077 181.321C287.674 178.237 291.017 180.623 292.169 176.927C293.604 172.321 291.352 155.401 293.051 153.22C293.972 152.038 297.394 152.251 297.575 149.908C298.557 143.468 296.199 132.562 297.834 126.682C298.471 124.398 302.428 125.551 303.101 123.567C304.191 120.35 301.879 105.974 304.117 104.333C305.509 103.314 307.996 104.122 308.676 101.187C309.211 98.8764 309.117 88.3022 308.809 85.6486C308.635 84.1423 307.961 82.2569 306.243 82.0106C302.5 81.4746 303.607 85.2866 302.51 86.3786C301.872 87.0141 299.969 86.8331 298.954 87.5852C297.734 88.4892 297.861 90.4993 296.777 91.5591C295.569 92.7376 292.898 92.5717 292.354 93.8899C290.807 98.8934 293.224 107.881 291.873 112.375C291.283 114.339 288.56 113.674 287.626 114.566C285.959 116.156 287.594 130.091 286.816 133.594C286.056 137.022 282.003 134.766 281.373 138.783C280.334 145.401 282.159 154.129 281.225 160.987C280.256 163.308 276.811 162.423 276.304 165.021C275.108 171.154 277.174 180.554 276.133 187.225C275.489 191.357 270.126 188.997 270.126 192.946V216.135C269.575 215.954 268.909 216.694 268.725 216.694H239.583C237.691 214.212 237.617 206.008 238.197 203.019C238.775 200.043 242.855 201.933 243.666 198.414C245.164 191.918 242.388 181.711 244.295 175.013C245.276 173.753 248.331 174.26 248.819 171.701C249.995 165.54 247.597 155.591 248.952 149.483C249.602 146.551 251.872 147.217 253.301 145.996C255.776 143.878 253.71 130.302 254.527 126.545L259.37 123.55C259.99 116.657 258.926 109.234 259.458 102.407C259.9 96.7295 261.538 99.5742 264.259 97.1338C266.198 95.3942 265.986 90.822 264.773 88.7647C263.84 87.179 261.883 87.4264 260.845 86.5345C259.608 85.4706 259.841 82.6561 257.96 82.1172C251.614 80.3012 254.935 89.5802 253.617 91.5531C252.949 92.5536 249.54 92.1534 248.938 94.1514C247.995 97.2816 249.873 105.536 248.318 107.925C247.495 109.189 244.105 108.06 243.347 111.487C241.994 117.601 244.408 127.576 243.213 133.704C242.706 136.302 239.26 135.417 238.291 137.738L237.809 156.222L232.669 158.954C231.748 163.553 234.027 181.273 231.493 184.044C230.085 185.584 227.642 184.164 227.11 186.912C226.15 191.865 228.168 207.633 226.697 210.555L225.843 211.379C221.085 210.758 222.065 216.164 219.392 216.681L195.961 216.605C195.385 216.416 195.118 215.956 194.88 215.448C194.188 213.967 194.19 201.384 194.457 199.086C195.049 193.993 199.325 197.139 200.388 192.707C201.886 186.458 199.703 176.766 200.722 170.129C201.219 168.596 204.435 169.028 205.008 167.139C206.317 162.824 203.943 153.67 205.369 149.059C206.255 146.195 208.972 147.219 210.169 146.023C212.666 143.527 210.415 126.506 211.293 122C211.842 119.188 215.689 120.735 216.288 116.922C216.877 113.172 215.384 94.7114 217.02 93.3399L221.093 92.096C222.929 83.8426 221.4 74.9165 222.001 66.461C230.073 65.5993 226.304 61.1096 227.64 56.7164C228.515 53.8416 241.208 54.3745 244.058 54.6621C245.765 54.8341 247.772 55.1689 248.829 56.6098V69.4615L248.83 69.4575Z" fill="white"/>
<path d="M-0.00012207 207.195C1.98059 206.521 4.44136 206.973 4.90628 204.571C6.15582 198.122 3.93105 188.887 5.18059 182.439C5.71914 179.657 8.27974 181.112 9.57265 179.581C12.0536 176.646 9.77234 160.312 10.6477 155.509C11.0622 153.234 13.6904 154.095 14.8572 153C17.083 150.911 14.6011 137.262 15.7689 133.793C16.4456 131.784 20.3829 133.963 21.1635 129.675C22.3505 123.163 20.4908 114.306 21.3702 107.529C21.7998 106.282 24.904 106.242 25.6301 105.351C27.5261 103.027 25.5132 86.1041 26.3533 81.7652C26.8394 79.2564 29.1176 80.1473 30.5053 79.2001C33.2353 77.3368 31.3131 63.1025 32.0342 59.4907C32.6968 57.545 36.1782 59.0261 36.8619 55.922C38.1821 49.9331 35.8332 40.2508 37.0001 34.2669C37.5104 31.6505 41.2631 32.4348 41.9216 30.2327C43.0128 26.5826 40.426 12.6399 43.7359 10.8069C44.577 10.3413 45.642 10.6128 46.5557 9.70782C48.1784 8.09997 46.8018 5.83954 50.5242 5.28348C53.5114 4.83803 67.7163 5.03813 70.9193 5.45141C71.8734 5.57408 72.6197 5.66056 73.138 6.59168L73.8863 24.6651C73.3185 26.3112 69.4963 25.7983 68.6149 29.4675C67.6588 33.4484 69.3601 43.7742 68.0995 46.276C67.3179 47.8265 63.3283 47.2121 63.3283 49.3408V67.2212C63.3283 67.6033 64.716 68.5445 65.3231 68.635C70.6894 69.4334 67.9724 60.9316 69.4408 58.9155C69.9592 58.2046 72.1416 58.3625 73.1693 57.4746C74.1818 56.5998 74.0457 54.9034 74.8182 54.091C76.2331 52.6028 78.9844 54.0176 79.5431 50.4208C80.3237 45.3891 77.8306 43.6807 84.3537 41.2483L85.4388 32.831C89.6695 32.2428 89.1703 29.3599 90.7557 27.5158C91.7087 26.4077 93.7177 26.7073 94.6576 25.2594C95.9818 23.2181 94.6707 18.6299 96.121 16.6601C96.8602 15.6555 99.8787 15.7661 100.507 14.291C102.023 10.7325 98.5444 6.08992 103.95 5.46749C109.304 4.8511 122.047 4.94663 127.49 5.48559C133.807 6.11103 132.242 8.71737 132.171 14.0487L127.73 16.462L126.846 24.9094L122.28 27.6545L121.345 35.6636C120.295 36.6611 118.733 36.5877 117.646 37.563C116.381 38.6973 116.458 40.6008 115.489 41.56C114.328 42.7114 112.668 41.9783 111.588 43.8175C110.179 46.2227 111.678 50.4288 110.708 51.8798C110.203 52.635 107.988 52.65 107.066 53.2775C104.559 54.9829 106.864 60.0729 105.649 62.4811C104.972 63.8245 102.836 63.4726 101.76 64.1905C100.56 64.9899 100.833 66.7989 99.7466 67.7692C98.739 68.6692 96.361 68.6601 95.7861 69.546L94.7615 78.3092C93.7711 79.8275 90.4057 77.8909 89.721 82.9185C89.0553 87.8034 91.3588 88.8753 85.1383 90.7788L84.1136 99.542C83.1687 100.993 79.9414 99.2544 79.1558 103.675C78.469 107.541 78.469 125.244 79.1558 129.112C80.008 133.912 83.8726 131.198 84.4888 134.384C85.7555 140.924 83.8181 150.309 84.6391 157.171C85.2079 160.107 89.2157 158.702 89.6766 161.09C90.55 169.214 88.425 179.992 89.8037 187.783C90.5701 192.111 93.2003 190.35 94.587 191.676C96.7321 193.727 93.9396 211.817 94.7333 215.751C94.6203 216.12 93.4676 216.693 93.3123 216.693H64.7301C61.759 212.382 66.3346 199.865 61.9456 196.562C61.045 195.884 59.4939 195.835 58.9735 195.333C57.257 193.678 58.8646 171.264 58.2706 167.256C57.7875 164.684 54.2184 164.496 53.5175 163.055C52.3516 160.657 54.3747 150.595 51.7042 149.082C46.4952 146.134 46.9349 155.123 47.0005 157.945C38.3192 158.711 43.8781 168.677 41.7542 173.111C41.0886 174.499 38.7135 174.496 37.7908 175.306C34.9094 177.834 37.3087 194.495 36.4152 199.079C35.9744 201.337 33.8727 200.844 32.5112 201.891C29.0762 204.535 34.3659 216.001 28.8886 216.719C23.7029 217.398 7.20972 217.339 1.9342 216.722C1.11832 216.626 0.493039 216.652 0.00088644 215.855V207.194L-0.00012207 207.195ZM62.6304 78.5364C65.0115 76.2428 60.0879 72.7647 58.556 75.3137C56.9363 78.0095 60.451 80.635 62.6304 78.5364Z" fill="white"/>
<path d="M329.251 216.694C327.294 216.06 327.384 203.741 328.93 201.846C329.727 200.869 331.495 200.986 332.33 200.207C334.835 197.871 332.675 179.999 333.562 175.731C334.178 173.709 337.964 174.427 338.487 171.7C339.667 165.549 337.263 155.584 338.62 149.482C339.31 146.379 342.169 147.146 343.564 145.47C346.183 142.323 343.716 126.935 344.677 121.994C345.179 119.413 348.525 120.184 349.057 118.538C350.422 114.328 347.173 101.254 350.83 98.5143C352.41 97.3308 354.558 97.8899 355.191 95.0392C356.566 88.8501 354.352 78.9376 355.389 72.3263C355.936 70.7003 359.547 71.8697 360.233 68.7747C361.102 64.8572 359.298 46.1965 361.051 44.7214C361.632 44.2337 364.057 44.1462 365.017 43.5097C367.605 41.7923 364.188 25.4222 367.114 23.1115C369.554 21.1849 370.968 23.5469 371.492 18.5384C371.914 14.5122 370.694 4.72136 371.642 1.91995C371.994 0.881235 374.167 0.554437 375.21 0.447851C381.227 -0.165523 393.825 -0.123291 399.893 0.419696C405.906 0.957655 402.794 5.62533 403.53 10.1271C403.361 10.8259 400.112 11.5027 399.288 12.1633C395.93 14.8511 399.597 30.1663 397.101 32.3332C396.055 33.2412 393.511 33.1125 392.971 34.9205L393.139 58.5625C398.855 62.7053 396.752 55.4353 402.159 54.6993C407.592 53.9602 408.187 56.1985 410.613 49.5992L418.844 49.6958L421.435 54.3765C424.493 55.1819 427.938 53.8184 430.71 55.745C431.519 58.104 430.009 63.7873 432.46 65.1769C434.208 66.1674 435.568 64.8069 435.957 67.8164C436.481 71.8657 436.779 80.9416 436.568 85.0955C436.516 86.1061 435.821 91.2896 435.504 91.73C434.57 93.0251 431.633 91.1478 431.024 95.7722C430.097 102.814 431.661 111.343 430.895 118.554L430.435 119.213C428.839 119.543 426.038 119.645 425.473 121.53C424.193 125.801 426.279 134.934 425.272 139.769C424.631 141.649 420.512 140.616 420.335 143.228L420.212 166.575C419.564 168.718 415.461 168.004 414.822 170.141C415.15 172.697 414.131 175.548 414.106 177.86C414.082 180.038 414.805 182.097 414.737 184.584C414.579 190.417 414.04 188.45 410.834 190.196C407.44 192.044 410.243 196.976 408.593 199.556C408.008 200.472 405.175 200.67 404.364 202.176C403.073 204.571 404.675 208.04 403.203 210.524C402.261 212.113 400.021 211.463 399.012 212.489C398.118 213.398 398.547 215.501 397.352 216.422L389.639 217.114C386.926 218.272 388.463 221.917 384.038 222.705C381.971 223.074 373.541 223.183 372.136 221.988C371.118 221.121 371.432 218.961 370.191 217.779C369.24 216.874 367.674 216.957 366.811 216.121C365.994 215.33 365.858 213.412 364.819 212.52C363.77 211.62 361.427 211.603 360.866 210.737C359.326 208.36 361.041 196.715 360.339 192.959C359.959 190.927 357.145 189.425 355.575 190.978C353.431 193.098 355.746 206.482 354.64 210.157C354.063 212.075 351.411 211.426 350.266 212.501C349.228 213.478 349.6 215.721 348.305 216.692H329.25L329.251 216.694ZM392.159 60.9356C387.296 56.7254 385.6 69.197 388.5 70.4881C394.477 73.1508 393.316 61.9371 392.159 60.9356ZM399.149 86.3735C398.033 85.0593 399.297 81.3006 394.85 82.0286C392.219 82.459 393.171 85.376 392.177 86.3796C391.425 87.1387 388.755 86.9638 387.944 87.7461C386.273 89.3589 388.493 95.6687 385.804 97.6254C385.104 98.1352 383.748 98.1211 383.017 98.7576C381.066 100.453 382.989 109.404 382.103 112.375C381.399 114.735 377.345 113.859 376.718 115.945C375.6 119.664 378.119 133.439 375.462 135.368C373.756 136.607 371.577 135.368 371.041 138.783C370.487 142.312 371.884 161.312 370.325 162.382C369.044 163.261 366.398 161.989 365.932 165.539C365.654 167.646 365.614 181.853 366.067 183.34C366.581 185.03 369.052 184.832 370.194 185.93C371.275 186.968 371.177 189.35 372.496 189.787C376.775 191.205 376.192 187.123 377.688 185.642C378.594 184.745 379.861 184.955 380.839 184.314C382.376 183.308 382.244 181.117 383.294 180.057C384.633 178.704 387.115 179.627 387.569 177.629L387.893 153.35C388.459 151.67 392.647 152.581 393.311 150.371C394.345 146.928 392.244 133.13 394.108 131.329C395.292 130.186 397.869 131.162 398.431 127.537C399.483 120.75 397.652 111.775 398.541 104.738C399.196 102.79 403.413 104.671 404.03 100.711C404.287 99.0613 404.351 91.0563 403.952 89.6898C403.255 87.2986 399.699 87.0221 399.149 86.3735Z" fill="white"/>
<path d="M580.731 93.3321C581.554 92.5388 584.344 92.7248 584.969 90.573C585.896 87.3864 583.78 79.3784 586.222 77.2939C587.44 76.2532 589.389 76.7187 590.27 74.6252C591.127 72.587 590.473 68.2713 591.761 66.6132C592.532 65.6207 594.889 65.6679 595.466 64.7187C596.488 63.0385 594.822 57.2878 597.224 55.1601C598.072 54.7258 598.985 54.7056 599.914 54.6262C605.951 54.1114 619.294 53.9565 625.17 54.6363C631.556 55.3753 628.297 60.3065 623.708 61.1632L622.503 70.1597C613.744 70.8414 619.573 82.224 617.321 85.9505C616.671 87.0264 613.82 86.945 612.853 88.2009C611.144 90.4191 612.713 94.6112 611.716 96.5659C611.117 97.7384 609.331 97.5373 608.318 98.2069C605.318 100.19 606.822 109.683 606.293 112.951C605.766 114.489 602.868 114.301 602.031 115.126C599.93 117.193 602.986 127.88 600.194 129.78C593.054 130.661 597.099 135.639 595.321 139.449C594.474 141.264 592.557 140.847 591.493 141.779C589.105 143.872 590.612 152.805 590.041 155.976L585.357 158.57L584.816 166.97C584.007 168.574 581.06 167.751 580.417 169.323C578.917 172.991 581.751 181.791 578.011 184.212C577.026 184.85 574.906 184.976 574.392 185.769L573.376 194.678L568.927 196.947C568.26 200.194 569.928 208.528 567.753 210.864C566.879 211.803 565.545 211.514 564.599 212.19C561.789 214.198 564.159 223.34 562.858 226.624L557.905 229.541C557.005 231.803 558.511 236.174 556.78 237.92C555.968 238.738 554.264 238.678 553.382 239.561C552.402 240.542 552.767 241.993 551.781 242.992C550.721 244.066 548.07 244.106 547.491 244.997C546.347 246.762 547.359 250.596 546.962 252.716C546.284 256.346 539.696 253.687 537.023 255.376L535.218 260.006C532.901 260.75 528.205 259.703 526.248 261.119C525.129 261.929 525.619 265.154 523.612 265.756C522.316 266.144 512.413 266.049 511.079 265.616C508.664 264.832 509.377 262.099 507.727 261.135C505.241 259.683 501.159 260.917 499.334 260.004C497.968 259.32 498.341 256.935 497.374 255.812C496.428 254.713 494.076 254.833 493.45 253.578L493.213 225.946C493.499 224.127 494.455 223.16 496.295 222.873C499.279 222.405 514.68 222.37 517.431 222.962C521.828 223.908 517.405 232.106 521.593 233.363C525.504 234.538 525.135 230.298 526.482 228.943C527.449 227.971 529.836 227.99 530.454 226.757L531.414 217.941C533.212 217.15 535.336 217.322 536.212 215.176L536.307 101.84C535.721 97.0265 540.907 99.5252 541.92 95.7022L542.044 56.7117C542.257 56.0038 543.099 55.3502 543.762 55.0727C545.675 54.2723 561.705 54.3447 564.631 54.6493C566.017 54.7931 567.766 55.0656 568.429 56.4502C570.375 64.3205 566.99 121.818 569.384 124.225C570.012 124.858 571.454 125.206 572.352 124.969C576.229 123.944 573.595 114.11 574.551 110.914C575.718 108.558 578.928 109.421 579.793 106.641C580.702 103.72 579.145 94.8626 580.734 93.3301L580.731 93.3321ZM564.709 136.302C563.107 136.867 562.73 141.165 565.75 141.317C570.751 141.568 569.37 134.657 564.709 136.302Z" fill="white"/>
<path d="M693.671 60.9341C694.441 61.7385 694.292 63.9396 695.502 64.9783C696.562 65.8883 699.806 65.9356 700 66.7531L699.96 101.294C699.585 103.903 695.792 102.765 695.05 105.339C693.804 109.659 696.084 118.77 694.822 122.992C694.123 125.331 690.23 123.958 689.461 128.264C688.322 134.647 690.468 143.824 689.311 149.908C688.722 153.005 684.701 150.616 683.843 154.514C682.444 160.87 684.7 171.004 683.646 177.786C683.145 179.271 679.415 178.675 678.787 180.763C677.772 184.132 679.945 198.331 677.751 199.978C676.701 200.766 673.998 200.486 673.448 201.728C672.292 206.465 674.102 211.586 672.243 216.146C671.802 216.651 667.142 217.236 666.096 217.276C664.515 217.337 653.463 216.758 652.893 216.423C650.006 214.726 653.604 198.925 650.636 196.325C645.15 191.519 646.092 204.121 645.111 205.299C644.237 206.348 641.974 206.025 641.111 206.899C640.177 207.844 640.764 210.071 639.88 210.98C639.104 211.777 636.289 211.818 635.658 212.355C634.882 213.014 635.032 216.075 633.475 216.606C631.496 216.851 629.529 216.544 627.547 216.843C625.302 217.181 623.978 218.636 622.329 218.904C619.504 219.365 611.026 219.165 608.316 218.401C606.518 217.893 604.933 216.553 603.112 216.048C602.776 213.304 603.797 208.376 601.087 206.609C599.791 205.765 597.636 206.238 597.431 204.109L597.429 176.198C597.596 173.797 600.76 174.302 601.755 173.526C604.536 171.361 601.994 157.723 603.13 153.944C603.766 151.826 607.02 152.835 607.691 151.194C608.925 148.176 606.915 138.099 609.004 136.752C609.669 136.324 610.961 136.247 611.821 135.787C615.448 133.845 612.63 129.743 613.96 126.746C614.76 124.944 617.087 125.353 618.192 124.26C619.13 123.333 619.101 121.316 620.068 120.544C621.012 119.79 622.948 120.038 623.767 119.203C624.585 118.368 624.265 116.609 625.162 115.566C626.017 114.573 627.584 114.681 628.541 113.905C630.364 112.429 629.12 109.83 632.415 109.387C634.252 109.139 649.196 109.234 650.102 109.683C651.361 110.308 651.241 112.655 652.343 113.596C653.339 114.446 654.809 114.183 655.678 114.741C658.41 116.497 654.297 127.511 661.17 124.692C663.682 123.662 661.732 113.737 662.543 110.927C663.285 108.353 667.078 109.491 667.452 106.882C666.79 99.9286 668.39 91.2458 667.494 84.5208C666.961 80.5279 660.447 81.9004 657.513 82.7229C655.94 84.2906 657.64 89.9195 656.319 91.7516C655.856 92.3941 653.449 92.1337 652.359 92.9522C650.997 93.9738 651.396 96.7219 649.969 97.3072C646.348 97.4298 627.505 98.5721 625.665 97.1694C623.668 95.648 623.718 83.6249 625.58 82.1789C626.352 81.5786 628.191 81.9467 628.845 81.106C630.414 79.0899 629.684 74.4997 630.014 72.0653C631.213 71.3363 633.541 71.0769 634.435 70.0522C635.326 69.0296 635.17 66.8345 635.879 66.3328C636.739 65.7234 638.98 65.9617 640.006 64.9874C640.969 64.0733 640.723 62.195 641.417 61.3644C642.173 60.4585 644.535 60.563 645.634 58.8667C646.337 57.7807 646.252 55.9698 646.86 55.3363C648.336 53.7958 653.742 55.3775 655.708 54.381C657.198 53.6269 656.427 50.1799 659.357 49.6379C660.86 49.3604 676.221 49.3835 677.185 49.7123C678.785 50.3358 678.598 53.6661 679.787 54.382C681.313 55.3011 685.287 54.0039 687.805 55.3282C689.76 56.3559 689.155 58.1518 690.466 59.3785C691.295 60.1548 693.107 60.3468 693.669 60.9341H693.671ZM652.481 163.751C653.315 162.892 656.176 162.774 656.714 160.99C657.107 159.686 657.029 152.152 656.834 150.469C656.359 146.384 653.838 147.352 652.315 145.475C651.537 144.518 651.648 143.005 650.644 142.112C648.982 140.633 644.001 141.201 641.816 141.631C640.419 142.202 640.683 145.227 639.202 146.323C638.166 147.089 635.861 146.912 635.235 147.957C634.127 149.811 635.66 157.798 634.712 160.846C633.748 163.946 630.04 162.11 629.396 166.722C628.861 170.56 629.003 184.807 630.175 188.224C631.248 191.352 637.545 190.894 639.685 189.272C640.891 188.358 640.365 186.73 641.633 185.627C642.768 184.641 644.297 185.08 645.336 183.731C646.174 182.643 645.936 180.896 646.722 180.084C647.675 179.101 650.786 179.353 651.507 178.15C652.555 175.28 650.728 165.556 652.48 163.751H652.481Z" fill="white"/>
<path d="M500.463 215.856L499.53 216.603C497.661 216.49 495.858 217.19 494.043 217.275C492.428 217.351 480.875 216.771 480.281 216.422C478.007 215.084 479.776 201.349 479.047 198.095C478.777 196.889 477.786 195.76 476.52 195.561C471.576 194.781 474.691 204.969 472.926 206.002C472.149 206.458 470.565 205.515 469.026 206.863C467.626 208.091 468.043 210.226 467.131 211.118C466.201 212.029 464.046 211.548 463.214 212.799C462.661 213.632 462.893 215.316 462.228 216.008C461.148 217.135 456.77 216.522 454.924 216.827C453.036 217.139 451.421 218.626 449.713 218.895C447.491 219.246 439.671 219.247 437.449 218.895C435.439 218.577 432.663 216.536 430.505 216.043C430.038 213.551 431.063 209.799 429.745 207.578C428.421 205.345 425.21 207.037 424.772 202.479C423.983 194.275 425.326 184.661 424.931 176.306C425.438 173.208 429.21 174.967 430.164 172.023C431.615 167.544 429.219 158.273 430.521 153.94C431.148 151.853 435.202 152.729 435.906 150.369C436.741 147.571 435.018 138.585 436.707 136.919C437.464 136.172 439.919 136.269 440.546 135.303C441.886 133.24 440.162 128.489 441.926 126.198C442.891 124.945 445.274 125.098 445.978 124.372C446.664 123.665 446.421 121.727 447.176 120.815C448.075 119.73 450.273 120.103 451.159 119.199C451.975 118.365 451.656 116.62 452.557 115.564C453.562 114.384 455.804 114.512 456.748 113.596C458.132 112.254 457.074 109.816 460.366 109.381C462.486 109.1 477.17 109.222 478.24 109.918C479.053 110.447 478.932 112.341 479.978 113.352C480.994 114.334 483.338 114.345 483.939 115.546L484.727 124.12C492.91 128.334 488.683 115.063 489.925 110.913C490.585 108.705 494.242 109.271 494.961 107.517C495.773 105.535 495.775 88.5823 495.433 85.6462C494.925 81.2822 490.995 81.5014 487.266 81.9991C482.138 82.6829 485.343 89.4712 483.954 91.5497C483.421 92.3481 480.968 92.3058 479.974 93.1686C478.765 94.2184 479.006 96.9333 477.097 97.5638C473.522 97.2772 454.539 98.5904 452.959 96.9836C451.782 93.9217 450.755 85.3093 452.786 82.8247C453.515 81.9338 454.98 81.983 455.845 81.4039C458.657 79.5235 456.423 74.8599 457.584 72.521C458.326 71.0268 461.508 71.2681 462.408 70.0665C463.16 69.062 462.654 67.5708 463.416 66.6024C464.223 65.5768 466.411 65.9126 467.398 64.9845C468.408 64.0343 468.071 61.9217 469.088 61.0821C470.982 59.5155 474.389 60.4315 474.818 55.3375L483.841 54.1349C485.164 53.2781 483.828 50.4053 486.857 49.7417C489.228 49.2218 500.949 49.2409 503.572 49.5919C507.126 50.0665 505.812 53.2902 506.985 54.1399C508.708 55.3877 514.249 53.9016 516.01 55.3515C516.693 55.9136 517.257 58.8548 517.975 59.5356C518.741 60.2636 520.984 60.2485 521.634 60.9182C522.979 62.3028 522.107 66.5974 527.293 66.4536L527.642 100.204C527.351 104.281 523.232 102.586 522.439 105.335C521.166 109.746 523.217 118.635 522.23 123.566C521.702 125.105 518.805 124.916 517.966 125.741C515.312 128.354 517.472 145.934 516.626 150.387C516.099 151.926 513.201 151.738 512.364 152.562C510.599 154.3 512.354 173.423 511.563 177.189C510.892 179.436 507.117 178.826 506.34 180.363C505.091 182.838 506.714 194.405 505.933 198.424C505.346 201.446 500.464 199.91 500.464 204.119V215.853L500.463 215.856ZM478.474 178.568C480.117 176.948 478.449 168.178 479.412 165.254C480.245 162.724 483.987 163.381 484.649 160.419C485.067 158.551 484.996 152.011 484.633 150.058C483.915 146.191 481.07 147.37 479.691 145.485C478.886 144.383 479.215 142.321 477.472 141.552C476.388 141.073 471.746 141.044 470.494 141.275C467.483 141.83 468.264 145.141 467.272 146.166C466.595 146.865 463.829 146.886 463.183 147.956C462.056 149.823 463.646 157.843 462.665 160.85C461.858 163.321 458.097 162.757 457.425 165.124C456.882 167.034 456.708 173.377 456.724 175.654C456.751 179.451 457.762 183.815 457.431 187.796C458.156 191.427 465.999 191.145 467.651 188.731C468.276 187.818 468.223 186.183 469.324 185.37C470.428 184.554 472.249 184.918 473.271 183.718C474.173 182.661 473.844 180.952 474.673 180.087C475.475 179.249 477.779 179.253 478.474 178.568Z" fill="white"/>
<path d="M178.777 216.136L152.776 216.195C150.705 213.382 153.264 202.55 150.759 201.329C144.829 198.435 147.355 207.87 145.994 210.552C145.252 212.017 142.867 211.513 141.925 212.364C141.107 213.104 140.993 215.695 140.31 216.187C138.592 217.425 134.17 216.033 131.836 217.108C129.752 218.068 130.474 220.318 129.506 221.49C128.122 223.167 116.562 223.113 114.662 221.786C114.128 221.413 114.346 219.319 113.225 218.072C112.12 216.844 110.471 216.974 109.531 216.169C108.551 215.332 108.652 213.707 107.872 212.794C106.481 211.168 103.895 212.539 103.244 209.585L103.628 169.426L108.616 166.576L108.735 143.786C109.259 141.038 112.035 141.832 113.078 141.132C115.507 139.5 113.753 124.113 114.4 120.659C116.539 119.853 119.182 120.124 119.811 117.392C120.718 113.453 118.839 94.8639 120.631 93.3395C121.223 92.8357 122.816 93.0962 123.876 91.8262C126.449 88.7452 124.226 71.5698 124.951 66.7523C128.412 64.885 129.876 66.2183 130.536 61.5868C131.095 57.6633 128.999 55.064 134.199 54.6266C139.275 54.1992 148.785 54.1801 153.832 54.6577C154.834 54.7522 155.848 54.9865 156.781 55.3435C158.395 56.7311 157.02 76.0202 157.466 79.5004C156.833 82.8951 152.667 81.2591 151.989 83.5386C150.861 90.0725 153.167 100.131 151.756 106.216C151.151 108.824 149.376 108.179 147.976 109.154C144.777 111.381 146.961 125.145 146.195 129.171L145.721 129.816C142.697 130.663 141.199 130.881 140.719 134.327C139.794 140.965 141.39 149.148 140.56 155.961C139.95 157.979 136.476 157.221 136.184 159.42L136.269 188.955C136.904 190.887 144.048 190.801 145.542 189.702C146.688 188.859 146.651 186.164 147.623 185.353C148.54 184.586 150.95 184.836 151.607 183.737C152.735 181.848 150.707 176.01 153.019 174.528C153.863 173.987 155.31 174.19 156.361 173.39C159.926 170.676 156.499 154.802 158.836 152.947C160.041 151.991 162.569 152.609 163.07 149.906C164.264 143.465 161.946 133.714 163.223 127.12C163.84 123.935 167.703 126.649 168.556 121.848C169.687 115.479 167.529 106.222 168.703 100.203C169.209 97.605 172.655 98.4898 173.624 96.1691C174.56 89.3134 172.73 80.5763 173.77 73.9629C174.36 70.2083 178.136 71.6975 179.085 68.6467C180.04 65.5818 178.491 57.6522 179.612 55.7608C180.176 54.8096 181.939 54.714 182.954 54.6235C189.273 54.0594 200.716 54.1429 207.098 54.6286C208.457 54.7321 210.603 54.717 211.047 56.2857C212.284 60.6547 206.868 58.9946 206.251 62.2052C205.342 68.8247 207.479 78.7844 206.114 84.9785C205.475 87.8734 203.142 86.6175 201.757 87.8996C199.258 90.2123 201.411 108.129 200.524 112.374C199.934 114.339 197.211 113.673 196.278 114.565C194.548 116.216 196.237 136.015 195.499 139.772L190.359 142.504C188.984 146.358 191.415 159.838 188.862 162.21C187.571 163.41 185.171 162.684 184.503 165.686L184.406 188.944L179.717 190.387C179.43 190.558 178.778 191.616 178.778 191.828V216.135L178.777 216.136Z" fill="white"/>
</g>
</svg>
