<svg width="269" height="269" viewBox="0 0 269 269" fill="none" xmlns="http://www.w3.org/2000/svg">
<g style="mix-blend-mode:multiply">
<rect width="134" height="269" transform="translate(67)" fill="black"/>
<path d="M67 209.532C68.9995 208.851 71.4837 209.307 71.953 206.878C73.2144 200.357 70.9685 191.018 72.2299 184.497C72.7736 181.683 75.3585 183.154 76.6637 181.607C79.1682 178.638 76.8653 162.12 77.749 157.263C78.1674 154.963 80.8206 155.833 81.9985 154.726C84.2455 152.613 81.7399 138.811 82.9189 135.302C83.602 133.271 87.5766 135.474 88.3646 131.137C89.5629 124.552 87.6856 115.595 88.5734 108.742C89.0071 107.481 92.1407 107.44 92.8738 106.539C94.7878 104.189 92.7557 87.0752 93.6037 82.6874C94.0945 80.1503 96.3943 81.0512 97.7952 80.0933C100.551 78.2091 98.6107 63.8142 99.3387 60.1616C100.008 58.194 103.522 59.6918 104.212 56.5528C105.545 50.4963 103.174 40.7048 104.352 34.6534C104.867 32.0075 108.655 32.8007 109.32 30.5737C110.422 26.8825 107.81 12.7825 111.152 10.9288C112.001 10.458 113.076 10.7325 113.998 9.81733C115.636 8.19135 114.247 5.90542 118.004 5.34309C121.02 4.89262 135.36 5.09497 138.593 5.51291C139.556 5.63697 140.31 5.72442 140.833 6.66604L141.588 24.9433C141.015 26.6079 137.157 26.0893 136.267 29.7999C135.302 33.8257 137.019 44.2679 135.747 46.7979C134.958 48.3659 130.93 47.7446 130.93 49.8973V67.9793C130.93 68.3658 132.331 69.3175 132.944 69.4091C138.361 70.2165 135.618 61.6188 137.101 59.58C137.624 58.8611 139.827 59.0207 140.865 58.1228C141.887 57.2381 141.749 55.5227 142.529 54.701C143.958 53.1961 146.735 54.6268 147.299 50.9895C148.087 45.901 145.57 44.1734 152.155 41.7135L153.251 33.2013C157.522 32.6064 157.018 29.6911 158.618 27.8261C159.58 26.7055 161.608 27.0086 162.557 25.5443C163.894 23.48 162.57 18.84 164.034 16.848C164.781 15.8321 167.828 15.944 168.462 14.4522C169.992 10.8535 166.481 6.15862 171.938 5.52918C177.343 4.90584 190.206 5.00244 195.701 5.54748C202.078 6.17998 200.498 8.81571 200.427 14.2072L195.943 16.6477L195.051 25.1904L190.442 27.9665L189.498 36.0658C188.438 37.0746 186.861 37.0003 185.763 37.9867C184.487 39.1337 184.564 41.0587 183.587 42.0288C182.414 43.1931 180.738 42.4518 179.649 44.3117C178.225 46.744 179.739 50.9976 178.76 52.4649C178.25 53.2286 176.014 53.2439 175.084 53.8784C172.553 55.603 174.879 60.7504 173.653 63.1858C172.969 64.5444 170.813 64.1884 169.726 64.9145C168.516 65.7229 168.791 67.5523 167.694 68.5335C166.677 69.4436 164.277 69.4345 163.696 70.3303L162.662 79.1924C161.662 80.7279 158.265 78.7694 157.573 83.8537C156.902 88.7937 159.227 89.8777 152.947 91.8026L151.913 100.665C150.959 102.132 147.701 100.374 146.908 104.844C146.215 108.754 146.215 126.657 146.908 130.568C147.768 135.422 151.67 132.678 152.292 135.899C153.57 142.513 151.615 152.004 152.443 158.944C153.018 161.913 157.063 160.492 157.529 162.906C158.41 171.123 156.265 182.022 157.657 189.901C158.431 194.278 161.086 192.496 162.486 193.838C164.651 195.912 161.832 214.206 162.633 218.185C162.519 218.558 161.356 219.137 161.199 219.137H132.345C129.346 214.777 133.965 202.119 129.534 198.779C128.625 198.093 127.059 198.043 126.534 197.536C124.801 195.862 126.424 173.195 125.824 169.143C125.337 166.542 121.734 166.352 121.026 164.894C119.849 162.469 121.891 152.293 119.196 150.764C113.937 147.782 114.381 156.872 114.447 159.727C105.683 160.501 111.295 170.58 109.151 175.063C108.479 176.467 106.081 176.464 105.15 177.283C102.241 179.839 104.663 196.689 103.761 201.324C103.316 203.608 101.195 203.109 99.8202 204.168C96.3526 206.841 101.692 218.437 96.1632 219.163C90.9282 219.85 74.2783 219.79 68.9527 219.166C68.1291 219.069 67.4978 219.096 67.001 218.289V209.531L67 209.532ZM130.226 79.4222C132.629 77.1027 127.659 73.5854 126.112 76.1631C124.477 78.8894 128.025 81.5444 130.226 79.4222Z" fill="white"/>
</g>
</svg>
